<svg width="30" height="30" viewBox="0 0 30 30" fill="none" xmlns="http://www.w3.org/2000/svg">
<path d="M27.5019 13.2965C26.3182 11.4198 25.4808 9.54303 25.0189 7.46419C24.7301 6.22265 23.7773 5.26985 22.5358 4.98112C20.4281 4.51916 18.5802 3.71072 16.7035 2.49806C15.6641 1.83398 14.3359 1.83398 13.2965 2.49806C11.4198 3.68184 9.54303 4.51916 7.46419 4.98112C6.22265 5.26985 5.26985 6.22265 4.98112 7.46419C4.51916 9.54303 3.71072 11.4198 2.49806 13.2965C1.83398 14.3359 1.83398 15.6641 2.49806 16.7035C3.68184 18.5802 4.51916 20.457 4.98112 22.5358C5.26985 23.7773 6.22265 24.7301 7.46419 25.0189C9.5719 25.4808 11.4198 26.2893 13.2965 27.5019C14.3359 28.166 15.6641 28.166 16.7035 27.5019C18.5802 26.3182 20.457 25.4808 22.5358 25.0189C23.7773 24.7301 24.7301 23.7773 25.0189 22.5358C25.4808 20.4281 26.2893 18.5802 27.5019 16.7035C28.166 15.6641 28.166 14.3359 27.5019 13.2965ZM15 25.7407C9.08107 25.7407 4.2593 20.9189 4.2593 15C4.2593 9.08107 9.08107 4.2593 15 4.2593C20.9189 4.2593 25.7407 9.05219 25.7407 15C25.7407 20.9189 20.9189 25.7407 15 25.7407Z" fill="#D5D7D7" stroke="#D5D7D7" stroke-width="4"/>
<path d="M12.42 19V17.956L15.756 14.788C16.036 14.524 16.244 14.292 16.38 14.092C16.516 13.892 16.604 13.708 16.644 13.54C16.692 13.364 16.716 13.2 16.716 13.048C16.716 12.664 16.584 12.368 16.32 12.16C16.056 11.944 15.668 11.836 15.156 11.836C14.748 11.836 14.376 11.908 14.04 12.052C13.712 12.196 13.428 12.416 13.188 12.712L12.096 11.872C12.424 11.432 12.864 11.092 13.416 10.852C13.976 10.604 14.6 10.48 15.288 10.48C15.896 10.48 16.424 10.58 16.872 10.78C17.328 10.972 17.676 11.248 17.916 11.608C18.164 11.968 18.288 12.396 18.288 12.892C18.288 13.164 18.252 13.436 18.18 13.708C18.108 13.972 17.972 14.252 17.772 14.548C17.572 14.844 17.28 15.176 16.896 15.544L14.028 18.268L13.704 17.68H18.612V19H12.42Z" fill="#D5D7D7"/>
</svg>
