<svg width="30" height="30" viewBox="0 0 30 30" fill="none" xmlns="http://www.w3.org/2000/svg">
<path d="M27.5019 13.2965C26.3182 11.4198 25.4808 9.54303 25.0189 7.46419C24.7301 6.22265 23.7773 5.26985 22.5358 4.98112C20.4281 4.51916 18.5802 3.71072 16.7035 2.49806C15.6641 1.83398 14.3359 1.83398 13.2965 2.49806C11.4198 3.68184 9.54303 4.51916 7.46419 4.98112C6.22265 5.26985 5.26985 6.22265 4.98112 7.46419C4.51916 9.54303 3.71072 11.4198 2.49806 13.2965C1.83398 14.3359 1.83398 15.6641 2.49806 16.7035C3.68184 18.5802 4.51916 20.457 4.98112 22.5358C5.26985 23.7773 6.22265 24.7301 7.46419 25.0189C9.5719 25.4808 11.4198 26.2893 13.2965 27.5019C14.3359 28.166 15.6641 28.166 16.7035 27.5019C18.5802 26.3182 20.457 25.4808 22.5358 25.0189C23.7773 24.7301 24.7301 23.7773 25.0189 22.5358C25.4808 20.4281 26.2893 18.5802 27.5019 16.7035C28.166 15.6641 28.166 14.3359 27.5019 13.2965ZM15 25.7407C9.08107 25.7407 4.2593 20.9189 4.2593 15C4.2593 9.08107 9.08107 4.2593 15 4.2593C20.9189 4.2593 25.7407 9.05219 25.7407 15C25.7407 20.9189 20.9189 25.7407 15 25.7407Z" fill="#B25024" stroke="#B25024" stroke-width="4"/>
<path d="M15.168 19.12C14.576 19.12 13.996 19.036 13.428 18.868C12.868 18.692 12.396 18.452 12.012 18.148L12.684 16.936C12.988 17.184 13.356 17.384 13.788 17.536C14.22 17.688 14.672 17.764 15.144 17.764C15.704 17.764 16.14 17.652 16.452 17.428C16.764 17.196 16.92 16.884 16.92 16.492C16.92 16.108 16.776 15.804 16.488 15.58C16.2 15.356 15.736 15.244 15.096 15.244H14.328V14.176L16.728 11.32L16.932 11.908H12.42V10.6H18.144V11.644L15.744 14.5L14.928 14.02H15.396C16.428 14.02 17.2 14.252 17.712 14.716C18.232 15.172 18.492 15.76 18.492 16.48C18.492 16.952 18.372 17.388 18.132 17.788C17.892 18.188 17.524 18.512 17.028 18.76C16.54 19 15.92 19.12 15.168 19.12Z" fill="#B25024"/>
</svg>
