<svg width="69" height="81" viewBox="0 0 69 81" fill="none" xmlns="http://www.w3.org/2000/svg">
<path d="M1 5.58716H41.1371C48.7372 5.58716 54.8984 11.7483 54.8984 19.3484V51.4581" stroke="#1F3881" stroke-width="9.17419"/>
<path d="M59.4856 65.2195L19.0358 65.2195C11.4356 65.2195 5.27448 59.0583 5.27448 51.4582L5.27448 19.3485" stroke="#1F3881" stroke-width="9.17419"/>
<path d="M7.93122 80.3937V73.9717H10.1238C10.8761 73.9717 11.4939 74.1063 11.977 74.3754C12.4663 74.6384 12.8272 75.0115 13.0596 75.4947C13.2981 75.9717 13.4174 76.5344 13.4174 77.1827C13.4174 77.831 13.2981 78.3968 13.0596 78.8799C12.8272 79.357 12.4663 79.7301 11.977 79.9992C11.4939 80.2622 10.8761 80.3937 10.1238 80.3937H7.93122ZM9.10551 79.3845H10.0688C10.607 79.3845 11.0321 79.2989 11.344 79.1276C11.6559 78.9503 11.8792 78.6995 12.0137 78.3754C12.1483 78.0451 12.2156 77.6475 12.2156 77.1827C12.2156 76.724 12.1483 76.3295 12.0137 75.9992C11.8792 75.669 11.6559 75.4151 11.344 75.2378C11.0321 75.0604 10.607 74.9717 10.0688 74.9717H9.10551V79.3845ZM16.1008 80.3937L13.7522 73.9717H15.0091L16.8256 79.1919L18.6513 73.9717H19.8898L17.5412 80.3937H16.1008ZM25.6466 80.5038C25.0411 80.5038 24.512 80.3662 24.0594 80.0909C23.6068 79.8157 23.2552 79.4334 23.0044 78.9442C22.7536 78.4487 22.6283 77.8738 22.6283 77.2194C22.6283 76.5589 22.7567 75.9778 23.0136 75.4763C23.2766 74.9687 23.6466 74.5742 24.1237 74.2928C24.6068 74.0054 25.1787 73.8617 25.8392 73.8617C26.5915 73.8617 27.2154 74.0421 27.7108 74.4029C28.2062 74.7638 28.5273 75.2622 28.6741 75.8983H27.3621C27.2643 75.5986 27.0869 75.3662 26.83 75.2011C26.5732 75.0298 26.2429 74.9442 25.8392 74.9442C25.197 74.9442 24.7016 75.1491 24.353 75.5589C24.0044 75.9625 23.8301 76.5191 23.8301 77.2286C23.8301 77.9381 24.0013 78.4885 24.3438 78.8799C24.6925 79.2653 25.1634 79.4579 25.7567 79.4579C26.3377 79.4579 26.775 79.3019 27.0686 78.99C27.3683 78.672 27.5487 78.2561 27.6099 77.7423H25.986V76.8616H28.7933V80.3937H27.7108L27.619 79.5497C27.4111 79.8555 27.1511 80.0909 26.8392 80.2561C26.5273 80.4212 26.1297 80.5038 25.6466 80.5038ZM29.9349 80.3937V73.9717H32.2927C32.8065 73.9717 33.2285 74.0604 33.5587 74.2378C33.8951 74.409 34.1459 74.6445 34.311 74.9442C34.4762 75.2378 34.5587 75.565 34.5587 75.9258C34.5587 76.3173 34.4548 76.6751 34.2468 76.9992C34.045 77.3234 33.7269 77.5589 33.2927 77.7056L34.6229 80.3937H33.2743L32.0817 77.8616H31.1092V80.3937H29.9349ZM31.1092 76.9992H32.2193C32.6107 76.9992 32.8982 76.9044 33.0817 76.7148C33.2652 76.5252 33.3569 76.2745 33.3569 75.9625C33.3569 75.6567 33.2652 75.4121 33.0817 75.2286C32.9043 75.0451 32.6138 74.9534 32.2101 74.9534H31.1092V76.9992ZM38.66 80.5038C38.0178 80.5038 37.4551 80.3631 36.972 80.0818C36.4949 79.8004 36.1188 79.412 35.8435 78.9166C35.5744 78.4151 35.4399 77.8371 35.4399 77.1827C35.4399 76.5283 35.5744 75.9534 35.8435 75.458C36.1188 74.9564 36.4949 74.565 36.972 74.2837C37.4551 74.0023 38.0178 73.8617 38.66 73.8617C39.2961 73.8617 39.8557 74.0023 40.3389 74.2837C40.8221 74.565 41.1982 74.9564 41.4673 75.458C41.7364 75.9534 41.871 76.5283 41.871 77.1827C41.871 77.8371 41.7364 78.4151 41.4673 78.9166C41.1982 79.412 40.8221 79.8004 40.3389 80.0818C39.8557 80.3631 39.2961 80.5038 38.66 80.5038ZM38.66 79.4487C39.2716 79.4487 39.7579 79.2469 40.1187 78.8432C40.4857 78.4396 40.6692 77.8861 40.6692 77.1827C40.6692 76.4794 40.4857 75.9258 40.1187 75.5222C39.7579 75.1185 39.2716 74.9167 38.66 74.9167C38.0484 74.9167 37.5591 75.1185 37.1921 75.5222C36.8252 75.9258 36.6417 76.4794 36.6417 77.1827C36.6417 77.8861 36.8252 78.4396 37.1921 78.8432C37.5591 79.2469 38.0484 79.4487 38.66 79.4487ZM45.3848 80.5038C44.9139 80.5038 44.4888 80.412 44.1096 80.2285C43.7304 80.0389 43.4277 79.7545 43.2014 79.3753C42.9812 78.9961 42.8711 78.516 42.8711 77.935V73.9717H44.0454V77.9442C44.0454 78.4457 44.1647 78.8188 44.4032 79.0634C44.6478 79.3081 44.9842 79.4304 45.4124 79.4304C45.8344 79.4304 46.1677 79.3081 46.4124 79.0634C46.657 78.8188 46.7793 78.4457 46.7793 77.9442V73.9717H47.9536V77.935C47.9536 78.516 47.8374 78.9961 47.605 79.3753C47.3726 79.7545 47.0607 80.0389 46.6692 80.2285C46.2839 80.412 45.8558 80.5038 45.3848 80.5038ZM49.1524 80.3937V73.9717H51.5285C52.0422 73.9717 52.4673 74.0574 52.8037 74.2286C53.1401 74.3999 53.3908 74.6353 53.556 74.935C53.7211 75.2347 53.8037 75.5711 53.8037 75.9442C53.8037 76.2989 53.7242 76.6261 53.5651 76.9258C53.4061 77.2194 53.1584 77.4579 52.822 77.6414C52.4856 77.8188 52.0545 77.9075 51.5285 77.9075H50.3266V80.3937H49.1524ZM50.3266 76.9534H51.4551C51.8649 76.9534 52.1584 76.8647 52.3358 76.6873C52.5193 76.5038 52.611 76.2561 52.611 75.9442C52.611 75.6262 52.5193 75.3785 52.3358 75.2011C52.1584 75.0176 51.8649 74.9259 51.4551 74.9259H50.3266V76.9534ZM56.9176 80.5038C56.4466 80.5038 56.0308 80.4243 55.6699 80.2652C55.309 80.1001 55.0246 79.8677 54.8167 79.568C54.6088 79.2622 54.5017 78.8922 54.4956 78.4579H55.7341C55.7464 78.7576 55.8534 79.0114 56.0552 79.2194C56.2632 79.4212 56.5476 79.5221 56.9084 79.5221C57.2203 79.5221 57.468 79.4487 57.6515 79.3019C57.835 79.149 57.9267 78.9472 57.9267 78.6965C57.9267 78.4335 57.8442 78.2286 57.679 78.0818C57.52 77.935 57.306 77.8157 57.0369 77.724C56.7677 77.6322 56.4803 77.5344 56.1745 77.4304C55.6791 77.2592 55.2999 77.039 55.0369 76.7699C54.78 76.5008 54.6516 76.143 54.6516 75.6965C54.6454 75.3173 54.7341 74.9931 54.9176 74.724C55.1072 74.4488 55.3641 74.2378 55.6882 74.091C56.0124 73.9381 56.3855 73.8617 56.8075 73.8617C57.2356 73.8617 57.6118 73.9381 57.9359 74.091C58.2662 74.2439 58.5231 74.458 58.7066 74.7332C58.8962 75.0084 58.9971 75.3356 59.0093 75.7148H57.7524C57.7463 75.4885 57.6576 75.2898 57.4864 75.1185C57.3213 74.9412 57.0888 74.8525 56.7891 74.8525C56.5323 74.8464 56.3152 74.9106 56.1378 75.0451C55.9665 75.1736 55.8809 75.3632 55.8809 75.6139C55.8809 75.828 55.9482 75.9992 56.0827 76.1277C56.2173 76.25 56.4008 76.354 56.6332 76.4396C56.8656 76.5252 57.1317 76.617 57.4313 76.7148C57.7494 76.8249 58.0399 76.9534 58.3029 77.1001C58.5659 77.2469 58.7769 77.4426 58.9359 77.6873C59.0949 77.9258 59.1744 78.2347 59.1744 78.6139C59.1744 78.9503 59.0888 79.2622 58.9176 79.5497C58.7463 79.8371 58.4925 80.0695 58.1561 80.2469C57.8197 80.4181 57.4069 80.5038 56.9176 80.5038Z" fill="#1F3881"/>
<path d="M60.8331 5V1.47941H59.6461V0.986292H62.622V1.47941H61.4408V5H60.8331ZM63.1908 5V0.986292H63.9075L65.2665 3.65827L66.6196 0.986292H67.3364V5H66.7286V2.03559L65.5015 4.42661H65.0314L63.7986 2.04132V5H63.1908Z" fill="#1F3881"/>
</svg>
