<svg width="118" height="140" viewBox="0 0 118 140" fill="none" xmlns="http://www.w3.org/2000/svg">
<path d="M1 8H71C84.2548 8 95 18.7452 95 32V88" stroke="white" stroke-width="16"/>
<path d="M103 112L32.4546 112C19.1997 112 8.45455 101.255 8.45455 88L8.45456 32" stroke="white" stroke-width="16"/>
<path d="M13.088 139V127.8H16.912C18.224 127.8 19.3013 128.035 20.144 128.504C20.9973 128.963 21.6267 129.613 22.032 130.456C22.448 131.288 22.656 132.269 22.656 133.4C22.656 134.531 22.448 135.517 22.032 136.36C21.6267 137.192 20.9973 137.843 20.144 138.312C19.3013 138.771 18.224 139 16.912 139H13.088ZM15.136 137.24H16.816C17.7547 137.24 18.496 137.091 19.04 136.792C19.584 136.483 19.9733 136.045 20.208 135.48C20.4427 134.904 20.56 134.211 20.56 133.4C20.56 132.6 20.4427 131.912 20.208 131.336C19.9733 130.76 19.584 130.317 19.04 130.008C18.496 129.699 17.7547 129.544 16.816 129.544H15.136V137.24ZM27.336 139L23.24 127.8H25.432L28.6 136.904L31.784 127.8H33.944L29.848 139H27.336ZM43.984 139.192C42.928 139.192 42.0053 138.952 41.216 138.472C40.4267 137.992 39.8133 137.325 39.376 136.472C38.9387 135.608 38.72 134.605 38.72 133.464C38.72 132.312 38.944 131.299 39.392 130.424C39.8507 129.539 40.496 128.851 41.328 128.36C42.1707 127.859 43.168 127.608 44.32 127.608C45.632 127.608 46.72 127.923 47.584 128.552C48.448 129.181 49.008 130.051 49.264 131.16H46.976C46.8053 130.637 46.496 130.232 46.048 129.944C45.6 129.645 45.024 129.496 44.32 129.496C43.2 129.496 42.336 129.853 41.728 130.568C41.12 131.272 40.816 132.243 40.816 133.48C40.816 134.717 41.1147 135.677 41.712 136.36C42.32 137.032 43.1413 137.368 44.176 137.368C45.1893 137.368 45.952 137.096 46.464 136.552C46.9867 135.997 47.3013 135.272 47.408 134.376H44.576V132.84H49.472V139H47.584L47.424 137.528C47.0613 138.061 46.608 138.472 46.064 138.76C45.52 139.048 44.8267 139.192 43.984 139.192ZM51.463 139V127.8H55.575C56.471 127.8 57.207 127.955 57.783 128.264C58.3697 128.563 58.807 128.973 59.095 129.496C59.383 130.008 59.527 130.579 59.527 131.208C59.527 131.891 59.3457 132.515 58.983 133.08C58.631 133.645 58.0763 134.056 57.319 134.312L59.639 139H57.287L55.207 134.584H53.511V139H51.463ZM53.511 133.08H55.447C56.1297 133.08 56.631 132.915 56.951 132.584C57.271 132.253 57.431 131.816 57.431 131.272C57.431 130.739 57.271 130.312 56.951 129.992C56.6417 129.672 56.135 129.512 55.431 129.512H53.511V133.08ZM66.6798 139.192C65.5598 139.192 64.5784 138.947 63.7358 138.456C62.9038 137.965 62.2478 137.288 61.7678 136.424C61.2984 135.549 61.0638 134.541 61.0638 133.4C61.0638 132.259 61.2984 131.256 61.7678 130.392C62.2478 129.517 62.9038 128.835 63.7358 128.344C64.5784 127.853 65.5598 127.608 66.6798 127.608C67.7891 127.608 68.7651 127.853 69.6078 128.344C70.4504 128.835 71.1064 129.517 71.5758 130.392C72.0451 131.256 72.2798 132.259 72.2798 133.4C72.2798 134.541 72.0451 135.549 71.5758 136.424C71.1064 137.288 70.4504 137.965 69.6078 138.456C68.7651 138.947 67.7891 139.192 66.6798 139.192ZM66.6798 137.352C67.7464 137.352 68.5944 137 69.2238 136.296C69.8638 135.592 70.1838 134.627 70.1838 133.4C70.1838 132.173 69.8638 131.208 69.2238 130.504C68.5944 129.8 67.7464 129.448 66.6798 129.448C65.6131 129.448 64.7598 129.8 64.1198 130.504C63.4798 131.208 63.1598 132.173 63.1598 133.4C63.1598 134.627 63.4798 135.592 64.1198 136.296C64.7598 137 65.6131 137.352 66.6798 137.352ZM78.408 139.192C77.5867 139.192 76.8453 139.032 76.184 138.712C75.5227 138.381 74.9947 137.885 74.6 137.224C74.216 136.563 74.024 135.725 74.024 134.712V127.8H76.072V134.728C76.072 135.603 76.28 136.253 76.696 136.68C77.1227 137.107 77.7093 137.32 78.456 137.32C79.192 137.32 79.7733 137.107 80.2 136.68C80.6267 136.253 80.84 135.603 80.84 134.728V127.8H82.888V134.712C82.888 135.725 82.6853 136.563 82.28 137.224C81.8747 137.885 81.3307 138.381 80.648 138.712C79.976 139.032 79.2293 139.192 78.408 139.192ZM84.9786 139V127.8H89.1226C90.0186 127.8 90.76 127.949 91.3466 128.248C91.9333 128.547 92.3706 128.957 92.6586 129.48C92.9466 130.003 93.0906 130.589 93.0906 131.24C93.0906 131.859 92.952 132.429 92.6746 132.952C92.3973 133.464 91.9653 133.88 91.3786 134.2C90.792 134.509 90.04 134.664 89.1226 134.664H87.0266V139H84.9786ZM87.0266 133H88.9946C89.7093 133 90.2213 132.845 90.5306 132.536C90.8506 132.216 91.0106 131.784 91.0106 131.24C91.0106 130.685 90.8506 130.253 90.5306 129.944C90.2213 129.624 89.7093 129.464 88.9946 129.464H87.0266V133ZM98.5214 139.192C97.7 139.192 96.9747 139.053 96.3454 138.776C95.716 138.488 95.22 138.083 94.8574 137.56C94.4947 137.027 94.308 136.381 94.2974 135.624H96.4574C96.4787 136.147 96.6654 136.589 97.0174 136.952C97.38 137.304 97.876 137.48 98.5054 137.48C99.0494 137.48 99.4814 137.352 99.8014 137.096C100.121 136.829 100.281 136.477 100.281 136.04C100.281 135.581 100.137 135.224 99.8494 134.968C99.572 134.712 99.1987 134.504 98.7294 134.344C98.26 134.184 97.7587 134.013 97.2254 133.832C96.3614 133.533 95.7 133.149 95.2414 132.68C94.7934 132.211 94.5694 131.587 94.5694 130.808C94.5587 130.147 94.7134 129.581 95.0334 129.112C95.364 128.632 95.812 128.264 96.3774 128.008C96.9427 127.741 97.5934 127.608 98.3294 127.608C99.076 127.608 99.732 127.741 100.297 128.008C100.873 128.275 101.321 128.648 101.641 129.128C101.972 129.608 102.148 130.179 102.169 130.84H99.9774C99.9667 130.445 99.812 130.099 99.5134 129.8C99.2254 129.491 98.82 129.336 98.2974 129.336C97.8494 129.325 97.4707 129.437 97.1614 129.672C96.8627 129.896 96.7134 130.227 96.7134 130.664C96.7134 131.037 96.8307 131.336 97.0654 131.56C97.3 131.773 97.62 131.955 98.0254 132.104C98.4307 132.253 98.8947 132.413 99.4174 132.584C99.972 132.776 100.479 133 100.937 133.256C101.396 133.512 101.764 133.853 102.041 134.28C102.319 134.696 102.457 135.235 102.457 135.896C102.457 136.483 102.308 137.027 102.009 137.528C101.711 138.029 101.268 138.435 100.681 138.744C100.095 139.043 99.3747 139.192 98.5214 139.192Z" fill="white"/>
<path d="M105.35 7V0.86H103.28V-4.76837e-07H108.47V0.86H106.41V7H105.35ZM109.462 7V-4.76837e-07H110.712L113.082 4.66L115.442 -4.76837e-07H116.692V7H115.632V1.83L113.492 6H112.672L110.522 1.84V7H109.462Z" fill="white"/>
</svg>
