<svg width="216" height="97" viewBox="0 0 216 97" fill="none" xmlns="http://www.w3.org/2000/svg">
<path d="M2.01998 65.0707V96.6389H0V65.0707H2.01998Z" fill="white"/>
<path d="M32.0139 96.6389H29.994L11.4629 68.3983V96.6389H9.44291V65.1195H11.4629L29.994 93.2625V65.1195H32.0139V96.6389Z" fill="white"/>
<path d="M38.1767 80.8987C38.1767 77.7834 38.8256 75.0047 40.1283 72.5651C41.436 70.1206 43.2339 68.208 45.5247 66.8272C47.8204 65.4488 50.3941 64.7584 53.2436 64.7584C56.8346 64.7584 59.8597 65.5976 62.3188 67.2761C64.7779 68.9545 66.5759 71.3063 67.7152 74.3314H65.3829C64.4778 71.9381 62.9848 70.045 60.9038 68.652C58.8204 67.2541 56.2686 66.554 53.2436 66.554C50.8088 66.554 48.6035 67.1346 46.6274 68.2909C44.6489 69.4424 43.09 71.1062 41.9532 73.2775C40.8139 75.4511 40.2454 77.9907 40.2454 80.8987C40.2454 83.7823 40.8139 86.2951 41.9532 88.4419C43.09 90.5839 44.6489 92.2379 46.6274 93.4089C48.6035 94.575 50.8088 95.1557 53.2436 95.1557C56.2686 95.1557 58.8204 94.4604 60.9038 93.0674C62.9848 91.6695 64.4778 89.7739 65.3829 87.3783H67.7152C66.5759 90.4033 64.7779 92.7551 62.3188 94.4335C59.8597 96.112 56.8346 96.9512 53.2436 96.9512C50.3941 96.9512 47.8204 96.273 45.5247 94.9117C43.2339 93.5455 41.436 91.6427 40.1283 89.2031C38.8256 86.7586 38.1767 83.9897 38.1767 80.8987Z" fill="white"/>
<path d="M88.1312 97C85.2232 97 82.5982 96.3218 80.2562 94.9605C77.9191 93.5943 76.0918 91.6817 74.772 89.2226C73.4571 86.7635 72.8008 83.9897 72.8008 80.8987C72.8008 77.7834 73.4571 75.0047 74.772 72.5651C76.0918 70.1207 77.9191 68.2178 80.2562 66.8565C82.5982 65.4903 85.2232 64.8072 88.1312 64.8072C91.0392 64.8072 93.6593 65.4903 95.9964 66.8565C98.3384 68.2178 100.166 70.1207 101.481 72.5651C102.8 75.0047 103.462 77.7834 103.462 80.8987C103.462 83.9897 102.8 86.7635 101.481 89.2226C100.166 91.6817 98.3384 93.5943 95.9964 94.9605C93.6593 96.3218 91.0392 97 88.1312 97ZM88.1312 95.2045C90.622 95.2045 92.8689 94.619 94.8742 93.448C96.8844 92.277 98.4653 90.6156 99.6168 88.4615C100.773 86.3024 101.354 83.7823 101.354 80.8987C101.354 77.9908 100.773 75.4609 99.6168 73.3067C98.4653 71.1477 96.8844 69.4815 94.8742 68.3105C92.8689 67.1395 90.622 66.554 88.1312 66.554C85.6453 66.554 83.3984 67.1395 81.3882 68.3105C79.378 69.4815 77.7874 71.1477 76.6164 73.3067C75.4502 75.4609 74.8696 77.9908 74.8696 80.8987C74.8696 83.7823 75.4502 86.3024 76.6164 88.4615C77.7874 90.6156 79.378 92.277 81.3882 93.448C83.3984 94.619 85.6453 95.2045 88.1312 95.2045Z" fill="white"/>
<path d="M125.86 65.0707V66.7784H111.603V79.9522H124.065V81.6697H111.603V96.6389H109.583V65.0707H125.86Z" fill="white"/>
<path d="M133.056 65.0707V84.8118C133.056 88.3785 133.861 90.9937 135.476 92.6575C137.096 94.3238 139.302 95.1557 142.092 95.1557C144.849 95.1557 147.023 94.3335 148.611 92.6868C150.197 91.0352 150.992 88.4102 150.992 84.8118V65.0707H153.022V84.763C153.022 88.8762 152.029 91.9354 150.046 93.9456C148.067 95.951 145.415 96.9512 142.092 96.9512C138.767 96.9512 136.091 95.9412 134.061 93.9164C132.036 91.8939 131.027 88.842 131.027 84.763V65.0707H133.056Z" fill="white"/>
<path d="M182.786 96.6389H180.766L162.235 68.3983V96.6389H160.215V65.1195H162.235L180.766 93.2625V65.1195H182.786V96.6389Z" fill="white"/>
<path d="M199.068 65.0707C204.401 65.0707 208.515 66.4662 211.403 69.257C214.296 72.0431 215.745 75.922 215.745 80.8987C215.745 85.8755 214.296 89.7447 211.403 92.5014C208.515 95.2606 204.401 96.6389 199.068 96.6389H190.208V65.0707H199.068ZM199.068 94.9312C203.831 94.9312 207.453 93.6968 209.939 91.2231C212.43 88.7518 213.677 85.3095 213.677 80.8987C213.677 76.4636 212.43 73.0018 209.939 70.5159C207.453 68.0251 203.831 66.7784 199.068 66.7784H192.228V94.9312H199.068Z" fill="white"/>
<mask id="mask0_96_41" style="mask-type:luminance" maskUnits="userSpaceOnUse" x="32" y="0" width="179" height="46">
<path d="M32.9259 0H210.918V45.4348H32.9259V0Z" fill="white"/>
</mask>
<g mask="url(#mask0_96_41)">
<path fill-rule="evenodd" clip-rule="evenodd" d="M34.9264 0.0805054C40.6716 5.58665 44.2505 13.3348 44.2505 21.9197C44.2505 31.417 39.869 39.8921 33.0211 45.4348H197.11C204.531 45.4348 210.55 39.4188 210.55 31.9976V13.5202C210.55 6.09896 204.531 0.0805054 197.11 0.0805054H34.9264Z" fill="white"/>
</g>
<path d="M18.2127 8.48001C18.6811 8.48001 19.1471 8.5044 19.613 8.54831C20.079 8.59467 20.5401 8.66297 20.9987 8.75568C21.4574 8.84594 21.9111 8.9606 22.3576 9.09478C22.8065 9.2314 23.2456 9.38753 23.6774 9.56806C24.1092 9.74615 24.5312 9.9462 24.9435 10.1658C25.3558 10.3878 25.7559 10.6268 26.1462 10.8879C26.5341 11.1465 26.9098 11.4246 27.2709 11.7222C27.632 12.0174 27.9784 12.3321 28.3102 12.6615C28.6395 12.9932 28.9542 13.3397 29.2494 13.7007C29.547 14.0618 29.8251 14.4375 30.0862 14.8254C30.3448 15.2157 30.5839 15.6158 30.8059 16.0281C31.0254 16.4404 31.2255 16.8624 31.4036 17.2942C31.5841 17.726 31.7402 18.1676 31.8768 18.614C32.0134 19.0605 32.1257 19.5142 32.2159 19.9729C32.3086 20.4315 32.3769 20.8951 32.4233 21.3586C32.4672 21.8245 32.4916 22.2905 32.4916 22.7589C32.4916 23.2273 32.4672 23.6933 32.4233 24.1592C32.3769 24.6227 32.3086 25.0863 32.2159 25.5449C32.1257 26.0035 32.0134 26.4573 31.8768 26.9037C31.7402 27.3502 31.5841 27.7918 31.4036 28.2236C31.2255 28.6554 31.0254 29.0774 30.8059 29.4897C30.5839 29.902 30.3448 30.3021 30.0862 30.6924C29.8251 31.0803 29.547 31.456 29.2494 31.8171C28.9542 32.1781 28.6395 32.5246 28.3102 32.8539C27.9784 33.1857 27.632 33.5004 27.2709 33.7956C26.9098 34.0932 26.5341 34.3713 26.1462 34.6299C25.7559 34.8909 25.3558 35.13 24.9435 35.352C24.5312 35.5716 24.1092 35.7716 23.6774 35.9497C23.2456 36.1303 22.8065 36.2864 22.3576 36.423C21.9111 36.5572 21.4574 36.6718 20.9987 36.7621C20.5401 36.8548 20.079 36.9231 19.613 36.9695C19.1471 37.0134 18.6811 37.0378 18.2127 37.0378C17.7443 37.0378 17.2784 37.0134 16.8124 36.9695C16.3489 36.9231 15.8854 36.8548 15.4267 36.7621C14.9681 36.6718 14.5167 36.5572 14.0679 36.423C13.6214 36.2864 13.1823 36.1303 12.748 35.9497C12.3162 35.7716 11.8942 35.5716 11.4819 35.352C11.0696 35.13 10.6695 34.8909 10.2816 34.6299C9.8913 34.3713 9.5156 34.0932 9.15454 33.7956C8.79348 33.5004 8.44706 33.1857 8.11772 32.8539C7.78593 32.5246 7.47367 32.1781 7.17604 31.8171C6.87841 31.456 6.6003 31.0803 6.3417 30.6924C6.08066 30.3021 5.84159 29.902 5.62202 29.4897C5.40002 29.0774 5.19998 28.6554 5.02189 28.2236C4.8438 27.7918 4.68522 27.3502 4.54861 26.9037C4.41443 26.4573 4.29977 26.0035 4.2095 25.5449C4.1168 25.0863 4.04849 24.6227 4.00458 24.1592C3.95823 23.6933 3.93383 23.2273 3.93383 22.7589C3.93383 22.2905 3.95823 21.8245 4.00458 21.3586C4.04849 20.8951 4.1168 20.4315 4.2095 19.9729C4.29977 19.5142 4.41443 19.0605 4.54861 18.614C4.68522 18.1676 4.8438 17.726 5.02189 17.2942C5.19998 16.8624 5.40002 16.4404 5.62202 16.0281C5.84159 15.6158 6.08066 15.2157 6.3417 14.8254C6.6003 14.4375 6.87841 14.0618 7.17604 13.7007C7.47367 13.3397 7.78593 12.9932 8.11772 12.6615C8.44706 12.3321 8.79348 12.0174 9.15454 11.7222C9.5156 11.4246 9.8913 11.1465 10.2816 10.8879C10.6695 10.6268 11.0696 10.3878 11.4819 10.1658C11.8942 9.9462 12.3162 9.74615 12.748 9.56806C13.1823 9.38753 13.6214 9.2314 14.0679 9.09478C14.5167 8.9606 14.9681 8.84594 15.4267 8.75568C15.8854 8.66297 16.3489 8.59467 16.8124 8.54831C17.2784 8.5044 17.7443 8.48001 18.2127 8.48001Z" fill="white"/>
</svg>
