<svg width="34" height="16" viewBox="0 0 34 16" fill="none" xmlns="http://www.w3.org/2000/svg">
<path d="M1 7C0.447715 7 0 7.44772 0 8C0 8.55228 0.447715 9 1 9V7ZM33.2071 8.70711C33.5976 8.31658 33.5976 7.68342 33.2071 7.29289L26.8431 0.928932C26.4526 0.538408 25.8195 0.538408 25.4289 0.928932C25.0384 1.31946 25.0384 1.95262 25.4289 2.34315L31.0858 8L25.4289 13.6569C25.0384 14.0474 25.0384 14.6805 25.4289 15.0711C25.8195 15.4616 26.4526 15.4616 26.8431 15.0711L33.2071 8.70711ZM1 9H2.96875V7H1V9ZM6.90625 9H10.8438V7H6.90625V9ZM14.7812 9H18.7188V7H14.7812V9ZM22.6562 9H26.5938V7H22.6562V9ZM30.5312 9H32.5V7H30.5312V9Z" fill="#35D49C"/>
</svg>
