<svg width="43" height="32" viewBox="0 0 43 32" fill="none" xmlns="http://www.w3.org/2000/svg">
<path d="M41.8056 8.62386H1.19444C0.525556 8.62386 0 8.07441 0 7.42941V25.6566C0 28.9533 2.67556 31.6289 5.97222 31.6289H37.0278C40.3244 31.6289 43 28.9533 43 25.6566V7.42941C43 8.07441 42.4744 8.62386 41.8056 8.62386ZM17.4628 20.8789H7.16667C6.49778 20.8789 5.97222 20.3533 5.97222 19.6844C5.97222 19.0394 6.49778 18.49 7.16667 18.49H17.4628C18.1317 18.49 18.6572 19.0394 18.6572 19.6844C18.6572 20.3533 18.1317 20.8789 17.4628 20.8789Z" fill="#FEE4D7"/>
<path d="M43 5.97222V7.42944C43 8.07444 42.4744 8.62389 41.8056 8.62389H1.19444C0.525556 8.62389 0 8.07444 0 7.42944V5.97222C0 2.67556 2.67556 0 5.97222 0H37.0278C40.3244 0 43 2.67556 43 5.97222ZM18.6572 19.6844C18.6572 20.3533 18.1317 20.8789 17.4628 20.8789H7.16667C6.49778 20.8789 5.97222 20.3533 5.97222 19.6844C5.97222 19.0394 6.49778 18.49 7.16667 18.49H17.4628C18.1317 18.49 18.6572 19.0394 18.6572 19.6844Z" fill="#1F3881"/>
</svg>
