<svg width="24" height="24" viewBox="0 0 24 24" fill="none" xmlns="http://www.w3.org/2000/svg">
<path d="M2.57146 4.28577C2.11681 4.28577 1.68077 4.46638 1.35928 4.78787C1.03779 5.10936 0.857178 5.5454 0.857178 6.00005V21.4286C0.857178 21.8833 1.03779 22.3193 1.35928 22.6408C1.68077 22.9623 2.11681 23.1429 2.57146 23.1429H21.4286C21.8833 23.1429 22.3193 22.9623 22.6408 22.6408C22.9623 22.3193 23.1429 21.8833 23.1429 21.4286V6.00005C23.1429 5.5454 22.9623 5.10936 22.6408 4.78787C22.3193 4.46638 21.8833 4.28577 21.4286 4.28577H18" stroke="#C5BEBA" stroke-width="1.71429" stroke-linecap="round" stroke-linejoin="round"/>
<path d="M0.857178 11.1429H23.1429" stroke="#C5BEBA" stroke-width="1.71429" stroke-linecap="round" stroke-linejoin="round"/>
<path d="M6 0.857178V7.71432" stroke="#C5BEBA" stroke-width="1.71429" stroke-linecap="round" stroke-linejoin="round"/>
<path d="M18 0.857178V7.71432" stroke="#C5BEBA" stroke-width="1.71429" stroke-linecap="round" stroke-linejoin="round"/>
<path d="M6 4.28577H14.5714" stroke="#C5BEBA" stroke-width="1.71429" stroke-linecap="round" stroke-linejoin="round"/>
</svg>
