<svg width="17" height="17" viewBox="0 0 17 17" fill="none" xmlns="http://www.w3.org/2000/svg">
<path d="M4.74996 0C5.16417 0 5.49996 0.33579 5.49996 0.75V1.00345C5.87349 0.99999 6.27152 0.99999 6.69512 1H9.80482C10.2283 0.99999 10.6264 0.99999 10.9999 1.00345V0.75C10.9999 0.33579 11.3357 0 11.7499 0C12.1641 0 12.4999 0.33579 12.4999 0.75V1.05277C12.7268 1.06872 12.9406 1.08948 13.1417 1.11653C14.0418 1.23754 14.7997 1.49644 15.4016 2.09835C16.0035 2.70027 16.2624 3.45814 16.3834 4.35825C16.4105 4.55938 16.4312 4.77317 16.4472 5H0.0527344C0.0686744 4.77317 0.0894446 4.55938 0.116485 4.35825C0.237505 3.45814 0.496395 2.70027 1.09831 2.09835C1.70022 1.49644 2.4581 1.23754 3.35821 1.11653C3.55933 1.08948 3.77312 1.06872 3.99996 1.05277V0.75C3.99996 0.33579 4.33574 0 4.74996 0Z" fill="#FC5F0F"/>
<path fill-rule="evenodd" clip-rule="evenodd" d="M9.94584e-07 7.6949C-9.00542e-06 7.2715 -8.86363e-06 6.8735 0.00344114 6.5H16.4966C16.5 6.8734 16.5 7.2714 16.5 7.6948V10.7858C16.5 11.69 16.5001 12.4193 16.4467 13.0076C16.3918 13.614 16.2755 14.1438 15.9976 14.625C15.6685 15.1951 15.1951 15.6685 14.625 15.9976C14.1438 16.2754 13.614 16.3917 13.0076 16.4467C12.4194 16.5 11.6901 16.5 10.7859 16.5H6.69516C5.32759 16.5 4.22518 16.5 3.35825 16.3835C2.45814 16.2625 1.70026 16.0036 1.09835 15.4017C0.496431 14.7997 0.237541 14.0419 0.116521 13.1418C-3.88399e-05 12.2748 -1.90054e-05 11.1725 9.94584e-07 9.8049V7.6949ZM3.29393 11.9279C3.29393 11.5136 3.62971 11.1779 4.04393 11.1779H9.38336C9.79756 11.1779 10.1334 11.5136 10.1334 11.9279C10.1334 12.3421 9.79756 12.6779 9.38336 12.6779H4.04393C3.62971 12.6779 3.29393 12.3421 3.29393 11.9279ZM4.04393 8.3372C3.62971 8.3372 3.29393 8.6729 3.29393 9.0872C3.29393 9.5014 3.62971 9.8372 4.04393 9.8372H7.04396C7.45816 9.8372 7.79396 9.5014 7.79396 9.0872C7.79396 8.6729 7.45816 8.3372 7.04396 8.3372H4.04393Z" fill="#FC5F0F"/>
</svg>
