<svg width="35" height="31" viewBox="0 0 35 31" fill="none" xmlns="http://www.w3.org/2000/svg">
<path d="M2.67885 26.4908H7.60349L14.7666 29.6495C15.9977 30.2036 17.3968 30.0928 18.4601 29.3724L33.4019 19.841C34.633 19.0652 34.9688 17.4582 34.1853 16.2945C33.4578 15.1862 32.0028 14.7983 30.7716 15.4078L18.2362 21.7806C18.0124 21.8914 17.7326 21.836 17.5647 21.6697L16.2776 20.3952L17.117 19.564C18.1803 18.4557 18.1803 16.7378 17.117 15.6295L14.7666 13.3021C13.0318 11.5842 10.1777 11.5842 8.44291 13.3021L7.54752 14.2995H2.67885C1.7275 14.2995 1 15.0199 1 15.962V24.8284C1 25.7704 1.7275 26.4908 2.67885 26.4908ZM9.28234 14.1887C10.5695 12.9142 12.696 12.9142 14.0391 14.1887L16.3895 16.5161C17.061 17.1811 17.061 18.234 16.3895 18.8436L15.5501 19.6748L12.0245 16.1836L11.241 16.9595L16.8372 22.501C17.3408 22.9997 18.1243 23.1105 18.7958 22.778L31.3313 16.3499C32.0588 15.962 32.9542 16.2391 33.3459 16.9595C33.6817 17.6244 33.4578 18.4557 32.8422 18.899L17.9004 28.4304C17.117 28.9291 16.1097 29.0399 15.2702 28.652L7.77137 25.3271V15.6849L9.28234 14.1887ZM2.11923 15.962C2.11923 15.6295 2.34308 15.4078 2.67885 15.4078H6.59617V25.3825H2.67885C2.34308 25.3825 2.11923 25.1609 2.11923 24.8284V15.962Z" fill="#FC5F0F" stroke="#FC5F0F" stroke-width="0.8"/>
<path d="M8.83457 2.1083H32.3385V13.7454H33.4577V1H7.71533V11.5288H8.83457V2.1083Z" fill="#FC5F0F" stroke="#FC5F0F" stroke-width="0.8"/>
<path d="M31.2191 13.7454V4.32485H30.0998V3.21655H11.0728V4.32485H9.95361V10.9746H11.0728V5.43315C11.6884 5.43315 12.1921 4.93442 12.1921 4.32485H28.9806C28.9806 4.93442 29.4843 5.43315 30.0998 5.43315V13.7454H31.2191Z" fill="#FC5F0F" stroke="#FC5F0F" stroke-width="0.8"/>
<path d="M20.0269 8.20398H18.9077V9.31228H20.0269V8.20398Z" fill="#FC5F0F" stroke="#FC5F0F" stroke-width="0.8"/>
<path d="M21.1461 13.7454H20.0269V14.8537H21.1461V13.7454Z" fill="#FC5F0F" stroke="#FC5F0F" stroke-width="0.8"/>
<path d="M22.3897 7.85428L17.3579 13.9448L18.2242 14.6466L23.256 8.55605L22.3897 7.85428Z" fill="#FC5F0F" stroke="#FC5F0F" stroke-width="0.8"/>
<path d="M26.7424 11.5289C26.7424 8.14856 24.0003 5.43323 20.5866 5.43323C17.4528 5.43323 14.7666 7.81607 14.4868 10.9193L15.6061 11.0301C15.8859 8.31481 18.3482 6.26445 21.1463 6.54153C23.8884 6.8186 25.959 9.25686 25.6792 12.0276C25.3994 14.5767 23.2728 16.5162 20.6426 16.5162V17.6245C24.0003 17.6245 26.7424 14.9092 26.7424 11.5289Z" fill="#FC5F0F" stroke="#FC5F0F" stroke-width="0.8"/>
</svg>
