<svg width="21" height="24" viewBox="0 0 21 24" fill="none" xmlns="http://www.w3.org/2000/svg">
<path d="M4.71416 21.4287C3.48642 21.4287 2.57121 20.0308 2.57121 18.8337V3.42859H2.11761C0.947472 3.42859 0 4.35953 0 5.5086V21.921C0 23.0695 0.947472 24.0002 2.11761 24.0002H15.0249C16.1934 24.0002 17.1425 23.0695 17.1425 21.921V21.4287H4.71416Z" fill="#FC5F0F"/>
<path d="M14.4997 6.24457V0H5.54632C4.37698 0 3.42871 0.930939 3.42871 2.08001V18.4921C3.42871 19.6406 4.37725 20.5713 5.54632 20.5713H18.4539C19.6224 20.5713 20.5715 19.6406 20.5715 18.4921V6.2403L14.4997 6.24457ZM15.5709 0.734937V5.14296L19.8565 5.1395L15.5709 0.734937Z" fill="#FC5F0F"/>
</svg>
