<svg width="24" height="24" viewBox="0 0 24 24" fill="none" xmlns="http://www.w3.org/2000/svg">
<g clip-path="url(#clip0_641_369)">
<path d="M12 7.71425V5.14282" stroke="#B9B0AB" stroke-opacity="0.8" stroke-width="1.71429" stroke-linecap="round" stroke-linejoin="round"/>
<path d="M9.42847 14.5714C9.42847 15.8571 10.577 16.2857 11.9999 16.2857C13.4228 16.2857 14.5713 16.2857 14.5713 14.5714C14.5713 11.9999 9.42847 11.9999 9.42847 9.42852C9.42847 7.71423 10.577 7.71423 11.9999 7.71423C13.4228 7.71423 14.5713 8.36566 14.5713 9.42852" stroke="#B9B0AB" stroke-opacity="0.8" stroke-width="1.71429" stroke-linecap="round" stroke-linejoin="round"/>
<path d="M11.9998 16.2858V18.8572" stroke="#B9B0AB" stroke-opacity="0.8" stroke-width="1.71429" stroke-linecap="round" stroke-linejoin="round"/>
<path d="M11.9998 23.1429C18.1538 23.1429 23.1426 18.1541 23.1426 12C23.1426 5.846 18.1538 0.857178 11.9998 0.857178C5.84576 0.857178 0.856934 5.846 0.856934 12C0.856934 18.1541 5.84576 23.1429 11.9998 23.1429Z" stroke="#B9B0AB" stroke-opacity="0.8" stroke-width="1.71429" stroke-linecap="round" stroke-linejoin="round"/>
</g>
<defs>
<clipPath id="clip0_641_369">
<rect width="24" height="24" fill="white"/>
</clipPath>
</defs>
</svg>
