<svg width="35" height="31" viewBox="0 0 35 31" fill="none" xmlns="http://www.w3.org/2000/svg">
<mask id="mask0_26_2204" style="mask-type:luminance" maskUnits="userSpaceOnUse" x="12" y="0" width="10" height="10">
<path d="M12.561 0H21.9013V9.274H12.561V0Z" fill="white"/>
</mask>
<g mask="url(#mask0_26_2204)">
<path d="M17.3036 0.0377904C17.1531 0.0356935 17.0025 0.0411453 16.8524 0.0541459C16.7022 0.066727 16.5534 0.0872763 16.4049 0.114535C16.2569 0.142214 16.1105 0.177022 15.9658 0.218959C15.8211 0.260896 15.679 0.309963 15.5389 0.365739C15.3992 0.421935 15.2621 0.484422 15.1287 0.554038C14.995 0.623653 14.865 0.69956 14.7387 0.781757C14.6125 0.863954 14.4905 0.952441 14.373 1.04638C14.2556 1.14074 14.1428 1.24055 14.0354 1.34623C13.9277 1.45149 13.8253 1.56179 13.7285 1.67754C13.632 1.79286 13.541 1.9128 13.4559 2.03736C13.3712 2.16149 13.2923 2.28982 13.2202 2.42234C13.1476 2.55444 13.0822 2.6899 13.0231 2.82829C12.9639 2.96711 12.9119 3.10843 12.8671 3.25186C12.8222 3.3957 12.784 3.54123 12.7534 3.68885C12.7228 3.83646 12.6993 3.98492 12.6834 4.13506C12.667 4.28477 12.6586 4.43491 12.6574 4.58546C12.6561 4.73644 12.6624 4.88657 12.6758 5.03671C12.6893 5.18684 12.7102 5.33572 12.7387 5.48376C12.7668 5.6318 12.8025 5.77816 12.8448 5.92242C12.8876 6.0671 12.9375 6.20927 12.9941 6.3485C13.0508 6.48815 13.1141 6.62487 13.1841 6.75823C13.2546 6.89159 13.3309 7.02118 13.4139 7.14699C13.4965 7.2728 13.5855 7.394 13.6807 7.511C13.7754 7.62801 13.8757 7.7404 13.9818 7.84734C14.0874 7.9547 14.1986 8.05619 14.3143 8.15264C14.4305 8.24868 14.5508 8.33884 14.6758 8.42356C14.8004 8.50785 14.9291 8.58585 15.0616 8.65757C15.1942 8.72928 15.33 8.79428 15.4689 8.85258C15.6077 8.91087 15.7494 8.96203 15.8933 9.00648C16.0371 9.05052 16.183 9.08784 16.3307 9.11804C16.4783 9.14781 16.6272 9.17046 16.7769 9.18598C16.927 9.20107 17.0771 9.20904 17.2277 9.20946C17.3787 9.20988 17.5288 9.20317 17.6789 9.18891C17.8291 9.17465 17.978 9.15285 18.1256 9.12391C18.2736 9.09497 18.4196 9.05849 18.5638 9.01529C18.7081 8.9721 18.8498 8.92135 18.9895 8.86432C19.1287 8.80686 19.2646 8.7427 19.398 8.67183C19.5309 8.60095 19.6601 8.52421 19.7855 8.44033C19.9108 8.35688 20.0316 8.26755 20.1482 8.17193C20.2648 8.07674 20.3768 7.97567 20.4833 7.86915C20.5898 7.76263 20.6909 7.65149 20.7865 7.53491C20.8821 7.41832 20.9719 7.29754 21.0557 7.17257C21.1396 7.04718 21.2168 6.91801 21.2881 6.78507C21.3589 6.65255 21.4231 6.51625 21.481 6.37702C21.5384 6.23779 21.5892 6.09604 21.6328 5.95178C21.6764 5.80793 21.7129 5.66157 21.7422 5.51395C21.7712 5.36591 21.7934 5.21704 21.8077 5.06732C21.8223 4.91719 21.8295 4.76705 21.8295 4.6165C21.8299 4.4672 21.8232 4.31874 21.8093 4.17028C21.7955 4.02183 21.7741 3.87463 21.7456 3.72827C21.7175 3.58191 21.6819 3.43722 21.6395 3.29464C21.5967 3.15163 21.5472 3.01156 21.491 2.87359C21.4344 2.73561 21.3715 2.60057 21.3019 2.46889C21.2323 2.33721 21.1568 2.20888 21.0746 2.08475C20.9924 1.96019 20.9043 1.84025 20.8104 1.72451C20.7165 1.60876 20.6171 1.49804 20.5126 1.39194C20.4078 1.28584 20.2979 1.18519 20.1834 1.09C20.0689 0.994798 19.9498 0.905471 19.8266 0.822016C19.7028 0.738142 19.5758 0.660978 19.4449 0.590104C19.3141 0.51881 19.1799 0.454227 19.0423 0.396354C18.9052 0.33848 18.7655 0.287317 18.623 0.243283C18.4808 0.198829 18.3365 0.161925 18.1906 0.13173C18.0446 0.101535 17.8974 0.0784694 17.7494 0.0629527C17.6014 0.0474359 17.4525 0.0390485 17.3036 0.0377904Z" fill="#FC5F0F"/>
</g>
<mask id="mask1_26_2204" style="mask-type:luminance" maskUnits="userSpaceOnUse" x="0" y="10" width="35" height="21">
<path d="M0 10.0255H34.5697V31H0V10.0255Z" fill="white"/>
</mask>
<g mask="url(#mask1_26_2204)">
<path d="M10.5639 30.7111C10.6339 30.7824 10.7153 30.8378 10.8076 30.8772C10.8994 30.9162 10.9958 30.9363 11.0957 30.9372L23.338 30.9975C23.3875 30.9975 23.4365 30.9929 23.4852 30.9833C23.5338 30.9732 23.5808 30.959 23.6265 30.9401C23.6722 30.9212 23.7158 30.8982 23.7569 30.8705C23.798 30.8428 23.8362 30.8118 23.8714 30.7765C23.9062 30.7417 23.9377 30.7036 23.9649 30.6625C23.9926 30.6214 24.0157 30.5778 24.035 30.532C24.0538 30.4863 24.0681 30.4389 24.0777 30.3903C24.0874 30.3421 24.092 30.293 24.092 30.2431V17.8804L28.1956 21.6518C28.3675 21.815 28.5629 21.9408 28.7823 22.0301C29.0016 22.119 29.2297 22.1656 29.4667 22.1685H32.4572C33.6378 22.1685 34.5654 21.037 34.5654 19.5663V19.4116C34.5654 17.9521 33.6378 16.8093 32.4572 16.8093H29.4403L24.8465 10.926C24.7588 10.8069 24.659 10.6995 24.5474 10.6031C24.4355 10.5066 24.3143 10.424 24.1834 10.3552C24.053 10.2864 23.9163 10.2328 23.7733 10.195C23.6307 10.1568 23.4856 10.1355 23.338 10.13H19.9775C19.8568 10.13 19.7427 10.1568 19.6349 10.2114C19.5271 10.2659 19.4378 10.3418 19.3665 10.4395L17.9562 12.3665C17.9419 12.4013 17.923 12.4332 17.8991 12.4621C17.8757 12.4911 17.8484 12.5158 17.8174 12.5368C17.7863 12.5573 17.7528 12.5733 17.7171 12.5842C17.6811 12.5951 17.6446 12.6005 17.6073 12.6005C17.5699 12.6005 17.5334 12.5951 17.4974 12.5842C17.4617 12.5733 17.4282 12.5573 17.3971 12.5368C17.3661 12.5158 17.3389 12.4911 17.315 12.4621C17.2915 12.4332 17.2726 12.4013 17.2583 12.3665L15.8442 10.4395C15.7733 10.3426 15.6844 10.2667 15.5775 10.2122C15.4706 10.1577 15.3569 10.1304 15.237 10.13H11.9067C11.7377 10.1334 11.5708 10.1543 11.4064 10.1929C11.2416 10.2319 11.0831 10.2877 10.9304 10.3607C10.7782 10.4336 10.6348 10.5217 10.5014 10.6253C10.3676 10.7289 10.2464 10.8455 10.1378 10.975L5.53688 16.1719L2.16513 16.1153H2.13871C1.00724 16.1153 0.0758173 17.2052 0.0342994 18.6122C0.0242345 18.8039 0.0330413 18.9947 0.0607199 19.1843C0.0888178 19.3742 0.134949 19.5596 0.199951 19.7403C0.264535 19.9207 0.346312 20.0935 0.445704 20.2578C0.544675 20.4222 0.658745 20.5749 0.788331 20.7166C0.87556 20.8097 0.970758 20.8936 1.07476 20.9674C1.17877 21.0412 1.28906 21.1041 1.40565 21.1557C1.52265 21.2073 1.64301 21.2463 1.76798 21.2736C1.89254 21.3004 2.01877 21.3147 2.14626 21.3163H5.54066C5.74154 21.3163 5.93738 21.284 6.12778 21.2195C6.31859 21.1553 6.49347 21.0618 6.65325 20.9393L10.4775 18.0352L10.3643 30.1831C10.3622 30.2804 10.3781 30.3752 10.4129 30.4662C10.4473 30.5576 10.4976 30.6394 10.5639 30.7111Z" fill="#FC5F0F"/>
</g>
<path d="M3.07386 10.0399C3.00592 10.0387 2.93883 10.0307 2.87215 10.0164C2.80546 10.0018 2.7413 9.98122 2.67881 9.95396C2.61633 9.92712 2.5572 9.89399 2.501 9.8554C2.44522 9.81682 2.39364 9.77321 2.34583 9.72414C2.29844 9.67549 2.25651 9.62265 2.2196 9.56562C2.18228 9.50816 2.15124 9.44819 2.12608 9.38487C2.10092 9.32196 2.08205 9.25696 2.06947 9.18986C2.05689 9.12318 2.05101 9.05566 2.05185 8.98772C2.05185 8.93782 2.04682 8.88875 2.03718 8.84052C2.02753 8.79188 2.01327 8.74449 1.9944 8.69878C1.97553 8.65306 1.95204 8.60945 1.92478 8.56835C1.8971 8.52725 1.86607 8.48909 1.83084 8.45428C1.79604 8.41905 1.75787 8.38802 1.71677 8.36034C1.67526 8.33266 1.63206 8.3096 1.58635 8.29073C1.54064 8.27185 1.49325 8.2576 1.4446 8.24795C1.39595 8.23789 1.34689 8.23327 1.2974 8.23327C1.24792 8.23327 1.19885 8.23789 1.1502 8.24795C1.10197 8.2576 1.05459 8.27185 1.00887 8.29073C0.963163 8.3096 0.919548 8.33266 0.87845 8.36034C0.837351 8.38802 0.799188 8.41905 0.76438 8.45428C0.729153 8.48909 0.69812 8.52725 0.670441 8.56835C0.642762 8.60945 0.619697 8.65306 0.600825 8.69878C0.581534 8.74449 0.567275 8.79188 0.55763 8.84052C0.547984 8.88875 0.543371 8.93782 0.543371 8.98772C0.542952 9.12234 0.553436 9.25654 0.574405 9.3899C0.595373 9.52284 0.626826 9.65369 0.668344 9.78201C0.709862 9.91034 0.761445 10.0345 0.822673 10.1548C0.883902 10.2752 0.953937 10.3897 1.0332 10.4987C1.11288 10.6078 1.20011 10.7101 1.29531 10.8053C1.39092 10.9009 1.49325 10.9881 1.60229 11.0674C1.71174 11.1462 1.82623 11.2167 1.94659 11.2775C2.06695 11.3387 2.19108 11.3899 2.31983 11.4314V12.9399C2.31983 12.9894 2.32444 13.0384 2.33409 13.0871C2.34374 13.1357 2.35799 13.1827 2.37687 13.2288C2.39616 13.2745 2.41922 13.3177 2.4469 13.3593C2.47416 13.4004 2.50561 13.4385 2.54042 13.4733C2.57565 13.5086 2.61381 13.5396 2.65491 13.5673C2.69601 13.5945 2.73962 13.618 2.78534 13.6369C2.83105 13.6558 2.87802 13.67 2.92666 13.6797C2.97531 13.6893 3.02438 13.6943 3.07386 13.6943C3.12335 13.6943 3.17242 13.6893 3.22106 13.6797C3.26971 13.67 3.31668 13.6558 3.36239 13.6369C3.40852 13.618 3.45172 13.5945 3.49282 13.5673C3.53433 13.5396 3.57208 13.5086 3.6073 13.4733C3.64211 13.4385 3.67357 13.4004 3.70124 13.3593C3.7285 13.3177 3.75199 13.2745 3.77086 13.2288C3.78973 13.1827 3.80399 13.1357 3.81364 13.0871C3.82328 13.0384 3.82831 12.9894 3.82831 12.9399V11.4314C3.97174 11.3849 4.11013 11.3266 4.24307 11.2557C4.37643 11.1848 4.50225 11.103 4.62135 11.0099C4.74003 10.9168 4.84949 10.8141 4.95013 10.7021C5.05078 10.5897 5.14095 10.4694 5.22021 10.341C5.29947 10.2127 5.36699 10.0785 5.42277 9.93844C5.47854 9.79837 5.52174 9.65411 5.55193 9.50649C5.58213 9.35887 5.59932 9.20957 5.60352 9.0586C5.60729 8.90804 5.59806 8.75791 5.57584 8.60903C5.55319 8.45973 5.51796 8.31379 5.46974 8.17079C5.42151 8.02778 5.36112 7.89023 5.28857 7.75812C5.21602 7.6256 5.13256 7.50105 5.03778 7.38321C4.94342 7.26578 4.839 7.15758 4.72535 7.05861C4.6117 6.95922 4.4905 6.87073 4.36092 6.79315C4.23175 6.71556 4.09671 6.64972 3.9558 6.59562C3.81489 6.54194 3.67063 6.50085 3.52217 6.47233C3.37413 6.44381 3.22484 6.42871 3.07386 6.42662C3.00467 6.4283 2.93547 6.42284 2.86711 6.41068C2.79875 6.39852 2.73207 6.37965 2.66749 6.35449C2.60291 6.32932 2.54126 6.29787 2.48297 6.26013C2.42426 6.2228 2.37016 6.18003 2.32025 6.13138C2.27035 6.08315 2.22547 6.03073 2.18605 5.9737C2.14663 5.91624 2.11308 5.85585 2.0854 5.79211C2.05772 5.72836 2.03676 5.66252 2.0225 5.59458C2.00782 5.52664 2.00027 5.45829 1.99901 5.38867C1.99817 5.31906 2.00404 5.25028 2.01705 5.18192C2.02963 5.11356 2.04892 5.0473 2.07492 4.98272C2.1005 4.91856 2.13237 4.85733 2.17054 4.79903C2.2087 4.74074 2.25189 4.68706 2.30054 4.63758C2.34919 4.58809 2.40245 4.54364 2.45948 4.50463C2.51694 4.46563 2.57775 4.4325 2.64191 4.40524C2.70565 4.3784 2.77192 4.35785 2.83985 4.34402C2.90779 4.33018 2.97657 4.32305 3.04618 4.32263C3.11538 4.32221 3.18458 4.3285 3.25252 4.34192C3.32087 4.35534 3.38713 4.37505 3.4513 4.40147C3.51546 4.42789 3.57627 4.46018 3.63414 4.49876C3.69202 4.53735 3.7457 4.58096 3.79476 4.63003C3.84383 4.67909 3.88786 4.73277 3.92645 4.79023C3.96503 4.8481 3.99732 4.90891 4.02374 4.97349C4.05058 5.03766 4.07029 5.1035 4.08371 5.17186C4.09713 5.24021 4.10384 5.30899 4.10342 5.37819C4.10342 5.42767 4.10845 5.47674 4.1181 5.52539C4.12775 5.57403 4.142 5.621 4.16088 5.66672C4.17975 5.71285 4.20323 5.75604 4.23049 5.79714C4.25817 5.83866 4.28962 5.8764 4.32443 5.91163C4.35966 5.94686 4.3974 5.97789 4.43892 6.00557C4.48002 6.03283 4.52321 6.05631 4.56934 6.07518C4.61506 6.09406 4.66203 6.10831 4.71067 6.11796C4.75932 6.1276 4.80839 6.13264 4.85787 6.13264C4.90736 6.13264 4.95643 6.1276 5.00507 6.11796C5.05372 6.10831 5.10069 6.09406 5.1464 6.07518C5.19211 6.05631 5.23573 6.03283 5.27683 6.00557C5.31792 5.97789 5.35609 5.94686 5.39131 5.91163C5.42612 5.8764 5.45758 5.83866 5.48483 5.79714C5.51251 5.75604 5.53558 5.71285 5.55487 5.66672C5.57374 5.621 5.588 5.57403 5.59765 5.52539C5.60729 5.47674 5.6119 5.42767 5.6119 5.37819C5.61274 5.24315 5.60226 5.10937 5.58171 4.97601C5.56074 4.84265 5.52971 4.71139 5.48819 4.58306C5.44667 4.45473 5.39551 4.3306 5.33428 4.21024C5.27305 4.08988 5.2026 3.97497 5.12334 3.86593C5.04407 3.75689 4.95684 3.65457 4.86123 3.55937C4.76561 3.46375 4.66328 3.37652 4.55383 3.29768C4.44437 3.21842 4.32946 3.14839 4.2091 3.08758C4.08874 3.02677 3.96419 2.9756 3.83586 2.93451V1.16937C3.83586 1.11988 3.83083 1.07082 3.82118 1.02217C3.81154 0.973521 3.79728 0.926551 3.77841 0.880839C3.75954 0.835128 3.73605 0.791513 3.70879 0.750415C3.68111 0.708897 3.64966 0.671154 3.61485 0.635926C3.57963 0.601118 3.54188 0.569665 3.50036 0.541987C3.45927 0.514728 3.41607 0.491243 3.36994 0.472371C3.32423 0.453499 3.27726 0.43924 3.22861 0.429595C3.17996 0.419949 3.1309 0.414917 3.08141 0.414917C3.03193 0.414917 2.98286 0.419949 2.93421 0.429595C2.88557 0.43924 2.8386 0.453499 2.79288 0.472371C2.74717 0.491243 2.70356 0.514728 2.66246 0.541987C2.62136 0.569665 2.5832 0.601118 2.54797 0.635926C2.51316 0.671154 2.48171 0.708897 2.45445 0.750415C2.42677 0.791513 2.40371 0.835128 2.38442 0.880839C2.36554 0.926551 2.35128 0.973521 2.34164 1.02217C2.33199 1.07082 2.32696 1.11988 2.32696 1.16937V2.92696C2.18312 2.97267 2.0443 3.03096 1.91052 3.101C1.77716 3.17145 1.65051 3.25323 1.53141 3.34591C1.41189 3.43859 1.30202 3.54134 1.20053 3.65373C1.09946 3.7657 1.00929 3.88606 0.929194 4.01439C0.849513 4.14272 0.781575 4.27692 0.725379 4.41741C0.669602 4.55748 0.626407 4.70174 0.595793 4.84978C0.565179 4.99782 0.547984 5.14711 0.543791 5.29851C0.540016 5.44948 0.549242 5.59962 0.571469 5.74891C0.594115 5.89821 0.629762 6.04457 0.67799 6.18758C0.726637 6.331 0.787026 6.46855 0.859997 6.60108C0.932549 6.7336 1.01642 6.85857 1.11162 6.976C1.2064 7.09342 1.31082 7.20162 1.42489 7.30101C1.53896 7.39998 1.661 7.48805 1.79058 7.56563C1.92059 7.64322 2.05605 7.70864 2.19738 7.7619C2.3387 7.81558 2.48339 7.85626 2.63226 7.88394C2.78072 7.91203 2.93044 7.92629 3.08141 7.92797C3.15061 7.92797 3.21897 7.93468 3.2869 7.9481C3.35442 7.96152 3.42026 7.98123 3.48401 8.00765C3.54775 8.03449 3.60856 8.06678 3.66602 8.10495C3.72347 8.14353 3.77673 8.18714 3.82538 8.23579C3.87444 8.28486 3.91806 8.33812 3.95622 8.39557C3.9948 8.45302 4.0271 8.51341 4.05352 8.57716C4.07994 8.64132 4.10007 8.70674 4.11349 8.77468C4.12691 8.84262 4.13362 8.91098 4.13362 8.98018C4.13362 9.04895 4.12691 9.11731 4.11349 9.18525C4.10007 9.25319 4.07994 9.31903 4.05352 9.38277C4.0271 9.44652 3.9948 9.50733 3.95622 9.56478C3.91806 9.62223 3.87444 9.67507 3.82538 9.72414C3.77673 9.77279 3.72347 9.8164 3.66602 9.85499C3.60856 9.89315 3.54775 9.92586 3.48401 9.95228C3.42026 9.9787 3.35442 9.99841 3.2869 10.0118C3.21897 10.0257 3.15061 10.0324 3.08141 10.0324L3.07386 10.0399Z" fill="#FC5F0F"/>
<path d="M31.8612 0.414673C31.8117 0.414673 31.7627 0.419705 31.714 0.429351C31.6654 0.438996 31.6184 0.453255 31.5727 0.472127C31.527 0.490999 31.4833 0.514483 31.4422 0.541743C31.4012 0.569421 31.363 0.600874 31.3278 0.635682C31.293 0.670909 31.2615 0.708653 31.2342 0.750171C31.2066 0.791269 31.1835 0.834884 31.1642 0.880595C31.1453 0.926307 31.1311 0.973277 31.1214 1.02192C31.1118 1.07057 31.1072 1.11964 31.1072 1.16912V2.92671C30.9642 2.97326 30.8266 3.03239 30.6941 3.10369C30.5616 3.17456 30.4362 3.25676 30.3183 3.34986C30.2001 3.44296 30.091 3.54571 29.9912 3.6581C29.891 3.77007 29.8017 3.89043 29.7228 4.01834C29.644 4.14667 29.5769 4.28045 29.5215 4.4201C29.4666 4.56017 29.4238 4.70359 29.3936 4.85079C29.3638 4.99841 29.3466 5.14687 29.3429 5.29742C29.3391 5.44756 29.3483 5.59727 29.3706 5.74573C29.3932 5.89461 29.4284 6.04013 29.4762 6.18272C29.5245 6.32489 29.5844 6.46202 29.6566 6.59412C29.7287 6.72622 29.8117 6.85078 29.9061 6.96778C30 7.08521 30.1036 7.19341 30.2168 7.29238C30.3297 7.39135 30.4509 7.47984 30.5792 7.55784C30.7079 7.63542 30.8425 7.70168 30.9826 7.75578C31.1231 7.80988 31.267 7.8514 31.4146 7.88034C31.5622 7.90927 31.7111 7.92479 31.8612 7.92773C31.9308 7.92521 32 7.92982 32.0684 7.94115C32.1371 7.95289 32.2038 7.97092 32.2688 7.99566C32.3338 8.02041 32.3959 8.05102 32.455 8.08793C32.5137 8.12525 32.5683 8.16761 32.619 8.21542C32.6693 8.26322 32.7146 8.31565 32.7549 8.37226C32.7951 8.42929 32.8291 8.48927 32.8572 8.55301C32.8853 8.61675 32.9071 8.68218 32.9222 8.75011C32.9373 8.81805 32.9457 8.88683 32.9474 8.95645C32.9486 9.02606 32.9432 9.09484 32.931 9.16362C32.9189 9.23197 32.9004 9.29865 32.8748 9.36324C32.8497 9.42824 32.8178 9.48989 32.7805 9.54818C32.7427 9.60689 32.6995 9.66099 32.6513 9.7109C32.6031 9.7608 32.5502 9.80567 32.4928 9.8451C32.4357 9.88452 32.3749 9.91807 32.3112 9.94574C32.2474 9.973 32.1812 9.99397 32.1132 10.0087C32.0453 10.0229 31.9765 10.0305 31.9069 10.0313C31.8373 10.0321 31.7685 10.0263 31.7002 10.0133C31.6318 10.0003 31.5651 9.98097 31.501 9.95455C31.4364 9.92855 31.3752 9.89668 31.3169 9.8581C31.259 9.81993 31.2049 9.77632 31.1554 9.72767C31.1059 9.67861 31.0619 9.62534 31.0229 9.56789C30.9839 9.51002 30.9512 9.44921 30.9243 9.38504C30.8975 9.32088 30.8774 9.25462 30.8635 9.18626C30.8501 9.11832 30.843 9.04913 30.843 8.97993C30.843 8.93003 30.8384 8.88138 30.8283 8.83273C30.8186 8.78408 30.8044 8.7367 30.7855 8.69098C30.7666 8.64527 30.7436 8.60208 30.7159 8.56056C30.6882 8.51946 30.6572 8.4813 30.622 8.44649C30.5871 8.41126 30.549 8.38023 30.5079 8.35255C30.4668 8.32487 30.4232 8.30181 30.3775 8.28293C30.3318 8.26406 30.2844 8.2498 30.2357 8.24016C30.1875 8.23009 30.1384 8.22548 30.0885 8.22548C30.039 8.22548 29.99 8.23009 29.9417 8.24016C29.8931 8.2498 29.8457 8.26406 29.8 8.28293C29.7543 8.30181 29.7107 8.32487 29.6696 8.35255C29.6285 8.38023 29.5903 8.41126 29.5555 8.44649C29.5203 8.4813 29.4892 8.51946 29.4616 8.56056C29.4339 8.60208 29.4108 8.64527 29.3919 8.69098C29.3731 8.7367 29.3584 8.78408 29.3487 8.83273C29.3391 8.88138 29.3345 8.93003 29.3345 8.97993C29.3341 9.11455 29.3441 9.24875 29.3651 9.38169C29.3856 9.51505 29.4167 9.64589 29.4582 9.7738C29.4997 9.90213 29.5509 10.0267 29.6121 10.1466C29.6729 10.267 29.743 10.3815 29.8222 10.4905C29.9015 10.6 29.9887 10.7019 30.0839 10.7975C30.1791 10.8927 30.2814 10.9799 30.3905 11.0592C30.4995 11.1384 30.6144 11.2085 30.7343 11.2697C30.8547 11.3309 30.9788 11.3821 31.1072 11.4236V12.9321C31.1072 12.9816 31.1118 13.0306 31.1214 13.0793C31.1311 13.1279 31.1453 13.1749 31.1642 13.221C31.1835 13.2668 31.2066 13.3099 31.2342 13.3515C31.2615 13.3926 31.293 13.4307 31.3278 13.4655C31.363 13.5008 31.4012 13.5318 31.4422 13.5595C31.4833 13.5867 31.527 13.6102 31.5727 13.6291C31.6184 13.648 31.6654 13.6622 31.714 13.6719C31.7627 13.6815 31.8117 13.6865 31.8612 13.6865C31.9107 13.6865 31.9598 13.6815 32.0084 13.6719C32.057 13.6622 32.104 13.648 32.1497 13.6291C32.1959 13.6102 32.2391 13.5867 32.2802 13.5595C32.3217 13.5318 32.3594 13.5008 32.3946 13.4655C32.4299 13.4307 32.4609 13.3926 32.4886 13.3515C32.5158 13.3099 32.5393 13.2668 32.5582 13.221C32.5771 13.1749 32.5913 13.1279 32.601 13.0793C32.6106 13.0306 32.6157 12.9816 32.6157 12.9321V11.4236C32.7591 11.3771 32.8975 11.3188 33.0308 11.2479C33.1638 11.177 33.2896 11.0952 33.4087 11.0021C33.5274 10.909 33.6368 10.8067 33.7375 10.6943C33.8381 10.5819 33.9283 10.4616 34.0075 10.3332C34.0868 10.2049 34.1543 10.0707 34.2101 9.93065C34.2659 9.79058 34.3091 9.64631 34.3393 9.49869C34.3695 9.35108 34.3867 9.20178 34.3909 9.0508C34.3946 8.90025 34.3854 8.75011 34.3632 8.60124C34.3405 8.45194 34.3053 8.306 34.2571 8.16299C34.2088 8.01999 34.1485 7.88243 34.0759 7.75033C34.0034 7.61781 33.9199 7.49326 33.8251 7.37541C33.7308 7.25799 33.6263 7.14979 33.5127 7.05082C33.399 6.95143 33.2778 6.86294 33.1483 6.78536C33.0191 6.70777 32.8841 6.64193 32.7431 6.58783C32.6022 6.53415 32.458 6.49305 32.3095 6.46454C32.1615 6.43602 32.0122 6.42092 31.8612 6.41882C31.7916 6.42092 31.7228 6.41589 31.654 6.40457C31.5857 6.39282 31.519 6.37437 31.454 6.34963C31.389 6.32447 31.3269 6.29343 31.2682 6.25611C31.2095 6.2192 31.155 6.17643 31.1047 6.1282C31.0543 6.08039 31.009 6.02797 30.9692 5.97093C30.9294 5.9139 30.8954 5.85351 30.8677 5.78977C30.8396 5.72602 30.8182 5.66018 30.8031 5.59224C30.7884 5.5243 30.7805 5.45553 30.7792 5.38633C30.778 5.31671 30.7834 5.24752 30.796 5.17916C30.8082 5.1108 30.8275 5.04412 30.853 4.97954C30.8786 4.91496 30.9101 4.85331 30.9482 4.79502C30.986 4.73672 31.0292 4.68262 31.0778 4.63272C31.126 4.58281 31.1793 4.53836 31.2368 4.49894C31.2938 4.45952 31.3546 4.42639 31.4188 4.39913C31.4825 4.37187 31.5488 4.35132 31.6167 4.33706C31.6851 4.3228 31.7538 4.31525 31.8235 4.31483C31.8927 4.31441 31.9619 4.32071 32.0302 4.33371C32.0986 4.34713 32.1648 4.36684 32.229 4.39326C32.2936 4.41926 32.3548 4.45197 32.4127 4.49013C32.4706 4.52871 32.5242 4.57233 32.5737 4.6214C32.6228 4.67046 32.6668 4.72414 32.7054 4.78201C32.7444 4.83947 32.7767 4.9007 32.8035 4.96486C32.83 5.02944 32.8501 5.09571 32.8635 5.16364C32.8769 5.232 32.8836 5.30078 32.8832 5.37039C32.8832 5.41988 32.8882 5.46895 32.8979 5.51759C32.9075 5.56624 32.9218 5.61321 32.9407 5.65934C32.9595 5.70505 32.983 5.74825 33.0103 5.78935C33.038 5.83086 33.0694 5.86903 33.1042 5.90384C33.1394 5.93906 33.1772 5.9701 33.2187 5.99778C33.2598 6.02503 33.3034 6.04852 33.3491 6.06739C33.3948 6.08626 33.4418 6.10052 33.4905 6.11017C33.5391 6.11981 33.5882 6.12484 33.6377 6.12484C33.6871 6.12484 33.7362 6.11981 33.7849 6.11017C33.8335 6.10052 33.8805 6.08626 33.9262 6.06739C33.9719 6.04852 34.0155 6.02503 34.0566 5.99778C34.0977 5.9701 34.1359 5.93906 34.1711 5.90384C34.2059 5.86903 34.2374 5.83086 34.2646 5.78935C34.2923 5.74825 34.3154 5.70505 34.3347 5.65934C34.3535 5.61321 34.3678 5.56624 34.3774 5.51759C34.3871 5.46895 34.3921 5.41988 34.3921 5.37039C34.3925 5.23536 34.382 5.10158 34.3615 4.96822C34.3405 4.83486 34.3095 4.70359 34.268 4.57526C34.2265 4.44694 34.1753 4.3228 34.1141 4.20244C34.0528 4.08208 33.9828 3.96717 33.9031 3.85814C33.8239 3.7491 33.7366 3.64677 33.641 3.55158C33.5454 3.45596 33.4431 3.36873 33.3336 3.28989C33.2242 3.21063 33.1093 3.14059 32.9889 3.07978C32.8685 3.01897 32.744 2.96781 32.6157 2.92671V1.16912C32.6157 1.11964 32.6106 1.07057 32.601 1.02192C32.5913 0.973277 32.5771 0.926307 32.5582 0.880595C32.5393 0.834884 32.5158 0.791269 32.4886 0.750171C32.4609 0.708653 32.4299 0.670909 32.3946 0.635682C32.3594 0.600874 32.3217 0.569421 32.2802 0.541743C32.2391 0.514483 32.1959 0.490999 32.1497 0.472127C32.104 0.453255 32.057 0.438996 32.0084 0.429351C31.9598 0.419705 31.9107 0.414673 31.8612 0.414673Z" fill="#FC5F0F"/>
</svg>
