<svg width="24" height="24" viewBox="0 0 24 24" fill="none" xmlns="http://www.w3.org/2000/svg">
<path d="M23.5994 5.35544L19.6373 1.39144C19.6142 1.36852 19.5902 1.34665 19.5649 1.32593C19.5398 1.30533 19.5137 1.28588 19.4866 1.26783C19.4595 1.24977 19.4316 1.23299 19.4028 1.21771C19.3741 1.20232 19.3447 1.18843 19.3146 1.17604C19.2845 1.16354 19.2539 1.15255 19.2227 1.14317C19.1915 1.13368 19.16 1.12581 19.1281 1.11945C19.0962 1.11308 19.064 1.10834 19.0316 1.10521C18.9992 1.10197 18.9667 1.10035 18.9341 1.10035C18.9015 1.10035 18.8691 1.10197 18.8367 1.10521C18.8043 1.10845 18.7721 1.1132 18.7402 1.11956C18.7082 1.12593 18.6766 1.1338 18.6455 1.14329C18.6143 1.15278 18.5837 1.16366 18.5536 1.17616C18.5235 1.18866 18.4941 1.20255 18.4654 1.21794C18.4367 1.23334 18.4088 1.25 18.3817 1.26817C18.3546 1.28623 18.3285 1.30556 18.3034 1.32628C18.2781 1.34699 18.254 1.36875 18.231 1.39178C18.208 1.41482 18.1862 1.43901 18.1655 1.46412C18.1449 1.48935 18.1255 1.51551 18.1074 1.54259C18.0893 1.56968 18.0726 1.59757 18.0572 1.62628C18.0419 1.65498 18.028 1.68449 18.0155 1.71459C18.003 1.74468 17.9921 1.77523 17.9826 1.80648C17.9731 1.83762 17.9653 1.86922 17.9589 1.90116C17.9525 1.9331 17.9478 1.96528 17.9446 1.99769C17.9413 2.03009 17.9397 2.06262 17.9397 2.09514C17.9397 2.12778 17.9413 2.1603 17.9446 2.19271C17.9477 2.22512 17.9524 2.25729 17.9588 2.28924C17.9652 2.32118 17.973 2.35278 17.9825 2.38391C17.9919 2.41516 18.0029 2.44584 18.0153 2.47593C18.0278 2.50602 18.0417 2.53542 18.0569 2.56412C18.0723 2.59294 18.089 2.62084 18.1072 2.64792C18.1252 2.675 18.1446 2.70116 18.1652 2.72639C18.1859 2.75151 18.2076 2.7757 18.2307 2.79873L20.4991 5.06806H1.10428C1.07187 5.06806 1.03946 5.06968 1.00717 5.0728C0.974997 5.07604 0.942936 5.08079 0.911108 5.08716C0.879279 5.09341 0.847797 5.10128 0.816779 5.11077C0.78576 5.12014 0.755205 5.13114 0.725228 5.14352C0.695251 5.15591 0.665969 5.16979 0.637381 5.18507C0.608793 5.20035 0.581015 5.21702 0.554047 5.23507C0.52708 5.25313 0.501038 5.27246 0.475922 5.29306C0.450807 5.31354 0.426848 5.33542 0.403932 5.35834C0.381015 5.38125 0.359256 5.40533 0.338654 5.43033C0.318052 5.45544 0.298723 5.48148 0.280668 5.50845C0.262728 5.53554 0.246061 5.56331 0.230783 5.5919C0.21539 5.62049 0.201617 5.64989 0.189232 5.67986C0.176732 5.70984 0.165853 5.74028 0.156478 5.77141C0.146987 5.80243 0.139117 5.83391 0.132867 5.86574C0.126501 5.89757 0.121756 5.92963 0.118515 5.96192C0.11539 5.99422 0.11377 6.02662 0.11377 6.05903C0.11377 6.09155 0.11539 6.12385 0.118515 6.15614C0.121756 6.18854 0.126501 6.2206 0.132867 6.25243C0.139117 6.28426 0.146987 6.31563 0.156478 6.34676C0.165853 6.37778 0.176732 6.40834 0.189232 6.43831C0.201617 6.46829 0.21539 6.49757 0.230783 6.52616C0.246061 6.55486 0.262728 6.58264 0.280668 6.60961C0.298723 6.63658 0.318052 6.66262 0.338654 6.68773C0.359256 6.71285 0.381015 6.73681 0.403932 6.75984C0.426848 6.78276 0.450807 6.80452 0.475922 6.82512C0.501038 6.84572 0.52708 6.86505 0.554047 6.88299C0.581015 6.90104 0.608793 6.91771 0.637381 6.93299C0.665969 6.94838 0.695251 6.96216 0.725228 6.97466C0.755205 6.98704 0.78576 6.99792 0.816779 7.00741C0.847797 7.01679 0.879279 7.02466 0.911108 7.03102C0.942936 7.03739 0.974997 7.04213 1.00717 7.04526C1.03946 7.0485 1.07187 7.05 1.10428 7.05H20.4991L18.2307 9.31945C18.2078 9.34248 18.186 9.36667 18.1655 9.3919C18.1449 9.41713 18.1257 9.44329 18.1076 9.47049C18.0897 9.49757 18.073 9.52547 18.0578 9.55429C18.0425 9.58299 18.0287 9.61239 18.0162 9.6426C18.0038 9.67269 17.9929 9.70324 17.9836 9.73449C17.9742 9.76563 17.9663 9.79711 17.96 9.82905C17.9537 9.861 17.949 9.89317 17.9457 9.92558C17.9426 9.95799 17.941 9.99051 17.941 10.023C17.941 10.0556 17.9426 10.0881 17.9457 10.1205C17.949 10.1529 17.9537 10.1851 17.96 10.2169C17.9663 10.2488 17.9742 10.2804 17.9836 10.3116C17.9929 10.3428 18.0038 10.3734 18.0162 10.4035C18.0287 10.4336 18.0425 10.4631 18.0578 10.4918C18.073 10.5205 18.0897 10.5485 18.1076 10.5756C18.1257 10.6027 18.1449 10.6288 18.1655 10.6541C18.186 10.6794 18.2078 10.7035 18.2307 10.7266C18.2539 10.7494 18.2781 10.771 18.3035 10.7913C18.3287 10.8118 18.355 10.8309 18.3821 10.8487C18.4093 10.8667 18.4372 10.8831 18.4659 10.8983C18.4947 10.9134 18.5241 10.9271 18.5542 10.9395C18.5843 10.9517 18.6148 10.9625 18.6459 10.9719C18.6771 10.9811 18.7086 10.989 18.7404 10.9953C18.7723 11.0015 18.8044 11.0063 18.8368 11.0094C18.8691 11.0125 18.9015 11.0141 18.934 11.0141C18.9664 11.0141 18.9988 11.0125 19.0312 11.0094C19.0635 11.0063 19.0957 11.0015 19.1275 10.9953C19.1594 10.989 19.191 10.9811 19.222 10.9719C19.2531 10.9625 19.2838 10.9517 19.3139 10.9395C19.3439 10.9271 19.3734 10.9134 19.4021 10.8983C19.4308 10.8831 19.4588 10.8667 19.4859 10.8487C19.5131 10.8309 19.5392 10.8118 19.5646 10.7913C19.5898 10.771 19.6141 10.7494 19.6373 10.7266L23.5994 6.76262C23.6222 6.73947 23.6437 6.71516 23.6641 6.68993C23.6845 6.66459 23.7037 6.63843 23.7215 6.61123C23.7394 6.58403 23.7559 6.55614 23.7709 6.52732C23.7861 6.49861 23.7999 6.46922 23.8122 6.43912C23.8244 6.40903 23.8352 6.37836 23.8446 6.34723C23.8538 6.31609 23.8617 6.28461 23.8679 6.25266C23.8742 6.22084 23.8788 6.18866 23.8821 6.15637C23.8852 6.12396 23.8867 6.09155 23.8867 6.05903C23.8867 6.02651 23.8852 5.9941 23.8821 5.96181C23.8788 5.9294 23.8742 5.89734 23.8679 5.8654C23.8617 5.83357 23.8538 5.80197 23.8446 5.77084C23.8352 5.7397 23.8244 5.70915 23.8122 5.67905C23.7999 5.64896 23.7861 5.61956 23.7709 5.59074C23.7559 5.56204 23.7394 5.53403 23.7215 5.50695C23.7037 5.47975 23.6845 5.45347 23.6641 5.42824C23.6437 5.4029 23.6222 5.37871 23.5994 5.35544Z" fill="#B9B0AB" fill-opacity="0.8"/>
<path d="M0.401038 18.6545L4.36319 22.6185C4.38622 22.6416 4.4103 22.6634 4.43553 22.6841C4.46065 22.7047 4.4868 22.7242 4.51389 22.7422C4.54097 22.7604 4.56886 22.7771 4.59757 22.7925C4.62639 22.8079 4.65578 22.8218 4.68588 22.8343C4.71597 22.8466 4.74652 22.8576 4.77777 22.8671C4.80891 22.8766 4.84051 22.8845 4.87245 22.8909C4.9044 22.8972 4.93657 22.902 4.96898 22.9052C5.00139 22.9083 5.03391 22.91 5.06643 22.91C5.09907 22.91 5.13148 22.9083 5.164 22.9052C5.19641 22.902 5.22858 22.8972 5.26053 22.8909C5.29247 22.8845 5.32396 22.8766 5.35521 22.8671C5.38634 22.8576 5.41701 22.8466 5.4471 22.8343C5.4772 22.8218 5.50659 22.8079 5.5353 22.7925C5.564 22.7771 5.5919 22.7604 5.61898 22.7422C5.64606 22.7242 5.67222 22.7047 5.69745 22.6841C5.72257 22.6634 5.74676 22.6416 5.76979 22.6185C5.79282 22.5955 5.81458 22.5713 5.8353 22.5462C5.85602 22.5209 5.87534 22.4948 5.8934 22.4677C5.91157 22.4406 5.92824 22.4127 5.94363 22.3839C5.95902 22.3552 5.97291 22.3258 5.9853 22.2957C5.9978 22.2656 6.00879 22.235 6.01828 22.2037C6.02766 22.1726 6.03565 22.141 6.0419 22.109C6.04826 22.0771 6.05312 22.0449 6.05625 22.0124C6.05949 21.98 6.06111 21.9475 6.06111 21.9149C6.06111 21.8823 6.05949 21.8498 6.05625 21.8174C6.05312 21.785 6.04826 21.7528 6.0419 21.7208C6.03565 21.6888 6.02766 21.6573 6.01828 21.626C6.00879 21.5949 5.9978 21.5642 5.9853 21.5341C5.97291 21.5041 5.95902 21.4745 5.94363 21.4458C5.92824 21.4171 5.91157 21.3892 5.8934 21.362C5.87534 21.335 5.85602 21.3088 5.8353 21.2837C5.81458 21.2584 5.79282 21.2344 5.76979 21.2113L3.50139 18.9419H22.8962C22.9286 18.9419 22.961 18.9404 22.9933 18.9372C23.0255 18.934 23.0575 18.9293 23.0894 18.9229C23.1212 18.9166 23.1527 18.9087 23.1837 18.8993C23.2147 18.8898 23.2453 18.8789 23.2752 18.8666C23.3052 18.8541 23.3345 18.8403 23.3631 18.8249C23.3917 18.8096 23.4194 18.7929 23.4464 18.7749C23.4734 18.7569 23.4994 18.7376 23.5245 18.717C23.5497 18.6964 23.5736 18.6747 23.5965 18.6517C23.6194 18.6287 23.6412 18.6047 23.6618 18.5796C23.6824 18.5545 23.7017 18.5285 23.7198 18.5015C23.7377 18.4745 23.7544 18.4468 23.7697 18.4181C23.785 18.3895 23.7988 18.3602 23.8112 18.3302C23.8237 18.3002 23.8346 18.2697 23.844 18.2387C23.8535 18.2075 23.8613 18.1762 23.8676 18.1443C23.874 18.1125 23.8787 18.0803 23.8819 18.048C23.8851 18.0157 23.8867 17.9834 23.8867 17.9509C23.8867 17.9185 23.8851 17.8861 23.8819 17.8538C23.8787 17.8215 23.874 17.7895 23.8676 17.7576C23.8613 17.7258 23.8535 17.6943 23.844 17.6633C23.8346 17.6322 23.8237 17.6017 23.8112 17.5718C23.7988 17.5417 23.785 17.5124 23.7697 17.4838C23.7544 17.4552 23.7377 17.4273 23.7198 17.4003C23.7017 17.3734 23.6824 17.3473 23.6618 17.3222C23.6412 17.2972 23.6194 17.2731 23.5965 17.2502C23.5736 17.2273 23.5497 17.2054 23.5245 17.185C23.4994 17.1644 23.4734 17.145 23.4464 17.127C23.4194 17.1089 23.3917 17.0922 23.3631 17.077C23.3345 17.0617 23.3052 17.0478 23.2752 17.0354C23.2453 17.0229 23.2147 17.012 23.1837 17.0027C23.1527 16.9932 23.1212 16.9853 23.0894 16.9791C23.0575 16.9727 23.0255 16.9679 22.9933 16.9647C22.961 16.9616 22.9286 16.96 22.8962 16.96H3.50139L5.76979 14.6906C5.79271 14.6675 5.81435 14.6433 5.83495 14.6181C5.85555 14.5928 5.87477 14.5667 5.89282 14.5396C5.91076 14.5124 5.92743 14.4845 5.94271 14.4558C5.95798 14.427 5.97176 14.3976 5.98414 14.3675C5.99664 14.3374 6.00752 14.3067 6.0169 14.2756C6.02627 14.2444 6.03414 14.2128 6.04051 14.1809C6.04676 14.149 6.0515 14.1168 6.05474 14.0844C6.05787 14.052 6.05949 14.0196 6.05949 13.987C6.05949 13.9544 6.05787 13.922 6.05474 13.8896C6.0515 13.8572 6.04676 13.825 6.04051 13.7931C6.03414 13.7611 6.02627 13.7295 6.0169 13.6984C6.00752 13.6672 5.99664 13.6366 5.98414 13.6065C5.97176 13.5764 5.95798 13.547 5.94271 13.5182C5.92743 13.4895 5.91076 13.4616 5.89282 13.4344C5.87477 13.4073 5.85555 13.3811 5.83495 13.3559C5.81435 13.3307 5.79271 13.3065 5.76979 13.2833C5.74652 13.2606 5.72233 13.239 5.69699 13.2186C5.67176 13.1983 5.64548 13.1791 5.6184 13.1612C5.5912 13.1434 5.56331 13.1269 5.5346 13.1117C5.50578 13.0965 5.47639 13.0829 5.44629 13.0706C5.4162 13.0582 5.38564 13.0475 5.35451 13.0382C5.32338 13.0288 5.29189 13.0211 5.26007 13.0148C5.22812 13.0086 5.19606 13.0038 5.16365 13.0007C5.13136 12.9976 5.09896 12.9959 5.06643 12.9959C5.03402 12.9959 5.00162 12.9976 4.96921 13.0007C4.93692 13.0038 4.90474 13.0086 4.87291 13.0148C4.84108 13.0211 4.80949 13.0288 4.77835 13.0382C4.74733 13.0475 4.71666 13.0583 4.68657 13.0706C4.65659 13.0829 4.62708 13.0965 4.59838 13.1117C4.56967 13.1269 4.54166 13.1434 4.51458 13.1612C4.48738 13.1791 4.46122 13.1983 4.43588 13.2186C4.41065 13.239 4.38634 13.2606 4.36319 13.2833L0.401038 17.2473C0.378237 17.2706 0.356709 17.2948 0.336339 17.3201C0.315969 17.3454 0.296756 17.3716 0.278932 17.3987C0.261108 17.4259 0.244557 17.4539 0.22951 17.4826C0.214348 17.5115 0.200575 17.5409 0.188307 17.5709C0.176038 17.601 0.165274 17.6316 0.155899 17.6627C0.14664 17.6939 0.13877 17.7255 0.13252 17.7573C0.12627 17.7892 0.12164 17.8213 0.118399 17.8537C0.115274 17.886 0.11377 17.9184 0.11377 17.9509C0.11377 17.9834 0.115274 18.0159 0.118399 18.0483C0.12164 18.0806 0.12627 18.1127 0.13252 18.1446C0.13877 18.1765 0.14664 18.208 0.155899 18.2391C0.165274 18.2703 0.176038 18.3009 0.188307 18.331C0.200575 18.3611 0.214348 18.3905 0.22951 18.4192C0.244557 18.448 0.261108 18.4759 0.278932 18.5031C0.296756 18.5303 0.315969 18.5565 0.336339 18.5818C0.356709 18.6071 0.378237 18.6314 0.401038 18.6545Z" fill="#B9B0AB" fill-opacity="0.8"/>
</svg>
