<svg width="40" height="40" viewBox="0 0 40 40" fill="none" xmlns="http://www.w3.org/2000/svg">
<g clip-path="url(#clip0_216_81)">
<path d="M25.3199 9.84614H14.6799C12.0153 9.84614 9.84608 12.0154 9.84608 14.68V25.32C9.84608 27.9846 12.0153 30.1538 14.6799 30.1538H25.3199C27.9845 30.1538 30.1538 27.9846 30.1538 25.32V14.68C30.1538 12.0154 27.9845 9.84614 25.3199 9.84614ZM19.9999 26.3231C16.5138 26.3231 13.6768 23.4861 13.6768 20C13.6768 16.5138 16.5138 13.6769 19.9999 13.6769C23.4861 13.6769 26.323 16.5138 26.323 20C26.323 23.4861 23.4861 26.3231 19.9999 26.3231ZM26.4953 14.9692C25.6799 14.9692 25.0184 14.3077 25.0184 13.4908C25.0184 12.6754 25.6799 12.0138 26.4953 12.0138C27.3122 12.0138 27.9738 12.6754 27.9738 13.4908C27.9738 14.3077 27.3122 14.9692 26.4953 14.9692ZM19.9999 15.8308C17.7015 15.8308 15.8307 17.7015 15.8307 20C15.8307 22.2984 17.7015 24.1692 19.9999 24.1692C22.2984 24.1692 24.1692 22.2984 24.1692 20C24.1692 17.7015 22.2984 15.8308 19.9999 15.8308ZM19.9999 0.307678C9.12454 0.307678 0.307617 9.1246 0.307617 20C0.307617 30.8754 9.12454 39.6923 19.9999 39.6923C30.8753 39.6923 39.6922 30.8754 39.6922 20C39.6922 9.1246 30.8753 0.307678 19.9999 0.307678ZM32.3076 25.32C32.3076 29.1723 29.1722 32.3077 25.3199 32.3077H14.6799C10.8276 32.3077 7.69223 29.1723 7.69223 25.32V14.68C7.69223 10.8277 10.8276 7.69229 14.6799 7.69229H25.3199C29.1722 7.69229 32.3076 10.8277 32.3076 14.68V25.32Z" fill="#1F3881"/>
</g>
<defs>
<clipPath id="clip0_216_81">
<rect width="40" height="40" fill="white"/>
</clipPath>
</defs>
</svg>
