<svg width="32" height="32" viewBox="0 0 32 32" fill="none" xmlns="http://www.w3.org/2000/svg">
<path fill-rule="evenodd" clip-rule="evenodd" d="M4 8C4 6.59987 4 5.8998 4.27248 5.36502C4.51217 4.89462 4.89462 4.51217 5.36502 4.27248C5.8998 4 6.59987 4 8 4H24C25.4001 4 26.1002 4 26.635 4.27248C27.1054 4.51217 27.4878 4.89462 27.7275 5.36502C28 5.8998 28 6.59987 28 8V24C28 25.4001 28 26.1002 27.7275 26.635C27.4878 27.1054 27.1054 27.4878 26.635 27.7275C26.1002 28 25.4001 28 24 28H8C6.59987 28 5.8998 28 5.36502 27.7275C4.89462 27.4878 4.51217 27.1054 4.27248 26.635C4 26.1002 4 25.4001 4 24V8ZM14.5406 15C14.0966 13.2748 12.5305 12 10.6667 12C8.45753 12 6.66667 13.7909 6.66667 16C6.66667 18.2091 8.45753 20 10.6667 20C12.5305 20 14.0966 18.7252 14.5406 17H17.6667V18.6667C17.6667 19.219 18.1144 19.6667 18.6667 19.6667C19.219 19.6667 19.6667 19.219 19.6667 18.6667V17H21.6667V18.6667C21.6667 19.219 22.1144 19.6667 22.6667 19.6667C23.219 19.6667 23.6667 19.219 23.6667 18.6667V16.15C23.6667 15.5149 23.1518 15 22.5167 15H18.6667H14.5406ZM12.5629 15.3624C12.4195 15.5355 12.3333 15.7577 12.3333 16C12.3333 16.2423 12.4195 16.4645 12.5629 16.6376C12.2967 17.4295 11.5483 18 10.6667 18C9.5621 18 8.66667 17.1046 8.66667 16C8.66667 14.8954 9.5621 14 10.6667 14C11.5483 14 12.2967 14.5705 12.5629 15.3624Z" fill="#1F3881"/>
</svg>
