<svg width="20" height="26" viewBox="0 0 20 26" fill="none" xmlns="http://www.w3.org/2000/svg">
<path d="M17.3335 0H2.6665C1.9593 0 1.28107 0.279289 0.781 0.776428C0.280934 1.27357 4.68822e-08 1.94783 4.68822e-08 2.65089V22.5338C-6.56219e-05 22.882 0.068857 23.2267 0.202832 23.5484C0.336807 23.8701 0.533209 24.1624 0.780823 24.4086C1.02844 24.6548 1.32241 24.8501 1.64596 24.9833C1.96951 25.1166 2.31629 25.1852 2.6665 25.1852H17.3335C17.6837 25.1852 18.0305 25.1166 18.354 24.9833C18.6776 24.8501 18.9716 24.6548 19.2192 24.4086C19.4668 24.1624 19.6632 23.8701 19.7972 23.5484C19.9311 23.2267 20.0001 22.882 20 22.5338V2.65139C20 1.94833 19.7191 1.27406 19.219 0.776924C18.7189 0.279786 18.0407 0 17.3335 0Z" fill="#FBBB99"/>
<path fill-rule="evenodd" clip-rule="evenodd" d="M15.0365 9.06938C14.791 9.3106 14.791 9.70136 15.0365 9.94258L17.1102 11.9751H7.29648C7.12947 11.9751 6.96929 12.0401 6.85119 12.1559C6.7331 12.2717 6.66675 12.4288 6.66675 12.5925C6.66675 12.7562 6.7331 12.9133 6.85119 13.0291C6.96929 13.1448 7.12947 13.2099 7.29648 13.2099H17.1097L15.0365 15.2424C14.9781 15.2997 14.9317 15.3678 14.9 15.4426C14.8683 15.5175 14.852 15.5978 14.852 15.6788C14.852 15.7599 14.8683 15.8402 14.8999 15.9151C14.9315 15.99 14.9779 16.058 15.0363 16.1154C15.0948 16.1727 15.1642 16.2182 15.2405 16.2492C15.3169 16.2803 15.3988 16.2963 15.4815 16.2963C15.5641 16.2963 15.646 16.2804 15.7224 16.2494C15.7988 16.2184 15.8682 16.1729 15.9267 16.1156L19.0752 13.0293C19.3207 12.7886 19.3207 12.3973 19.0752 12.1561L15.9267 9.06985C15.8683 9.01248 15.7988 8.96697 15.7224 8.93592C15.646 8.90487 15.5641 8.88889 15.4814 8.88889C15.3987 8.88889 15.3168 8.90487 15.2404 8.93592C15.164 8.96697 15.0945 9.01248 15.0361 9.06985L15.0365 9.06938Z" fill="#FC5F0F"/>
</svg>
