<svg width="32" height="32" viewBox="0 0 32 32" fill="none" xmlns="http://www.w3.org/2000/svg">
<path fill-rule="evenodd" clip-rule="evenodd" d="M16 28C22.6274 28 28 22.6274 28 16C28 9.37258 22.6274 4 16 4C9.37258 4 4 9.37258 4 16C4 22.6274 9.37258 28 16 28ZM16 7C16.5523 7 17 7.44772 17 8V12C17 12.5523 16.5523 13 16 13C15.4477 13 15 12.5523 15 12V8C15 7.44772 15.4477 7 16 7ZM20.9497 9.63604C21.3403 9.24551 21.9734 9.24551 22.364 9.63604C23.6226 10.8947 24.4798 12.4984 24.8271 14.2442C25.1743 15.99 24.9961 17.7996 24.3149 19.4441C23.6337 21.0887 22.4802 22.4943 21.0001 23.4832C19.5201 24.4722 17.78 25 16 25C14.22 25 12.4799 24.4722 10.9999 23.4832C9.51982 22.4943 8.36627 21.0887 7.68508 19.4442C7.00389 17.7996 6.82566 15.99 7.17293 14.2442C7.52019 12.4984 8.37736 10.8947 9.63603 9.63604C10.0266 9.24551 10.6597 9.24551 11.0502 9.63604C11.4408 10.0266 11.4408 10.6597 11.0502 11.0503C10.0713 12.0292 9.40459 13.2765 9.1345 14.6344C8.8644 15.9922 9.00303 17.3997 9.53284 18.6788C10.0627 19.9579 10.9599 21.0511 12.111 21.8203C13.2621 22.5895 14.6155 23 16 23C17.3845 23 18.7378 22.5895 19.889 21.8203C21.0401 21.0511 21.9373 19.9579 22.4672 18.6788C22.997 17.3997 23.1356 15.9922 22.8655 14.6344C22.5954 13.2765 21.9287 12.0292 20.9497 11.0503C20.5592 10.6597 20.5592 10.0266 20.9497 9.63604Z" fill="#F5F8FF"/>
</svg>
