<svg width="25" height="25" viewBox="0 0 25 25" fill="none" xmlns="http://www.w3.org/2000/svg">
<g clip-path="url(#clip0_143_235)">
<mask id="mask0_143_235" style="mask-type:luminance" maskUnits="userSpaceOnUse" x="0" y="3" width="25" height="19">
<path d="M0 3.57808H25V21.4253H0V3.57808Z" fill="white"/>
</mask>
<g mask="url(#mask0_143_235)">
<path d="M2.68627 3.57808C1.20804 3.57808 0.00976562 4.77491 0.00976562 6.25519C0.0429205 10.3147 0.00976562 14.6113 0.00976562 18.7483C0.00976562 20.173 1.11774 21.3261 2.51893 21.4114L22.4257 21.4254C23.853 21.3677 24.9907 20.1917 24.9907 18.7483V5.79524C24.7742 4.53306 23.6786 3.5782 22.356 3.5782C15.803 3.58121 9.2419 3.57832 2.68615 3.5782L2.68627 3.57808ZM2.64443 4.98638H22.4397L12.8625 14.5654C12.6878 14.7402 12.4101 14.7402 12.2352 14.5654L2.64431 4.98638H2.64443ZM23.6526 5.66961V18.6508C23.6526 19.4242 23.374 19.861 22.8162 20.0171L16.069 13.2548L23.6526 5.66973V5.66961ZM1.50162 5.72531L8.95978 13.185L2.14301 20.0031C1.67631 19.8456 1.51391 19.4698 1.50174 18.9574V5.72543L1.50162 5.72531ZM9.90765 14.1189L12.2357 16.4613C12.4105 16.6362 12.6883 16.6362 12.863 16.4613L15.1214 14.2025L21.0044 20.0868H3.94145L9.90789 14.119L9.90765 14.1189Z" fill="#B9B0AB" fill-opacity="0.8"/>
</g>
</g>
<defs>
<clipPath id="clip0_143_235">
<rect width="25" height="25" fill="white"/>
</clipPath>
</defs>
</svg>
