<svg width="21" height="24" viewBox="0 0 21 24" fill="none" xmlns="http://www.w3.org/2000/svg">
<path d="M18.9986 3.2336C16.4858 2.52467 14.0557 1.56516 11.7471 0.370456C11.3414 0.12825 10.8743 0 10.3979 0C9.92147 0 9.4544 0.12825 9.04874 0.370456C6.74036 1.56501 4.31052 2.52451 1.79812 3.2336C1.26297 3.39744 0.797753 3.72639 0.473368 4.1703C0.148984 4.61422 -0.0167788 5.14877 0.00134237 5.69249L0.284529 13.9775C0.915607 18.1398 5.41914 21.611 8.04815 23.3088C8.7436 23.7594 9.56135 24 10.3979 24C11.2345 24 12.0522 23.7594 12.7477 23.3088C15.3767 21.611 19.8802 18.1398 20.5197 13.8832L20.7943 5.69332C20.8126 5.1496 20.6471 4.61498 20.3229 4.17092C19.9987 3.72686 19.5336 3.39771 18.9986 3.2336ZM18.8134 13.7346C18.2787 17.2615 14.1875 20.3786 11.7958 21.9236C11.3822 22.1921 10.8957 22.3355 10.3979 22.3355C9.90013 22.3355 9.41357 22.1921 9 21.9236C6.60835 20.3786 2.51707 17.2609 1.99086 13.8294L1.71625 5.63958C1.71001 5.45914 1.76464 5.28164 1.87187 5.13402C1.9791 4.98639 2.13307 4.8767 2.31043 4.82156C4.95797 4.07252 7.51699 3.05588 9.94533 1.78839C10.0805 1.70473 10.2375 1.66027 10.3979 1.66027C10.5583 1.66027 10.7153 1.70473 10.8505 1.78839C13.2792 3.05583 15.8386 4.07225 18.4866 4.8209C18.6638 4.8762 18.8175 4.98597 18.9246 5.13357C19.0317 5.28118 19.0862 5.45858 19.0799 5.63892L18.8134 13.7346ZM11.9156 10.5949C11.9124 10.8287 11.8507 11.0582 11.7358 11.2638C11.6209 11.4693 11.4563 11.6448 11.2561 11.7751V14.04C11.2561 14.2607 11.1656 14.4722 11.0047 14.6282C10.8438 14.7842 10.6255 14.8719 10.3979 14.8719C10.1703 14.8719 9.95204 14.7842 9.79111 14.6282C9.63018 14.4722 9.53977 14.2607 9.53977 14.04V11.7751C9.33954 11.6448 9.17492 11.4693 9.06004 11.2638C8.94516 11.0582 8.88345 10.8287 8.8802 10.5949C8.8802 10.2048 9.0401 9.83057 9.32473 9.55467C9.60935 9.27877 9.99539 9.12377 10.3979 9.12377C10.8004 9.12377 11.1865 9.27877 11.4711 9.55467C11.7557 9.83057 11.9156 10.2048 11.9156 10.5949Z" fill="#B9B0AB" fill-opacity="0.8"/>
</svg>
