<svg width="24" height="20" viewBox="0 0 24 20" fill="none" xmlns="http://www.w3.org/2000/svg">
<path d="M11.5432 0.000536626C9.49255 0.000845837 7.81578 1.68143 7.81548 3.73221C7.81516 5.78299 9.49056 7.46222 11.5412 7.46191C13.5918 7.4616 15.2726 5.78199 15.2729 3.7312C15.2732 1.68042 13.5938 0.000227415 11.5432 0.000536626Z" fill="#FC5F0F"/>
<path d="M7.51737 16.5137C7.43725 16.4532 7.34598 16.409 7.24875 16.3837C7.15153 16.3585 7.05027 16.3527 6.9508 16.3666C6.85133 16.3806 6.7556 16.414 6.66908 16.465C6.58256 16.5161 6.50696 16.5837 6.44661 16.664C6.38603 16.7441 6.34185 16.8354 6.31661 16.9326C6.29137 17.0298 6.28556 17.1311 6.29952 17.2305C6.31349 17.33 6.34694 17.4258 6.39797 17.5123C6.449 17.5988 6.51661 17.6744 6.5969 17.7347C6.86566 17.9377 7.14686 18.1224 7.43849 18.2908C10.2908 19.9375 13.8558 19.7188 16.4855 17.7347C16.5658 17.6744 16.6334 17.5988 16.6844 17.5123C16.7354 17.4258 16.7689 17.33 16.7828 17.2305C16.7968 17.1311 16.791 17.0298 16.7658 16.9326C16.7405 16.8354 16.6963 16.7441 16.6358 16.664C16.5139 16.5029 16.3333 16.3966 16.1333 16.3685C15.9333 16.3403 15.7303 16.3926 15.5688 16.5137C13.4249 18.1313 10.5261 18.3106 8.20117 16.9683C7.9638 16.8314 7.73612 16.6789 7.51737 16.5137Z" fill="#FC5F0F"/>
<path d="M14.1599 3.61201C14.0669 3.64954 13.9822 3.705 13.9107 3.77527C13.8391 3.84554 13.7821 3.92923 13.7429 4.02153C13.7034 4.11401 13.6826 4.21337 13.6817 4.31391C13.6807 4.41445 13.6996 4.51419 13.7373 4.6074C13.775 4.70061 13.8308 4.78546 13.9014 4.85707C13.972 4.92867 14.056 4.98563 14.1487 5.02467C14.4018 5.13181 14.647 5.25162 14.885 5.3891C17.2108 6.7319 18.5063 9.33146 18.1762 11.9978C18.1637 12.0975 18.171 12.1986 18.1977 12.2955C18.2243 12.3924 18.2699 12.483 18.3317 12.5623C18.3934 12.6415 18.4703 12.7077 18.5577 12.7572C18.6451 12.8067 18.7415 12.8384 18.8412 12.8506C19.042 12.8748 19.2441 12.8184 19.4033 12.6937C19.5625 12.569 19.6657 12.3863 19.6903 12.1856C20.0952 8.91513 18.5048 5.714 15.6515 4.06662C15.359 3.89772 15.0533 3.74738 14.7423 3.61577C14.5563 3.53759 14.3469 3.5363 14.1599 3.61201Z" fill="#FC5F0F"/>
<path d="M8.92252 3.61573C8.73502 3.54125 8.52565 3.54401 8.34018 3.62342C6.6988 4.32002 5.32826 5.53159 4.4366 7.07598C3.5436 8.6227 3.17662 10.417 3.39589 12.1893C3.40807 12.2891 3.43981 12.3854 3.48929 12.4728C3.53878 12.5603 3.60504 12.6371 3.68427 12.6989C3.7635 12.7607 3.85415 12.8062 3.95101 12.8329C4.04788 12.8596 4.14906 12.8668 4.24874 12.8543C4.34848 12.8422 4.44482 12.8104 4.53226 12.7609C4.6197 12.7115 4.69652 12.6452 4.7583 12.566C4.82008 12.4867 4.86561 12.3961 4.89229 12.2992C4.91896 12.2024 4.92625 12.1012 4.91374 12.0015C4.73523 10.5585 5.03197 9.09803 5.75908 7.83866C6.4851 6.58118 7.59744 5.59568 8.93379 5.02839C9.02645 4.98935 9.11049 4.93239 9.18107 4.86079C9.25165 4.78918 9.30739 4.70433 9.34509 4.61112C9.38279 4.51791 9.40171 4.41817 9.40076 4.31763C9.39981 4.21709 9.37901 4.11773 9.33956 4.02525C9.30035 3.93294 9.24334 3.84926 9.17178 3.77899C9.10022 3.70872 9.01553 3.65326 8.92252 3.61573Z" fill="#FC5F0F"/>
<path d="M18.0045 11.1757C16.7128 11.1759 15.4518 11.8463 14.7629 13.0396C13.7374 14.8157 14.3499 17.1088 16.1257 18.1341C17.9016 19.1594 20.1968 18.5444 21.2222 16.7683C22.2477 14.9922 21.6323 12.6971 19.8564 11.6718C19.2737 11.3353 18.6353 11.1757 18.0045 11.1757Z" fill="#FC5F0F"/>
<path d="M5.08277 11.1787C4.45201 11.1787 3.81356 11.3382 3.23085 11.6747C1.45497 12.7004 0.839975 14.9962 1.86502 16.7723C2.89008 18.5483 5.18269 19.1598 6.95856 18.1341C8.73444 17.1085 9.34845 14.8186 8.32339 13.0426C7.63469 11.8493 6.37434 11.1788 5.08277 11.1787Z" fill="#FC5F0F"/>
</svg>
