<svg width="31" height="25" viewBox="0 0 31 25" fill="none" xmlns="http://www.w3.org/2000/svg">
<path d="M10.1579 12.5468C13.3465 12.5468 15.9314 9.96199 15.9314 6.77342C15.9314 3.58485 13.3465 1 10.1579 1C6.96937 1 4.38452 3.58485 4.38452 6.77342C4.38452 9.96199 6.96937 12.5468 10.1579 12.5468Z" fill="#1F3881" stroke="#1F3881" stroke-width="2" stroke-linecap="round" stroke-linejoin="round"/>
<path fill-rule="evenodd" clip-rule="evenodd" d="M1.00002 19.3683C0.998487 18.9624 1.08926 18.5615 1.26548 18.1959C1.8185 17.0899 3.37799 16.5037 4.67204 16.2383C5.60531 16.0391 6.55147 15.906 7.50347 15.8401C9.26603 15.6853 11.0388 15.6853 12.8013 15.8401C13.7533 15.9068 14.6994 16.0398 15.6328 16.2383C16.9268 16.5037 18.4863 17.0346 19.0393 18.1959C19.3937 18.9412 19.3937 19.8065 19.0393 20.5518C18.4863 21.7131 16.9268 22.244 15.6328 22.4984C14.7006 22.7058 13.7541 22.8426 12.8013 22.9076C11.3668 23.0292 9.92548 23.0514 8.48783 22.974C8.15603 22.974 7.83528 22.974 7.50347 22.9076C6.55428 22.8434 5.6114 22.7066 4.6831 22.4984C3.37799 22.244 1.82956 21.7131 1.26548 20.5518C1.09016 20.1819 0.999478 19.7776 1.00002 19.3683Z" fill="#1F3881" stroke="#1F3881" stroke-width="2" stroke-linecap="round" stroke-linejoin="round"/>
<path d="M26 3.79639L26 10.7964" stroke="#1F3881" stroke-width="2" stroke-linecap="round"/>
<path d="M30 6.79639L23 6.79639" stroke="#1F3881" stroke-width="2" stroke-linecap="round"/>
</svg>
