<svg width="28" height="24" viewBox="0 0 28 24" fill="none" xmlns="http://www.w3.org/2000/svg">
<path fill-rule="evenodd" clip-rule="evenodd" d="M1.54537 0.87868C0.666687 1.75736 0.666687 3.17157 0.666687 6V18C0.666687 20.8284 0.666687 22.2426 1.54537 23.1213C2.42405 24 3.83826 24 6.66668 24H21.3334C24.1618 24 25.576 24 26.4547 23.1213C27.3334 22.2426 27.3334 20.8284 27.3334 18V6C27.3334 3.17157 27.3334 1.75736 26.4547 0.87868C25.576 0 24.1618 0 21.3334 0H6.66669C3.83826 0 2.42405 0 1.54537 0.87868ZM19.3334 7C19.8856 7 20.3334 7.44772 20.3334 8V18.6667C20.3334 19.219 19.8856 19.6667 19.3334 19.6667C18.7811 19.6667 18.3334 19.219 18.3334 18.6667V8C18.3334 7.44772 18.7811 7 19.3334 7ZM9.66669 10.6667C9.66669 10.1144 9.21897 9.66667 8.66669 9.66667C8.1144 9.66667 7.66669 10.1144 7.66669 10.6667V18.6667C7.66669 19.219 8.1144 19.6667 8.66669 19.6667C9.21897 19.6667 9.66669 19.219 9.66669 18.6667V10.6667ZM15 13.3333C15 12.781 14.5523 12.3333 14 12.3333C13.4477 12.3333 13 12.781 13 13.3333V18.6667C13 19.219 13.4477 19.6667 14 19.6667C14.5523 19.6667 15 19.219 15 18.6667V13.3333Z" fill="#FEFEFE"/>
</svg>
