<svg width="26" height="27" viewBox="0 0 26 27" fill="none" xmlns="http://www.w3.org/2000/svg">
<path d="M3.57164 15.7144L22.4288 15.7144C23.3756 15.7144 24.1431 14.9468 24.1431 14.0001L24.1431 5.42864C24.1431 4.48187 23.3756 3.71436 22.4288 3.71436L3.57164 3.71435C2.62487 3.71435 1.85735 4.48186 1.85735 5.42864L1.85735 14.0001C1.85735 14.9468 2.62486 15.7144 3.57164 15.7144Z" stroke="#C5BEBA" stroke-width="1.85714" stroke-linecap="round" stroke-linejoin="round"/>
<path d="M19 23.4286L19 20" stroke="#C5BEBA" stroke-width="1.85714" stroke-linecap="round" stroke-linejoin="round"/>
<path d="M13 26L13 20" stroke="#C5BEBA" stroke-width="1.85714" stroke-linecap="round" stroke-linejoin="round"/>
<path d="M7 23.4286L7 20" stroke="#C5BEBA" stroke-width="1.85714" stroke-linecap="round" stroke-linejoin="round"/>
<path d="M13.0001 7.14291C11.5799 7.14291 10.4287 8.29418 10.4287 9.71434C10.4287 11.1345 11.5799 12.2858 13.0001 12.2858C14.4203 12.2858 15.5715 11.1345 15.5715 9.71434C15.5715 8.29418 14.4203 7.14291 13.0001 7.14291Z" stroke="#C5BEBA" stroke-width="1.85714" stroke-linecap="round" stroke-linejoin="round"/>
</svg>
