<svg width="25" height="33" viewBox="0 0 25 33" fill="none" xmlns="http://www.w3.org/2000/svg">
<mask id="mask0_26_2218" style="mask-type:luminance" maskUnits="userSpaceOnUse" x="0" y="0" width="25" height="33">
<path d="M0 0H25V32.7273H0V0Z" fill="white"/>
</mask>
<g mask="url(#mask0_26_2218)">
<path d="M12.5214 21.9168C7.13197 21.9168 2.74789 17.532 2.74789 12.1425C2.74789 6.75309 7.13197 2.36862 12.5214 2.36862C17.9109 2.36862 22.2961 6.75309 22.2961 12.1425C22.2961 17.532 17.9109 21.9168 12.5214 21.9168ZM20.2862 21.48C22.9629 19.2519 24.6679 15.8973 24.6679 12.1425C24.6679 5.43443 19.2295 -0.00354004 12.5218 -0.00354004C5.81371 -0.00354004 0.37534 5.43443 0.37534 12.1425C0.37534 15.8973 2.08028 19.2519 4.75705 21.48L0.019043 29.1221L4.42837 28.4939L5.82594 32.7229L11.11 24.1998C11.574 24.2539 12.0436 24.2886 12.5218 24.2886C12.9996 24.2886 13.4696 24.2539 13.9332 24.2002L19.2173 32.7229L20.6152 28.4939L25.0242 29.1221L20.2862 21.48Z" fill="#FC5F0F"/>
</g>
<path d="M16.3431 17.5853L12.5055 15.5525L8.65411 17.5628L9.40262 13.2845L6.30168 10.2423L10.6009 9.63113L12.5359 5.74145L14.4452 9.64179L18.7413 10.279L15.6218 13.3026L16.3431 17.5853ZM12.5213 4.00574C8.03464 4.00574 4.38525 7.65631 4.38525 12.1426C4.38525 16.6292 8.03464 20.2794 12.5213 20.2794C17.008 20.2794 20.6589 16.6292 20.6589 12.1426C20.6589 7.65631 17.008 4.00574 12.5213 4.00574Z" fill="#FC5F0F"/>
</svg>
