<svg width="21" height="23" viewBox="0 0 21 23" fill="none" xmlns="http://www.w3.org/2000/svg">
<path d="M2.008 15.512V12.024H7.768C9.752 12.024 11.1707 11.608 12.024 10.776C12.8987 9.944 13.336 8.93067 13.336 7.736C13.336 6.22133 12.856 5.02667 11.896 4.152C10.9573 3.256 9.48533 2.81867 7.48 2.84H0.12V0.599998H20.504V2.84H12.44L13.592 1.656C15.0213 2.27467 16.0347 3.14933 16.632 4.28C17.2293 5.38933 17.528 6.60533 17.528 7.928C17.528 9.50667 17.144 10.872 16.376 12.024C15.608 13.1547 14.52 14.0187 13.112 14.616C11.704 15.2133 10.008 15.512 8.024 15.512H2.008ZM13.464 23L7.608 14.04H12.056L17.944 23H13.464ZM0.12 7.288V5.048H20.504V7.288H0.12Z" fill="#FC5F0F"/>
</svg>
