<svg width="24" height="24" viewBox="0 0 24 24" fill="none" xmlns="http://www.w3.org/2000/svg">
<path d="M19.9337 11.3623C19.7064 11.3623 19.4884 11.272 19.3276 11.1112C19.1669 10.9505 19.0766 10.7325 19.0766 10.5051V8.08456C19.0766 4.65599 15.9086 1.91313 12.0137 1.91313C8.11886 1.91313 4.95086 4.69027 4.95086 8.08456V10.5051C4.95086 10.7325 4.86055 10.9505 4.69981 11.1112C4.53906 11.272 4.32104 11.3623 4.09372 11.3623C3.86639 11.3623 3.64837 11.272 3.48762 11.1112C3.32688 10.9505 3.23657 10.7325 3.23657 10.5051V8.08456C3.23657 3.72342 7.17943 0.171417 12.0137 0.171417C16.848 0.171417 20.7909 3.72342 20.7909 8.08456V10.5051C20.7918 10.6179 20.7702 10.7298 20.7275 10.8342C20.6847 10.9386 20.6216 11.0335 20.5418 11.1133C20.4621 11.193 20.3672 11.2561 20.2628 11.2989C20.1584 11.3416 20.0465 11.3632 19.9337 11.3623Z" fill="#1F3881"/>
<path d="M17.616 19.4263C17.3887 19.4263 17.1707 19.336 17.0099 19.1752C16.8492 19.0145 16.7589 18.7965 16.7589 18.5691V10.4297C16.766 10.2072 16.8594 9.99614 17.0194 9.84128C17.1794 9.68642 17.3934 9.59989 17.616 9.60001C20.5714 9.60001 22.9783 11.8149 22.9783 14.5303C22.9783 17.2457 20.5714 19.4263 17.616 19.4263ZM18.4732 11.376V17.6229C19.2236 17.4986 19.9089 17.1214 20.4154 16.5538C20.9218 15.9863 21.2189 15.2626 21.2572 14.5029C21.2204 13.742 20.924 13.0166 20.4175 12.4477C19.9109 11.8787 19.2247 11.5005 18.4732 11.376ZM6.38401 19.4263C3.42859 19.4263 1.02173 17.2183 1.02173 14.5029C1.02173 11.7874 3.42859 9.60001 6.38401 9.60001C6.61134 9.60001 6.82936 9.69031 6.99011 9.85106C7.15085 10.0118 7.24116 10.2298 7.24116 10.4571V18.5691C7.24116 18.7965 7.15085 19.0145 6.99011 19.1752C6.82936 19.336 6.61134 19.4263 6.38401 19.4263ZM5.52687 11.376C4.77533 11.5005 4.08913 11.8787 3.58257 12.4477C3.076 13.0166 2.77965 13.742 2.74287 14.5029C2.78117 15.2626 3.07821 15.9863 3.58465 16.5538C4.09108 17.1214 4.77643 17.4986 5.52687 17.6229V11.376Z" fill="#1F3881"/>
<path d="M17.3349 22.2171H14.496C14.2687 22.2171 14.0507 22.1268 13.8899 21.9661C13.7292 21.8053 13.6389 21.5873 13.6389 21.36C13.6389 21.1327 13.7292 20.9147 13.8899 20.7539C14.0507 20.5932 14.2687 20.5029 14.496 20.5029H17.3349C17.7786 20.5029 18.2042 20.3266 18.5179 20.0128C18.8317 19.699 19.008 19.2735 19.008 18.8297V18.4526C19.008 18.2252 19.0983 18.0072 19.259 17.8465C19.4198 17.6857 19.6378 17.5954 19.8651 17.5954C20.0925 17.5954 20.3105 17.6857 20.4712 17.8465C20.632 18.0072 20.7223 18.2252 20.7223 18.4526V18.8297C20.7223 19.7281 20.3654 20.5897 19.7301 21.225C19.0949 21.8603 18.2333 22.2171 17.3349 22.2171Z" fill="#1F3881"/>
<path d="M13.0285 23.8286H11.3348C10.7129 23.8286 10.1164 23.5815 9.67656 23.1417C9.23676 22.7019 8.98969 22.1054 8.98969 21.4834V21.3874C8.9915 20.7666 9.23938 20.1719 9.67898 19.7336C10.1186 19.2953 10.714 19.0491 11.3348 19.0491H13.0285C13.6487 19.0491 14.2434 19.2955 14.682 19.734C15.1205 20.1725 15.3668 20.7673 15.3668 21.3874V21.4834C15.3668 22.1042 15.1207 22.6997 14.6824 23.1393C14.2441 23.5789 13.6493 23.8267 13.0285 23.8286ZM11.3485 20.7634C11.1824 20.7634 11.023 20.8289 10.9049 20.9458C10.7868 21.0626 10.7195 21.2213 10.7177 21.3874V21.4834C10.7177 21.6507 10.7842 21.8112 10.9025 21.9295C11.0208 22.0478 11.1812 22.1143 11.3485 22.1143H13.0285C13.1947 22.1125 13.3534 22.0452 13.4702 21.9271C13.587 21.809 13.6526 21.6496 13.6525 21.4834V21.3874C13.6525 21.2219 13.5868 21.0632 13.4698 20.9462C13.3528 20.8292 13.194 20.7634 13.0285 20.7634H11.3485Z" fill="#1F3881"/>
</svg>
