<svg width="24" height="24" viewBox="0 0 24 24" fill="none" xmlns="http://www.w3.org/2000/svg">
<path d="M15.6999 4.2C14.8999 3 13.4999 2.2 11.9999 2.2C10.4999 2.2 9.09995 3 8.29995 4.2C7.89995 4.1 7.39995 4 6.99995 4C5.09995 4 3.59995 5.5 3.59995 7.3C3.59995 9.1 5.09995 10.6 6.99995 10.6C7.69995 10.6 8.39995 10.4 8.99995 9.9C9.79995 10.6 10.8999 11 11.9999 11C13.0999 11 14.1999 10.6 14.9999 9.9C15.5999 10.3 16.2999 10.6 16.9999 10.6C18.8999 10.6 20.3999 9.1 20.3999 7.3C20.3999 5.5 18.8999 4 16.9999 4C16.5999 4 16.0999 4.1 15.6999 4.2ZM6.99995 8.5C6.19995 8.5 5.59995 8 5.59995 7.3C5.59995 6.6 6.19995 6 6.99995 6C7.19995 6 7.39995 6 7.49995 6.1V6.6C7.49995 6.9 7.49995 7.1 7.59995 7.4V7.6C7.59995 7.8 7.69995 8 7.79995 8.2V8.3C7.59995 8.5 7.29995 8.5 6.99995 8.5ZM11.9999 9C11.0999 9 10.3999 8.6 9.89995 7.9C9.59995 7.5 9.49995 7.1 9.49995 6.6C9.49995 6.4 9.49995 6.1 9.59995 5.9C9.89995 4.9 10.8999 4.2 11.9999 4.2C13.0999 4.2 14.0999 4.9 14.3999 5.9C14.4999 6.1 14.4999 6.4 14.4999 6.6C14.4999 7 14.3999 7.5 14.0999 7.9C13.5999 8.6 12.8999 9 11.9999 9ZM18.3999 7.3C18.3999 8 17.7999 8.6 16.9999 8.6C16.6999 8.6 16.3999 8.5 16.1999 8.4V8.3C16.2999 8.1 16.2999 7.9 16.3999 7.8C16.3999 7.7 16.3999 7.7 16.4999 7.6C16.4999 7.3 16.5999 7.1 16.5999 6.8V6.3C16.5999 6 16.7999 6 16.9999 6C17.7999 6 18.3999 6.6 18.3999 7.3ZM21.5999 14C21.1999 12.3 19.6999 11 18.0999 11H15.8999C14.9999 11 14.1999 11.4 13.4999 12H10.4999C9.79995 11.4 8.99995 11 8.09995 11H5.89995C4.29995 11 2.79995 12.2 2.39995 14L2.09995 15.2C1.89995 15.9 2.09995 16.7 2.49995 17.3C2.89995 17.8 3.49995 18.1 4.09995 18.1V18.2C3.79995 19.1 3.99995 20.1 4.59995 20.9C5.19995 21.6 5.99995 22 6.99995 22H16.9999C17.8999 22 18.7999 21.6 19.2999 20.8C19.8999 20 20.0999 19 19.7999 18.1V18C20.3999 18 20.9999 17.7 21.3999 17.2C21.7999 16.6 21.9999 15.9 21.7999 15.1L21.5999 14ZM4.09995 16C3.99995 15.9 3.99995 15.8 3.99995 15.6L4.29995 14.4C4.49995 13.6 5.19995 13 5.89995 13H6.89995L6.79995 13.1C6.69995 13.2 6.59995 13.3 6.39995 13.4L6.09995 13.7L5.79995 14C5.69995 14.1 5.59995 14.2 5.49995 14.4C5.39995 14.5 5.29995 14.7 5.29995 14.8C5.19995 14.9 5.09995 15.1 5.09995 15.2C4.99995 15.3 4.99995 15.5 4.89995 15.6C4.89995 15.7 4.79995 15.8 4.79995 15.9L4.09995 16ZM17.7999 19.6C17.6999 19.8 17.3999 20 16.9999 20H6.99995C6.59995 20 6.39995 19.8 6.29995 19.6C5.99995 19.4 5.99995 19 5.99995 18.7L6.39995 17.3L6.49995 16.8C6.99995 15.1 8.39995 14 9.99995 14H13.9999C15.5999 14 16.9999 15.1 17.4999 16.8L17.5999 17.3L17.9999 18.7C17.9999 19 17.9999 19.4 17.7999 19.6ZM19.8999 16H19.2999C19.2999 15.9 19.1999 15.8 19.1999 15.7C19.0999 15.5 19.0999 15.4 18.9999 15.3C18.8999 15.2 18.8999 15 18.7999 14.9C18.6999 14.8 18.5999 14.6 18.4999 14.5L18.1999 14.2C18.0999 14.1 17.9999 13.9 17.8999 13.8L17.5999 13.5C17.4999 13.4 17.2999 13.3 17.1999 13.2L17.0999 13.1H18.0999C18.7999 13.1 19.4999 13.7 19.6999 14.5L19.9999 15.7C19.9999 15.8 19.9999 15.9 19.8999 16Z" fill="#B9B0AB" fill-opacity="0.8"/>
</svg>
