<svg width="38" height="28" viewBox="0 0 38 28" fill="none" xmlns="http://www.w3.org/2000/svg">
<path d="M0.5 4C0.5 3.0733 0.871641 2.18358 1.53474 1.52682C2.19801 0.869905 3.0986 0.5 4.03865 0.5H32.3092C33.2492 0.5 34.1498 0.869905 34.8131 1.52682C35.4762 2.18358 35.8478 3.0733 35.8478 4V7.5H28.2705C26.5328 7.5 24.8653 8.18366 23.635 9.40211C22.4047 10.6207 21.7126 12.2745 21.7126 14C21.7126 15.7255 22.4047 17.3793 23.6351 18.5979C24.8653 19.8163 26.5328 20.5 28.2705 20.5H35.8478V24C35.8478 24.9267 35.4762 25.8164 34.8131 26.4732C34.1498 27.1301 33.2492 27.5 32.3092 27.5H4.03865C3.0986 27.5 2.19801 27.1301 1.53474 26.4732C0.871641 25.8164 0.5 24.9267 0.5 24V4Z" fill="#FC5F0F" stroke="#FC5F0F"/>
<path fill-rule="evenodd" clip-rule="evenodd" d="M24.7827 14C24.7827 12.9079 25.1806 11.8606 25.8888 11.0884C26.597 10.3161 27.5575 9.88232 28.5591 9.88232H36.1119C36.6127 9.88232 37.093 10.0992 37.4471 10.4853C37.8012 10.8714 38.0001 11.3951 38.0001 11.9411V16.0588C38.0001 16.6048 37.8012 17.1285 37.4471 17.5146C37.093 17.9007 36.6127 18.1176 36.1119 18.1176H28.5591C27.5575 18.1176 26.597 17.6838 25.8888 16.9116C25.1806 16.1394 24.7827 15.092 24.7827 14ZM30.4473 14C30.4473 14.546 30.2484 15.0697 29.8943 15.4558C29.5402 15.8419 29.0599 16.0588 28.5591 16.0588C28.0583 16.0588 27.5781 15.8419 27.224 15.4558C26.8698 15.0697 26.6709 14.546 26.6709 14C26.6709 13.4539 26.8698 12.9303 27.224 12.5442C27.5781 12.1581 28.0583 11.9411 28.5591 11.9411C29.0599 11.9411 29.5402 12.1581 29.8943 12.5442C30.2484 12.9303 30.4473 13.4539 30.4473 14Z" fill="#FC5F0F"/>
<ellipse cx="28.9128" cy="14" rx="2.47826" ry="2.47059" fill="#FEF7F2"/>
</svg>
