<svg width="30" height="30" viewBox="0 0 30 30" fill="none" xmlns="http://www.w3.org/2000/svg">
<path d="M27.5019 13.2965C26.3182 11.4198 25.4808 9.54303 25.0189 7.46419C24.7301 6.22265 23.7773 5.26985 22.5358 4.98112C20.4281 4.51916 18.5802 3.71072 16.7035 2.49806C15.6641 1.83398 14.3359 1.83398 13.2965 2.49806C11.4198 3.68184 9.54303 4.51916 7.46419 4.98112C6.22265 5.26985 5.26985 6.22265 4.98112 7.46419C4.51916 9.54303 3.71072 11.4198 2.49806 13.2965C1.83398 14.3359 1.83398 15.6641 2.49806 16.7035C3.68184 18.5802 4.51916 20.457 4.98112 22.5358C5.26985 23.7773 6.22265 24.7301 7.46419 25.0189C9.5719 25.4808 11.4198 26.2893 13.2965 27.5019C14.3359 28.166 15.6641 28.166 16.7035 27.5019C18.5802 26.3182 20.457 25.4808 22.5358 25.0189C23.7773 24.7301 24.7301 23.7773 25.0189 22.5358C25.4808 20.4281 26.2893 18.5802 27.5019 16.7035C28.166 15.6641 28.166 14.3359 27.5019 13.2965ZM15 25.7407C9.08107 25.7407 4.2593 20.9189 4.2593 15C4.2593 9.08107 9.08107 4.2593 15 4.2593C20.9189 4.2593 25.7407 9.05219 25.7407 15C25.7407 20.9189 20.9189 25.7407 15 25.7407Z" fill="#FDCF71" stroke="#FDCF71" stroke-width="4"/>
<path d="M14.872 19V11.2L15.556 11.908H13.096V10.6H16.432V19H14.872Z" fill="#FDCF71"/>
</svg>
