<svg width="160" height="94" viewBox="0 0 160 94" fill="none" xmlns="http://www.w3.org/2000/svg">
<path d="M14.112 68C10.464 68 7.488 65.024 7.488 61.376V7.616C7.488 3.872 10.464 0.895994 14.112 0.895994H67.872C71.52 0.895994 74.496 3.872 74.496 7.616V43.136C74.496 44.864 73.824 46.592 72.576 47.84L54.336 66.08C53.088 67.328 51.36 68 49.632 68H14.112ZM20.736 54.656H46.848L61.248 40.352V14.24H20.736V54.656ZM122.963 66.08L86.2913 29.312C85.0433 28.064 84.3713 26.336 84.3713 24.608V0.895994H97.6193V21.824L130.451 54.656H138.131V0.895994H151.379V61.376C151.379 65.024 148.403 68 144.755 68H127.667C125.939 68 124.211 67.328 122.963 66.08Z" fill="#1F3881"/>
<path d="M15.1247 74.8C20.1687 74.8 24.0687 78.596 24.0687 83.822C24.0687 89.048 20.1687 93 15.1247 93H9.48271V74.8H15.1247ZM15.2287 91.128C19.1287 91.128 22.0407 88.008 22.0407 83.822C22.0407 79.662 19.1547 76.672 15.2287 76.672H11.4327V91.128H15.2287ZM24.7047 74.8H26.8107L32.4787 90.01L38.1467 74.8H40.2267L33.3367 93H31.6207L24.7047 74.8ZM65.8899 83.328C65.9419 83.666 65.9679 84.186 65.9679 84.576C65.9679 89.568 62.2239 93.26 57.3359 93.26C52.1879 93.26 48.2359 89.152 48.2359 83.848C48.2359 78.596 52.2139 74.54 57.3359 74.54C61.0799 74.54 64.6679 77.088 65.5519 80.13H63.3419C62.5359 77.998 59.9099 76.438 57.3359 76.438C53.3579 76.438 50.2639 79.662 50.2639 83.848C50.2639 88.086 53.3579 91.362 57.4399 91.362C60.9759 91.362 63.7319 88.762 64.0179 85.252H57.7519V83.328H65.8899ZM82.303 93H79.937L74.841 85.2H71.253V93H69.303V74.8H75.881C78.897 74.8 81.263 77.01 81.263 79.948C81.263 82.704 79.573 84.68 76.999 85.122L82.303 93ZM71.253 76.672V83.328H75.829C77.831 83.328 79.287 81.898 79.287 79.948C79.287 78.05 77.831 76.672 75.829 76.672H71.253ZM92.7323 74.54C97.9063 74.54 101.91 78.596 101.91 83.848C101.91 89.152 97.9063 93.26 92.7323 93.26C87.5583 93.26 83.5543 89.152 83.5543 83.848C83.5543 78.596 87.5583 74.54 92.7323 74.54ZM92.7323 76.438C88.7023 76.438 85.5823 79.662 85.5823 83.848C85.5823 88.086 88.7023 91.362 92.7323 91.362C96.7623 91.362 99.8823 88.086 99.8823 83.848C99.8823 79.662 96.7623 76.438 92.7323 76.438ZM112.147 93.26C108.169 93.26 105.231 90.244 105.231 86.188V74.8H107.181V86.188C107.181 89.152 109.287 91.362 112.147 91.362C115.007 91.362 117.113 89.152 117.113 86.188V74.8H119.089V86.188C119.089 90.244 116.151 93.26 112.147 93.26ZM130.201 74.8C133.269 74.8 135.583 77.062 135.583 80.026C135.583 83.016 133.269 85.278 130.201 85.278H125.157V93H123.207V74.8H130.201ZM130.201 83.406C132.125 83.406 133.607 81.924 133.607 80.026C133.607 78.128 132.125 76.672 130.201 76.672H125.157V83.406H130.201ZM144.012 93.26C140.216 93.26 137.46 90.764 137.46 87.358H139.384C139.384 89.75 141.334 91.414 144.012 91.414C146.534 91.414 148.406 90.036 148.406 88.086C148.406 82.834 137.746 86.058 137.746 79.376C137.746 76.568 140.268 74.54 143.726 74.54C147.548 74.54 149.784 76.88 149.784 79.818H147.782C147.704 77.842 146.066 76.412 143.674 76.412C141.308 76.412 139.67 77.608 139.67 79.376C139.67 84.16 150.356 80.91 150.356 88.086C150.356 91.076 147.652 93.26 144.012 93.26Z" fill="#1F3881"/>
</svg>
