<svg width="25" height="25" viewBox="0 0 25 25" fill="none" xmlns="http://www.w3.org/2000/svg">
<g clip-path="url(#clip0_143_274)">
<mask id="mask0_143_274" style="mask-type:luminance" maskUnits="userSpaceOnUse" x="0" y="5" width="25" height="18">
<path d="M0 5.40125H24.7685V22.2327H0V5.40125Z" fill="white"/>
</mask>
<g mask="url(#mask0_143_274)">
<path d="M22.4685 22.2261H2.29999C2.26225 22.2261 2.22463 22.2251 2.18714 22.2233C2.14952 22.2214 2.11191 22.2186 2.07453 22.215C2.03704 22.2112 1.99966 22.2067 1.96241 22.2011C1.92527 22.1956 1.88814 22.1892 1.85125 22.1818C1.81436 22.1745 1.77758 22.1663 1.74105 22.1571C1.70452 22.148 1.66835 22.1379 1.63231 22.1271C1.59626 22.1161 1.56057 22.1043 1.52513 22.0917C1.48968 22.079 1.4546 22.0654 1.41975 22.051C1.38503 22.0367 1.35067 22.0214 1.31655 22.0053C1.28255 21.9892 1.24891 21.9723 1.21576 21.9546C1.18261 21.9368 1.14981 21.9183 1.1175 21.899C1.08519 21.8796 1.05348 21.8594 1.02214 21.8386C0.99091 21.8176 0.960045 21.796 0.929905 21.7736C0.899643 21.7512 0.869985 21.728 0.840929 21.7042C0.811752 21.6803 0.7833 21.6557 0.755449 21.6305C0.727479 21.6052 0.700231 21.5793 0.673587 21.5526C0.647063 21.5261 0.621021 21.4988 0.595824 21.4709C0.570505 21.443 0.545911 21.4146 0.522039 21.3855C0.498167 21.3563 0.475019 21.3267 0.452594 21.2965C0.43017 21.2663 0.408468 21.2355 0.387611 21.2042C0.366753 21.173 0.346619 21.1411 0.327209 21.1089C0.307919 21.0766 0.289352 21.0438 0.271629 21.0107C0.253786 20.9775 0.236907 20.9439 0.220872 20.9099C0.204716 20.8759 0.189525 20.8415 0.175058 20.8067C0.160711 20.772 0.147087 20.7369 0.134428 20.7014C0.121769 20.666 0.109954 20.6303 0.0989824 20.5943C0.0881318 20.5583 0.078125 20.522 0.0689622 20.4855C0.0597994 20.4491 0.0514805 20.4123 0.0442467 20.3754C0.0368923 20.3385 0.0303819 20.3015 0.024836 20.2643C0.0194107 20.227 0.0147087 20.1896 0.0110918 20.1523C0.00735435 20.1148 0.00458142 20.0773 0.00277296 20.0397C0.000964506 20.0022 0 19.9646 0 19.9269V7.72376C0 7.68615 0.000964506 7.64853 0.00277296 7.61092C0.00458142 7.57342 0.00735435 7.5358 0.0110918 7.49843C0.0147087 7.46094 0.0194107 7.42368 0.024836 7.38643C0.0303819 7.34917 0.0368923 7.31216 0.0442467 7.27527C0.0514805 7.23838 0.0597994 7.2016 0.0689622 7.16507C0.078125 7.12866 0.0881318 7.09237 0.0989824 7.05632C0.109954 7.0204 0.121769 6.98459 0.134428 6.94926C0.147087 6.91382 0.160711 6.87874 0.175058 6.84389C0.189525 6.80917 0.204716 6.77481 0.220872 6.74081C0.236907 6.70669 0.253786 6.67317 0.271629 6.64002C0.289352 6.60674 0.307919 6.57407 0.327209 6.54176C0.346619 6.50945 0.366753 6.47774 0.387611 6.4464C0.408468 6.41517 0.43017 6.38443 0.452594 6.35416C0.475019 6.3239 0.498167 6.29424 0.522039 6.26519C0.545911 6.23613 0.570505 6.20768 0.595824 6.17971C0.621021 6.15186 0.647063 6.12461 0.673587 6.09809C0.700231 6.07144 0.727479 6.04552 0.755449 6.0202C0.7833 5.99501 0.811752 5.97041 0.840929 5.94654C0.869985 5.92267 0.899643 5.89952 0.929905 5.8771C0.960045 5.85467 0.99091 5.83297 1.02214 5.81211C1.05348 5.79125 1.08519 5.77112 1.1175 5.75171C1.14981 5.73242 1.18261 5.71385 1.21576 5.69613C1.24891 5.67841 1.28255 5.66141 1.31655 5.64537C1.35067 5.62934 1.38503 5.61403 1.41975 5.59968C1.4546 5.58521 1.48968 5.57171 1.52513 5.55905C1.56057 5.54639 1.59626 5.53458 1.63231 5.5236C1.66835 5.51275 1.70452 5.50263 1.74105 5.49358C1.77758 5.48442 1.81436 5.4761 1.85125 5.46875C1.88814 5.46151 1.92527 5.455 1.96241 5.44946C1.99966 5.44403 2.03704 5.43933 2.07453 5.43571C2.11191 5.43198 2.14952 5.4292 2.18714 5.42739C2.22463 5.42559 2.26225 5.42462 2.29999 5.42462H22.4685C22.5063 5.42462 22.5439 5.42559 22.5814 5.42739C22.619 5.4292 22.6566 5.43198 22.694 5.43571C22.7315 5.43933 22.7689 5.44403 22.8061 5.44946C22.8432 5.455 22.8804 5.46151 22.9173 5.46887C22.9542 5.4761 22.9909 5.48442 23.0275 5.49358C23.0639 5.50263 23.1002 5.51275 23.1362 5.5236C23.1723 5.53458 23.2079 5.54639 23.2434 5.55905C23.2788 5.57171 23.3139 5.58521 23.3488 5.59968C23.3835 5.61403 23.4178 5.62934 23.452 5.64537C23.486 5.66141 23.5196 5.67841 23.5528 5.69613C23.5859 5.71385 23.6187 5.73242 23.651 5.75171C23.6832 5.77112 23.715 5.79125 23.7464 5.81211C23.7776 5.83297 23.8085 5.85467 23.8386 5.8771C23.8689 5.89952 23.8985 5.92267 23.9276 5.94654C23.9568 5.97041 23.9852 5.99501 24.0131 6.0202C24.041 6.04552 24.0683 6.07144 24.0949 6.09809C24.1215 6.12461 24.1475 6.15186 24.1727 6.17971C24.198 6.20768 24.2226 6.23613 24.2465 6.26519C24.2704 6.29424 24.2935 6.3239 24.3159 6.35416C24.3383 6.38443 24.3601 6.41517 24.3809 6.4464C24.4018 6.47774 24.4219 6.50945 24.4413 6.54176C24.4606 6.57407 24.4792 6.60674 24.4969 6.64002C24.5147 6.67317 24.5316 6.70669 24.5476 6.74081C24.5638 6.77481 24.579 6.80917 24.5935 6.84389C24.6078 6.87874 24.6214 6.91382 24.6341 6.94926C24.6467 6.98459 24.6586 7.0204 24.6695 7.05632C24.6804 7.09237 24.6904 7.12866 24.6996 7.16507C24.7087 7.2016 24.7169 7.23838 24.7243 7.27527C24.7316 7.31216 24.7381 7.34917 24.7436 7.38643C24.7491 7.42368 24.7537 7.46094 24.7574 7.49843C24.7612 7.5358 24.7639 7.57342 24.7657 7.61092C24.7676 7.64853 24.7685 7.68615 24.7685 7.72376V19.9269C24.7685 19.9646 24.7676 20.0022 24.7657 20.0397C24.7639 20.0773 24.7612 20.1148 24.7574 20.1523C24.7537 20.1896 24.7491 20.227 24.7436 20.2643C24.7381 20.3015 24.7316 20.3385 24.7243 20.3754C24.7169 20.4123 24.7087 20.4491 24.6996 20.4855C24.6904 20.522 24.6804 20.5583 24.6695 20.5943C24.6586 20.6303 24.6467 20.666 24.6341 20.7014C24.6214 20.7369 24.6078 20.772 24.5935 20.8067C24.579 20.8415 24.5638 20.8759 24.5476 20.9099C24.5316 20.9439 24.5147 20.9775 24.4969 21.0107C24.4792 21.0438 24.4606 21.0766 24.4413 21.1089C24.4219 21.1411 24.4018 21.173 24.3809 21.2042C24.3601 21.2355 24.3383 21.2663 24.3159 21.2965C24.2935 21.3267 24.2704 21.3563 24.2465 21.3855C24.2226 21.4146 24.198 21.443 24.1727 21.4709C24.1475 21.4988 24.1215 21.5261 24.0949 21.5526C24.0683 21.5793 24.041 21.6052 24.0131 21.6305C23.9852 21.6557 23.9568 21.6803 23.9276 21.7042C23.8985 21.728 23.8689 21.7512 23.8386 21.7736C23.8085 21.796 23.7776 21.8176 23.7464 21.8386C23.715 21.8594 23.6832 21.8796 23.651 21.899C23.6187 21.9183 23.5859 21.9368 23.5528 21.9546C23.5196 21.9723 23.486 21.9892 23.452 22.0053C23.4178 22.0214 23.3835 22.0367 23.3488 22.051C23.3139 22.0654 23.2788 22.079 23.2434 22.0917C23.2079 22.1043 23.1723 22.1161 23.1362 22.1271C23.1002 22.1379 23.0639 22.148 23.0275 22.1571C22.9909 22.1663 22.9542 22.1745 22.9173 22.1818C22.8804 22.1892 22.8432 22.1956 22.8061 22.2011C22.7689 22.2067 22.7315 22.2112 22.694 22.215C22.6566 22.2186 22.619 22.2214 22.5814 22.2233C22.5439 22.2251 22.5063 22.2261 22.4685 22.2261ZM2.29999 6.30895C2.25357 6.30895 2.20739 6.31124 2.16122 6.3157C2.11504 6.32029 2.06923 6.32704 2.02378 6.33608C1.97832 6.34512 1.93347 6.35633 1.88911 6.36984C1.84474 6.38334 1.80109 6.39889 1.75829 6.41662C1.71549 6.43434 1.67366 6.45411 1.63279 6.47593C1.59192 6.49788 1.55213 6.52163 1.51355 6.54731C1.47509 6.57311 1.43784 6.60072 1.40203 6.63013C1.36622 6.65943 1.33186 6.69054 1.29919 6.72333C1.2664 6.75612 1.23529 6.79036 1.20587 6.82617C1.17646 6.86198 1.14885 6.89923 1.12317 6.93769C1.09737 6.97627 1.07362 7.01594 1.05167 7.05681C1.02985 7.09768 1.01008 7.13951 0.992356 7.18231C0.974634 7.22511 0.95896 7.26876 0.945578 7.313C0.932075 7.35737 0.920862 7.40234 0.91182 7.44779C0.902778 7.49325 0.895906 7.53894 0.891445 7.58512C0.886863 7.63117 0.884573 7.67747 0.884573 7.72376V19.9269C0.884573 19.9732 0.886863 20.0194 0.891445 20.0656C0.895906 20.1116 0.902778 20.1575 0.91182 20.2029C0.920862 20.2484 0.932075 20.2932 0.945578 20.3376C0.95896 20.3819 0.974634 20.4256 0.992356 20.4684C1.01008 20.5112 1.02985 20.553 1.05167 20.5939C1.07362 20.6348 1.09737 20.6744 1.12317 20.7129C1.14885 20.7515 1.17646 20.7886 1.20587 20.8245C1.23529 20.8603 1.2664 20.8946 1.29919 20.9274C1.33186 20.9602 1.36622 20.9911 1.40203 21.0206C1.43784 21.05 1.47509 21.0776 1.51355 21.1033C1.55213 21.1291 1.59192 21.1528 1.63279 21.1746C1.67366 21.1966 1.71549 21.2164 1.75829 21.2341C1.80109 21.2518 1.84474 21.2674 1.88911 21.2809C1.93347 21.2942 1.97832 21.3056 2.02378 21.3146C2.06923 21.3237 2.11504 21.3304 2.16122 21.335C2.20739 21.3395 2.25357 21.3417 2.29999 21.3417H22.4685C22.5149 21.3417 22.5611 21.3395 22.6073 21.335C22.6535 21.3304 22.6993 21.3237 22.7447 21.3146C22.7902 21.3056 22.835 21.2942 22.8794 21.2809C22.9238 21.2674 22.9674 21.2518 23.0102 21.2341C23.053 21.2164 23.0949 21.1966 23.1357 21.1746C23.1766 21.1528 23.2164 21.1291 23.2548 21.1033C23.2934 21.0776 23.3307 21.05 23.3665 21.0206C23.4023 20.9911 23.4367 20.9602 23.4693 20.9274C23.5021 20.8946 23.5332 20.8603 23.5626 20.8245C23.5921 20.7886 23.6197 20.7515 23.6454 20.7129C23.6712 20.6744 23.6949 20.6348 23.7168 20.5939C23.7387 20.553 23.7584 20.5112 23.7762 20.4684C23.7939 20.4256 23.8096 20.3819 23.8229 20.3376C23.8364 20.2932 23.8477 20.2484 23.8567 20.2029C23.8657 20.1575 23.8726 20.1116 23.8771 20.0656C23.8817 20.0194 23.8839 19.9732 23.8839 19.9269V7.72376C23.8839 7.67747 23.8817 7.63117 23.8771 7.58512C23.8726 7.53894 23.8657 7.49325 23.8567 7.44779C23.8477 7.40234 23.8364 7.35737 23.8229 7.313C23.8096 7.26876 23.7939 7.22511 23.7762 7.18231C23.7584 7.13951 23.7387 7.09768 23.7168 7.05681C23.6949 7.01594 23.6712 6.97627 23.6454 6.93769C23.6197 6.89923 23.5921 6.86198 23.5626 6.82617C23.5332 6.79036 23.5021 6.75612 23.4693 6.72333C23.4367 6.69054 23.4023 6.65943 23.3665 6.63013C23.3307 6.60072 23.2934 6.57311 23.2548 6.54731C23.2164 6.52163 23.1766 6.49788 23.1357 6.47593C23.0949 6.45411 23.053 6.43434 23.0102 6.41662C22.9674 6.39889 22.9238 6.38334 22.8794 6.36984C22.835 6.35633 22.7902 6.34512 22.7447 6.33608C22.6993 6.32704 22.6535 6.32029 22.6073 6.3157C22.5611 6.31124 22.5149 6.30895 22.4685 6.30895H2.29999Z" fill="#FFFCFA"/>
</g>
<path d="M9.28832 12.4989H6.10822C6.04938 12.4993 5.99284 12.4883 5.93847 12.4661C5.88397 12.4438 5.83587 12.4121 5.79415 12.3706L0.442467 7.01629C0.421851 6.99567 0.403405 6.97325 0.387249 6.94902C0.371094 6.92478 0.35735 6.89922 0.346258 6.87234C0.335045 6.84533 0.326726 6.8176 0.32106 6.78903C0.315273 6.76045 0.3125 6.73164 0.3125 6.70246C0.3125 6.67329 0.315394 6.64447 0.32106 6.6159C0.326726 6.58733 0.335166 6.5596 0.346378 6.53259C0.35747 6.5057 0.371214 6.48015 0.38737 6.45591C0.403525 6.43168 0.421971 6.40925 0.442588 6.38864C0.463204 6.36802 0.485629 6.3497 0.509862 6.33342C0.534095 6.31726 0.559655 6.30364 0.58654 6.29243C0.613547 6.28134 0.641276 6.2729 0.66985 6.26711C0.698423 6.26144 0.727358 6.25867 0.756535 6.25867C0.78559 6.25855 0.814525 6.26144 0.843099 6.26711C0.871673 6.27278 0.899523 6.28122 0.926408 6.29231C0.953294 6.30352 0.978974 6.31714 1.00321 6.3333C1.02744 6.34945 1.04987 6.3679 1.07048 6.38852L6.28955 11.6146H9.28832C9.31737 11.6146 9.34607 11.6175 9.37464 11.6231C9.40309 11.6288 9.4307 11.6371 9.45759 11.6482C9.48435 11.6594 9.50991 11.673 9.53402 11.6891C9.55814 11.7052 9.58056 11.7236 9.60106 11.7441C9.62155 11.7647 9.63988 11.787 9.65603 11.8111C9.67219 11.8352 9.68581 11.8608 9.6969 11.8875C9.708 11.9144 9.71644 11.942 9.7221 11.9705C9.72777 11.9989 9.73066 12.0277 9.73066 12.0568C9.73066 12.0857 9.72777 12.1146 9.7221 12.143C9.71644 12.1715 9.708 12.1992 9.6969 12.226C9.68581 12.2528 9.67219 12.2783 9.65603 12.3024C9.63988 12.3265 9.62155 12.3489 9.60106 12.3694C9.58056 12.3899 9.55814 12.4082 9.53402 12.4244C9.50991 12.4406 9.48435 12.4542 9.45759 12.4653C9.4307 12.4764 9.40309 12.4848 9.37464 12.4903C9.34607 12.496 9.31737 12.4989 9.28832 12.4989Z" fill="#FFFCFA"/>
<path d="M0.442437 18.1628C0.383602 18.1631 0.327058 18.1521 0.272563 18.13C0.218189 18.1078 0.170085 18.0759 0.12837 18.0346C0.107633 18.014 0.0890661 17.9917 0.0727901 17.9674C0.056514 17.9432 0.0427698 17.9176 0.0315574 17.8906C0.0203451 17.8638 0.011785 17.8359 0.00611857 17.8073C0.000331547 17.7788 -0.00244141 17.7498 -0.00244141 17.7206C-0.00244141 17.6915 0.000331547 17.6625 0.00611857 17.634C0.011785 17.6053 0.0203451 17.5775 0.0315574 17.5505C0.0427698 17.5236 0.056514 17.4981 0.0727901 17.4739C0.0890661 17.4496 0.107633 17.4273 0.12837 17.4067L5.79412 11.7429C5.83583 11.7015 5.88394 11.6697 5.93843 11.6475C5.99281 11.6252 6.04935 11.6144 6.10819 11.6146H9.28829C9.31734 11.6146 9.34604 11.6175 9.37461 11.6232C9.40306 11.6288 9.43067 11.6371 9.45756 11.6482C9.48432 11.6594 9.50988 11.6731 9.53399 11.6891C9.55811 11.7053 9.58053 11.7236 9.60103 11.7441C9.62152 11.7647 9.63985 11.787 9.656 11.8111C9.67216 11.8352 9.68578 11.8608 9.69687 11.8876C9.70797 11.9144 9.7164 11.942 9.72207 11.9705C9.72774 11.999 9.73063 12.0278 9.73063 12.0568C9.73063 12.0858 9.72774 12.1146 9.72207 12.143C9.7164 12.1715 9.70797 12.1992 9.69687 12.226C9.68578 12.2529 9.67216 12.2783 9.656 12.3024C9.63985 12.3265 9.62152 12.3489 9.60103 12.3694C9.58053 12.3899 9.55811 12.4083 9.53399 12.4244C9.50988 12.4406 9.48432 12.4542 9.45756 12.4653C9.43067 12.4764 9.40306 12.4848 9.37461 12.4904C9.34604 12.496 9.31734 12.4989 9.28829 12.4989H6.28951L0.756384 18.0346C0.714669 18.0759 0.666564 18.1078 0.61219 18.13C0.557816 18.1521 0.501151 18.1631 0.442437 18.1628Z" fill="#FFFCFA"/>
<path d="M18.6605 12.4989H15.4804C15.4514 12.4989 15.4227 12.496 15.3941 12.4904C15.3657 12.4848 15.338 12.4764 15.3112 12.4653C15.2844 12.4542 15.2588 12.4406 15.2347 12.4244C15.2106 12.4083 15.1882 12.3899 15.1677 12.3694C15.1472 12.3489 15.1287 12.3265 15.1127 12.3024C15.0966 12.2783 15.0829 12.2529 15.0718 12.226C15.0606 12.1992 15.0523 12.1715 15.0466 12.143C15.041 12.1146 15.0381 12.0858 15.0381 12.0568C15.0381 12.0278 15.041 11.9989 15.0466 11.9705C15.0523 11.942 15.0606 11.9144 15.0718 11.8875C15.0829 11.8608 15.0966 11.8352 15.1127 11.8111C15.1287 11.787 15.1472 11.7647 15.1677 11.7441C15.1882 11.7236 15.2106 11.7053 15.2347 11.6891C15.2588 11.6731 15.2844 11.6594 15.3112 11.6482C15.338 11.6371 15.3657 11.6288 15.3941 11.6232C15.4227 11.6175 15.4514 11.6146 15.4804 11.6146H18.4792L23.7027 6.38853C23.7233 6.36804 23.7458 6.34983 23.77 6.33368C23.7941 6.31764 23.8197 6.30414 23.8466 6.29317C23.8734 6.28208 23.9012 6.27376 23.9297 6.26821C23.9582 6.26267 23.987 6.25989 24.0161 6.26001C24.0451 6.26013 24.0739 6.26303 24.1024 6.26881C24.1308 6.2746 24.1585 6.28316 24.1853 6.29437C24.2121 6.30547 24.2375 6.31921 24.2617 6.33549C24.2858 6.35164 24.3081 6.37009 24.3286 6.3907C24.3491 6.41132 24.3673 6.43375 24.3833 6.45798C24.3993 6.48221 24.413 6.50765 24.4239 6.53454C24.435 6.56142 24.4432 6.58915 24.4489 6.6176C24.4544 6.64618 24.4572 6.67499 24.4571 6.70405C24.457 6.73298 24.454 6.7618 24.4483 6.79025C24.4425 6.8187 24.4339 6.84631 24.4227 6.8732C24.4115 6.89996 24.3978 6.9254 24.3816 6.94951C24.3653 6.97363 24.3469 6.99593 24.3263 7.01631L18.9746 12.3706C18.9329 12.4121 18.8848 12.4438 18.8303 12.4661C18.7759 12.4883 18.7194 12.4993 18.6605 12.4989Z" fill="#FFFCFA"/>
<mask id="mask1_143_274" style="mask-type:luminance" maskUnits="userSpaceOnUse" x="15" y="11" width="10" height="8">
<path d="M15.0308 11.6049H24.7684V18.179H15.0308V11.6049Z" fill="white"/>
</mask>
<g mask="url(#mask1_143_274)">
<path d="M24.3263 18.1628C24.2676 18.1631 24.2109 18.1521 24.1565 18.13C24.1022 18.1078 24.054 18.0759 24.0123 18.0346L18.4792 12.4989H15.4804C15.4514 12.4989 15.4227 12.496 15.3941 12.4904C15.3657 12.4848 15.338 12.4764 15.3112 12.4653C15.2844 12.4542 15.2588 12.4406 15.2347 12.4244C15.2106 12.4083 15.1882 12.3899 15.1677 12.3694C15.1472 12.3489 15.1287 12.3265 15.1127 12.3024C15.0966 12.2783 15.0829 12.2529 15.0718 12.226C15.0606 12.1992 15.0523 12.1715 15.0466 12.143C15.041 12.1146 15.0381 12.0858 15.0381 12.0568C15.0381 12.0278 15.041 11.999 15.0466 11.9705C15.0523 11.942 15.0606 11.9144 15.0718 11.8876C15.0829 11.8608 15.0966 11.8352 15.1127 11.8111C15.1287 11.787 15.1472 11.7647 15.1677 11.7441C15.1882 11.7236 15.2106 11.7053 15.2347 11.6891C15.2588 11.6731 15.2844 11.6594 15.3112 11.6482C15.338 11.6371 15.3657 11.6288 15.3941 11.6232C15.4227 11.6175 15.4514 11.6146 15.4804 11.6146H18.6605C18.7194 11.6144 18.7759 11.6252 18.8303 11.6475C18.8848 11.6697 18.9329 11.7015 18.9746 11.7429L24.6403 17.4067C24.6611 17.4272 24.6797 17.4496 24.6959 17.4739C24.7122 17.4981 24.7259 17.5236 24.7372 17.5505C24.7484 17.5775 24.7569 17.6053 24.7626 17.634C24.7683 17.6625 24.7712 17.6915 24.7712 17.7206C24.7712 17.7498 24.7683 17.7788 24.7626 17.8073C24.7569 17.8359 24.7484 17.8638 24.7372 17.8906C24.7259 17.9176 24.7122 17.9432 24.6959 17.9674C24.6797 17.9916 24.6611 18.014 24.6403 18.0346C24.5986 18.0759 24.5505 18.1078 24.4962 18.13C24.4417 18.1521 24.3851 18.1631 24.3263 18.1628Z" fill="#FFFCFA"/>
</g>
<path d="M15.4802 13.8254H9.28805C9.25899 13.8254 9.2303 13.8225 9.20173 13.8168C9.17327 13.8111 9.14566 13.8028 9.11878 13.7917C9.09201 13.7806 9.06645 13.767 9.04234 13.7508C9.01823 13.7347 8.9958 13.7164 8.97531 13.6959C8.95481 13.6753 8.93637 13.6529 8.92033 13.6288C8.90418 13.6047 8.89055 13.5792 8.87946 13.5524C8.86825 13.5256 8.85993 13.4979 8.85426 13.4695C8.8486 13.441 8.8457 13.4122 8.8457 13.3832V10.7304C8.8457 10.7013 8.8486 10.6725 8.85426 10.644C8.85993 10.6156 8.86825 10.588 8.87946 10.5611C8.89055 10.5343 8.90418 10.5089 8.92033 10.4847C8.93649 10.4606 8.95481 10.4382 8.97531 10.4178C8.9958 10.3971 9.01823 10.3788 9.04234 10.3627C9.06645 10.3466 9.09201 10.333 9.11878 10.3219C9.14566 10.3107 9.17327 10.3024 9.20173 10.2967C9.2303 10.291 9.25899 10.2881 9.28805 10.2881H15.4802C15.5092 10.2881 15.5379 10.291 15.5665 10.2967C15.595 10.3024 15.6226 10.3107 15.6495 10.3219C15.6762 10.333 15.7018 10.3466 15.7259 10.3627C15.75 10.3788 15.7724 10.3971 15.7929 10.4178C15.8134 10.4382 15.8317 10.4606 15.8479 10.4847C15.8641 10.5088 15.8777 10.5343 15.8888 10.5611C15.8999 10.588 15.9083 10.6156 15.914 10.644C15.9196 10.6725 15.9225 10.7013 15.9225 10.7304V13.3832C15.9225 13.4122 15.9196 13.441 15.914 13.4695C15.9083 13.4979 15.8999 13.5256 15.8888 13.5524C15.8777 13.5792 15.8641 13.6047 15.8479 13.6288C15.8317 13.6529 15.8134 13.6753 15.7929 13.6959C15.7724 13.7164 15.75 13.7347 15.7259 13.7508C15.7018 13.767 15.6762 13.7806 15.6495 13.7917C15.6226 13.8028 15.595 13.8111 15.5665 13.8168C15.5379 13.8225 15.5092 13.8254 15.4802 13.8254ZM9.7304 12.941H15.0378V11.1725H9.7304V12.941Z" fill="#FFFCFA"/>
<mask id="mask2_143_274" style="mask-type:luminance" maskUnits="userSpaceOnUse" x="8" y="2" width="10" height="5">
<path d="M8.70361 2.76511H17.0678V6.32715H8.70361V2.76511Z" fill="white"/>
</mask>
<g mask="url(#mask2_143_274)">
<path d="M16.6038 6.30893H9.17329C9.13712 6.30893 9.10143 6.30459 9.06623 6.29591C9.03102 6.28723 8.99751 6.27433 8.96544 6.25745C8.93349 6.24045 8.90395 6.21984 8.87706 6.19561C8.85006 6.17149 8.82643 6.14437 8.80617 6.11435C8.78604 6.08445 8.76976 6.05262 8.75734 6.01874C8.74505 5.98498 8.73685 5.95014 8.73299 5.91421C8.72913 5.8784 8.72974 5.8426 8.73456 5.80691C8.7395 5.77122 8.74866 5.73662 8.76193 5.7031L9.82349 3.05035C9.83156 3.02998 9.84109 3.01044 9.85206 2.99164C9.86303 2.97271 9.87533 2.95474 9.88895 2.93774C9.9027 2.92062 9.9174 2.90471 9.93344 2.88988C9.94947 2.87505 9.96647 2.86143 9.98444 2.84913C10.0025 2.83671 10.0213 2.82586 10.041 2.81622C10.0606 2.80669 10.0809 2.79861 10.1016 2.7921C10.1225 2.78559 10.1437 2.78053 10.1653 2.77715C10.1869 2.77378 10.2086 2.77197 10.2304 2.77173H15.5379C15.56 2.77173 15.5818 2.7733 15.6037 2.77655C15.6255 2.77981 15.6468 2.78475 15.6679 2.79114C15.689 2.79765 15.7094 2.80561 15.7293 2.81501C15.7492 2.82454 15.7682 2.83551 15.7864 2.8478C15.8046 2.86022 15.8219 2.87385 15.838 2.8888C15.8543 2.90362 15.8693 2.91966 15.883 2.9369C15.8969 2.95402 15.9093 2.9721 15.9204 2.99115C15.9315 3.01008 15.9411 3.02985 15.9493 3.05035L17.0107 5.7031C17.0241 5.73662 17.0333 5.77122 17.0381 5.80691C17.0431 5.8426 17.0435 5.8784 17.0397 5.91421C17.0358 5.95014 17.0277 5.98498 17.0153 6.01874C17.003 6.05262 16.9868 6.08445 16.9665 6.11435C16.9465 6.144 16.9231 6.17089 16.8966 6.19488C16.8699 6.21899 16.8409 6.23937 16.8092 6.25637C16.7776 6.27337 16.7444 6.28627 16.7097 6.29507C16.675 6.30399 16.6398 6.30857 16.6038 6.30893ZM9.82349 5.4246H15.9493L15.2416 3.65606H10.5312L9.82349 5.4246Z" fill="#FFFCFA"/>
</g>
</g>
<defs>
<clipPath id="clip0_143_274">
<rect width="25" height="25" fill="white"/>
</clipPath>
</defs>
</svg>
