<svg width="32" height="32" viewBox="0 0 32 32" fill="none" xmlns="http://www.w3.org/2000/svg">
<path d="M16 1C13.0333 1 10.1332 1.87973 7.66645 3.52796C5.19972 5.17618 3.27713 7.51886 2.14181 10.2597C1.0065 13.0006 0.709449 16.0166 1.28823 18.9264C1.86701 21.8361 3.29562 24.5088 5.3934 26.6066C7.49119 28.7044 10.1639 30.133 13.0737 30.7118C15.9834 31.2906 18.9994 30.9935 21.7403 29.8582C24.4812 28.7229 26.8238 26.8003 28.4721 24.3336C30.1203 21.8668 31 18.9667 31 16C31 12.0218 29.4197 8.20644 26.6066 5.3934C23.7936 2.58035 19.9783 1 16 1ZM20.71 19.71L16.71 23.71C16.6149 23.801 16.5028 23.8724 16.38 23.92C16.2603 23.9729 16.1309 24.0002 16 24.0002C15.8691 24.0002 15.7397 23.9729 15.62 23.92C15.4973 23.8724 15.3851 23.801 15.29 23.71L11.29 19.71C11.1017 19.5217 10.9959 19.2663 10.9959 19C10.9959 18.7337 11.1017 18.4783 11.29 18.29C11.4783 18.1017 11.7337 17.9959 12 17.9959C12.2663 17.9959 12.5217 18.1017 12.71 18.29L15 20.59V9C15 8.73478 15.1054 8.48043 15.2929 8.29289C15.4804 8.10536 15.7348 8 16 8C16.2652 8 16.5196 8.10536 16.7071 8.29289C16.8947 8.48043 17 8.73478 17 9V20.59L19.29 18.29C19.4783 18.1017 19.7337 17.9959 20 17.9959C20.2663 17.9959 20.5217 18.1017 20.71 18.29C20.8983 18.4783 21.0041 18.7337 21.0041 19C21.0041 19.2663 20.8983 19.5217 20.71 19.71Z" fill="white"/>
</svg>
