<svg width="24" height="24" viewBox="0 0 24 24" fill="none" xmlns="http://www.w3.org/2000/svg">
<path d="M0.666504 4.6665C0.666504 3.424 0.666504 2.803 0.869504 2.3125C1.00357 1.98897 1.20004 1.69501 1.44772 1.44742C1.6954 1.19983 1.98942 1.00345 2.313 0.869504C2.803 0.666504 3.424 0.666504 4.6665 0.666504H6.3335C7.576 0.666504 8.197 0.666504 8.687 0.869504C9.01058 1.00345 9.30461 1.19983 9.55229 1.44742C9.79996 1.69501 9.99644 1.98897 10.1305 2.3125C10.3335 2.8025 10.3335 3.424 10.3335 4.6665V6.333C10.3335 7.5755 10.3335 8.197 10.1305 8.687C9.85971 9.34038 9.34047 9.85943 8.687 10.13C8.197 10.333 7.576 10.333 6.3335 10.333H4.6665C3.424 10.333 2.803 10.333 2.313 10.13C1.98942 9.99605 1.6954 9.79968 1.44772 9.55208C1.20004 9.30449 1.00357 9.01054 0.869504 8.687C0.666504 8.197 0.666504 7.5755 0.666504 6.333V4.6665Z" fill="#B9B0AB" fill-opacity="0.8"/>
<path fill-rule="evenodd" clip-rule="evenodd" d="M4.643 0H6.357C6.958 0 7.443 -5.02914e-08 7.838 0.027C8.2435 0.0545 8.6025 0.113 8.9425 0.2535C9.75907 0.591938 10.4078 1.24084 10.746 2.0575C10.887 2.3975 10.9455 2.7565 10.973 3.1625C11 3.557 11 4.042 11 4.643V6.357C11 6.958 11 7.443 10.973 7.838C10.9455 8.2435 10.887 8.6025 10.746 8.9425C10.4077 9.759 9.759 10.4077 8.9425 10.746C8.6025 10.887 8.2435 10.9455 7.8375 10.973C7.443 11 6.958 11 6.357 11H4.643C4.042 11 3.557 11 3.162 10.973C2.7565 10.9455 2.3975 10.887 2.0575 10.746C1.24084 10.4078 0.591938 9.75907 0.2535 8.9425C0.113 8.6025 0.0545 8.2435 0.027 7.8375C-5.02914e-08 7.4435 0 6.9585 0 6.3575V4.6435C0 4.0425 -5.02914e-08 3.5575 0.027 3.1625C0.0545 2.757 0.113 2.398 0.2535 2.058C0.591829 1.24124 1.24074 0.592329 2.0575 0.254C2.3975 0.1135 2.7565 0.0550002 3.1625 0.0275002C3.5565 1.52737e-07 4.042 0 4.643 0ZM3.253 1.357C2.915 1.38 2.718 1.4235 2.568 1.4855C2.32532 1.58601 2.10481 1.73334 1.91908 1.91908C1.73334 2.10481 1.58601 2.32532 1.4855 2.568C1.4235 2.718 1.3805 2.915 1.357 3.253C1.3335 3.597 1.3335 4.0365 1.3335 4.6665V6.3335C1.3335 6.9635 1.3335 7.4035 1.357 7.747C1.38 8.085 1.4235 8.282 1.4855 8.432C1.58601 8.67468 1.73334 8.89519 1.91908 9.08092C2.10481 9.26666 2.32532 9.41399 2.568 9.5145C2.718 9.5765 2.915 9.6195 3.253 9.643C3.597 9.6665 4.0365 9.6665 4.6665 9.6665H6.3335C6.9635 9.6665 7.4035 9.6665 7.747 9.643C8.085 9.62 8.282 9.5765 8.432 9.5145C8.67468 9.41399 8.89519 9.26666 9.08092 9.08092C9.26666 8.89519 9.41399 8.67468 9.5145 8.432C9.5765 8.282 9.6195 8.085 9.643 7.747C9.6665 7.403 9.6665 6.9635 9.6665 6.3335V4.6665C9.6665 4.0365 9.6665 3.5965 9.643 3.253C9.62 2.915 9.5765 2.718 9.5145 2.568C9.41399 2.32532 9.26666 2.10481 9.08092 1.91908C8.89519 1.73334 8.67468 1.58601 8.432 1.4855C8.282 1.4235 8.085 1.3805 7.747 1.357C7.403 1.3335 6.9635 1.3335 6.3335 1.3335H4.6665C4.0365 1.3335 3.5965 1.3335 3.253 1.357Z" fill="#B9B0AB" fill-opacity="0.8"/>
<path d="M0.666504 17.6665C0.666504 16.424 0.666504 15.803 0.869504 15.3125C1.00357 14.989 1.20004 14.695 1.44772 14.4474C1.6954 14.1998 1.98942 14.0035 2.313 13.8695C2.803 13.6665 3.424 13.6665 4.6665 13.6665H6.3335C7.576 13.6665 8.197 13.6665 8.687 13.8695C9.01058 14.0035 9.30461 14.1998 9.55229 14.4474C9.79996 14.695 9.99644 14.989 10.1305 15.3125C10.3335 15.8025 10.3335 16.424 10.3335 17.6665V19.333C10.3335 20.5755 10.3335 21.197 10.1305 21.687C9.85971 22.3404 9.34047 22.8594 8.687 23.13C8.197 23.333 7.576 23.333 6.3335 23.333H4.6665C3.424 23.333 2.803 23.333 2.313 23.13C1.98942 22.9961 1.6954 22.7997 1.44772 22.5521C1.20004 22.3045 1.00357 22.0105 0.869504 21.687C0.666504 21.197 0.666504 20.5755 0.666504 19.333V17.6665Z" fill="#B9B0AB" fill-opacity="0.8"/>
<path fill-rule="evenodd" clip-rule="evenodd" d="M4.643 13H6.357C6.958 13 7.443 13 7.838 13.027C8.2435 13.0545 8.6025 13.113 8.9425 13.2535C9.7591 13.5919 10.4078 14.2408 10.746 15.0575C10.887 15.3975 10.9455 15.7565 10.973 16.1625C11 16.557 11 17.042 11 17.643V19.357C11 19.958 11 20.443 10.973 20.838C10.9455 21.2435 10.887 21.6025 10.746 21.9425C10.4078 22.7592 9.7591 23.4081 8.9425 23.7465C8.6025 23.887 8.2435 23.9455 7.8375 23.973C7.443 24 6.958 24 6.357 24H4.643C4.042 24 3.557 24 3.162 23.973C2.7565 23.9455 2.3975 23.887 2.0575 23.7465C1.24074 23.4082 0.591829 22.7593 0.2535 21.9425C0.113 21.6025 0.0545 21.2435 0.027 20.8375C-5.02914e-08 20.4435 0 19.9585 0 19.3575V17.6435C0 17.0425 -5.02914e-08 16.5575 0.027 16.1625C0.0545 15.757 0.113 15.398 0.2535 15.058C0.591829 14.2412 1.24074 13.5923 2.0575 13.254C2.3975 13.1135 2.7565 13.055 3.1625 13.0275C3.5565 13 4.042 13 4.643 13ZM3.253 14.357C2.915 14.38 2.718 14.4235 2.568 14.4855C2.32532 14.586 2.10481 14.7333 1.91908 14.9191C1.73334 15.1048 1.58601 15.3253 1.4855 15.568C1.4235 15.718 1.3805 15.915 1.357 16.253C1.3335 16.597 1.3335 17.0365 1.3335 17.6665V19.3335C1.3335 19.9635 1.3335 20.4035 1.357 20.747C1.38 21.085 1.4235 21.282 1.4855 21.432C1.58601 21.6747 1.73334 21.8952 1.91908 22.0809C2.10481 22.2667 2.32532 22.414 2.568 22.5145C2.718 22.5765 2.915 22.6195 3.253 22.643C3.597 22.6665 4.0365 22.6665 4.6665 22.6665H6.3335C6.9635 22.6665 7.4035 22.6665 7.747 22.643C8.085 22.62 8.282 22.5765 8.432 22.5145C8.67468 22.414 8.89519 22.2667 9.08092 22.0809C9.26666 21.8952 9.41399 21.6747 9.5145 21.432C9.5765 21.282 9.6195 21.085 9.643 20.747C9.6665 20.403 9.6665 19.9635 9.6665 19.3335V17.6665C9.6665 17.0365 9.6665 16.5965 9.643 16.253C9.62 15.915 9.5765 15.718 9.5145 15.568C9.41399 15.3253 9.26666 15.1048 9.08092 14.9191C8.89519 14.7333 8.67468 14.586 8.432 14.4855C8.282 14.4235 8.085 14.3805 7.747 14.357C7.403 14.3335 6.9635 14.3335 6.3335 14.3335H4.6665C4.0365 14.3335 3.5965 14.3335 3.253 14.357Z" fill="#B9B0AB" fill-opacity="0.8"/>
<path d="M13.6665 4.6665C13.6665 3.424 13.6665 2.803 13.8695 2.3125C14.0036 1.98897 14.2 1.69501 14.4477 1.44742C14.6954 1.19983 14.9894 1.00345 15.313 0.869504C15.803 0.666504 16.424 0.666504 17.6665 0.666504H19.3335C20.576 0.666504 21.197 0.666504 21.687 0.869504C22.0106 1.00345 22.3046 1.19983 22.5523 1.44742C22.8 1.69501 22.9964 1.98897 23.1305 2.3125C23.3335 2.8025 23.3335 3.424 23.3335 4.6665V6.333C23.3335 7.5755 23.3335 8.197 23.1305 8.687C22.8597 9.34038 22.3405 9.85943 21.687 10.13C21.197 10.333 20.576 10.333 19.3335 10.333H17.6665C16.424 10.333 15.803 10.333 15.313 10.13C14.6595 9.85943 14.1403 9.34038 13.8695 8.687C13.6665 8.197 13.6665 7.5755 13.6665 6.333V4.6665Z" fill="#B9B0AB" fill-opacity="0.8"/>
<path fill-rule="evenodd" clip-rule="evenodd" d="M17.643 0H19.357C19.958 0 20.443 -5.02914e-08 20.838 0.027C21.2435 0.0545 21.6025 0.113 21.9425 0.2535C22.7593 0.591829 23.4082 1.24074 23.7465 2.0575C23.887 2.3975 23.9455 2.7565 23.973 3.1625C24 3.557 24 4.042 24 4.643V6.357C24 6.958 24 7.443 23.973 7.838C23.9455 8.2435 23.887 8.6025 23.7465 8.9425C23.4081 9.7591 22.7592 10.4078 21.9425 10.746C21.6025 10.887 21.2435 10.9455 20.8375 10.973C20.443 11 19.958 11 19.357 11H17.643C17.042 11 16.557 11 16.162 10.973C15.7565 10.9455 15.3975 10.887 15.0575 10.746C14.2408 10.4078 13.5919 9.7591 13.2535 8.9425C13.113 8.6025 13.0545 8.2435 13.027 7.8375C13 7.4435 13 6.9585 13 6.3575V4.6435C13 4.0425 13 3.5575 13.027 3.1625C13.0545 2.757 13.113 2.398 13.2535 2.058C13.5918 1.24124 14.2407 0.592329 15.0575 0.254C15.3975 0.1135 15.7565 0.0550002 16.1625 0.0275002C16.5565 1.52737e-07 17.042 0 17.643 0ZM16.253 1.357C15.915 1.38 15.718 1.4235 15.568 1.4855C15.3253 1.58601 15.1048 1.73334 14.9191 1.91908C14.7333 2.10481 14.586 2.32532 14.4855 2.568C14.4235 2.718 14.3805 2.915 14.357 3.253C14.3335 3.597 14.3335 4.0365 14.3335 4.6665V6.3335C14.3335 6.9635 14.3335 7.4035 14.357 7.747C14.38 8.085 14.4235 8.282 14.4855 8.432C14.586 8.67468 14.7333 8.89519 14.9191 9.08092C15.1048 9.26666 15.3253 9.41399 15.568 9.5145C15.718 9.5765 15.915 9.6195 16.253 9.643C16.597 9.6665 17.0365 9.6665 17.6665 9.6665H19.3335C19.9635 9.6665 20.4035 9.6665 20.747 9.643C21.085 9.62 21.282 9.5765 21.432 9.5145C21.6747 9.41399 21.8952 9.26666 22.0809 9.08092C22.2667 8.89519 22.414 8.67468 22.5145 8.432C22.5765 8.282 22.6195 8.085 22.643 7.747C22.6665 7.403 22.6665 6.9635 22.6665 6.3335V4.6665C22.6665 4.0365 22.6665 3.5965 22.643 3.253C22.62 2.915 22.5765 2.718 22.5145 2.568C22.414 2.32532 22.2667 2.10481 22.0809 1.91908C21.8952 1.73334 21.6747 1.58601 21.432 1.4855C21.282 1.4235 21.085 1.3805 20.747 1.357C20.403 1.3335 19.9635 1.3335 19.3335 1.3335H17.6665C17.0365 1.3335 16.5965 1.3335 16.253 1.357Z" fill="#B9B0AB" fill-opacity="0.8"/>
<path d="M13.6665 17.6665C13.6665 16.424 13.6665 15.803 13.8695 15.3125C14.0036 14.989 14.2 14.695 14.4477 14.4474C14.6954 14.1998 14.9894 14.0035 15.313 13.8695C15.803 13.6665 16.424 13.6665 17.6665 13.6665H19.3335C20.576 13.6665 21.197 13.6665 21.687 13.8695C22.0106 14.0035 22.3046 14.1998 22.5523 14.4474C22.8 14.695 22.9964 14.989 23.1305 15.3125C23.3335 15.8025 23.3335 16.424 23.3335 17.6665V19.333C23.3335 20.5755 23.3335 21.197 23.1305 21.687C22.8597 22.3404 22.3405 22.8594 21.687 23.13C21.197 23.333 20.576 23.333 19.3335 23.333H17.6665C16.424 23.333 15.803 23.333 15.313 23.13C14.6595 22.8594 14.1403 22.3404 13.8695 21.687C13.6665 21.197 13.6665 20.5755 13.6665 19.333V17.6665Z" fill="#B9B0AB" fill-opacity="0.8"/>
<path fill-rule="evenodd" clip-rule="evenodd" d="M17.643 13H19.357C19.958 13 20.443 13 20.838 13.027C21.2435 13.0545 21.6025 13.113 21.9425 13.2535C22.3469 13.421 22.7144 13.6665 23.0239 13.9761C23.3335 14.2856 23.579 14.6531 23.7465 15.0575C23.887 15.3975 23.9455 15.7565 23.973 16.1625C24 16.557 24 17.042 24 17.643V19.357C24 19.958 24 20.443 23.973 20.838C23.9455 21.2435 23.887 21.6025 23.7465 21.9425C23.579 22.3469 23.3335 22.7144 23.0239 23.0239C22.7144 23.3335 22.3469 23.579 21.9425 23.7465C21.6025 23.887 21.2435 23.9455 20.8375 23.973C20.443 24 19.958 24 19.357 24H17.643C17.042 24 16.557 24 16.162 23.973C15.7565 23.9455 15.3975 23.887 15.0575 23.7465C14.6531 23.579 14.2856 23.3335 13.9761 23.0239C13.6665 22.7144 13.421 22.3469 13.2535 21.9425C13.113 21.6025 13.0545 21.2435 13.027 20.8375C13 20.4435 13 19.9585 13 19.3575V17.6435C13 17.0425 13 16.5575 13.027 16.1625C13.0545 15.757 13.113 15.398 13.2535 15.058C13.421 14.6536 13.6665 14.2861 13.9761 13.9766C14.2856 13.667 14.6531 13.4215 15.0575 13.254C15.3975 13.1135 15.7565 13.055 16.1625 13.0275C16.5565 13 17.042 13 17.643 13ZM16.253 14.357C15.915 14.38 15.718 14.4235 15.568 14.4855C15.3253 14.586 15.1048 14.7333 14.9191 14.9191C14.7333 15.1048 14.586 15.3253 14.4855 15.568C14.4235 15.718 14.3805 15.915 14.357 16.253C14.3335 16.597 14.3335 17.0365 14.3335 17.6665V19.3335C14.3335 19.9635 14.3335 20.4035 14.357 20.747C14.38 21.085 14.4235 21.282 14.4855 21.432C14.586 21.6747 14.7333 21.8952 14.9191 22.0809C15.1048 22.2667 15.3253 22.414 15.568 22.5145C15.718 22.5765 15.915 22.6195 16.253 22.643C16.597 22.6665 17.0365 22.6665 17.6665 22.6665H19.3335C19.9635 22.6665 20.4035 22.6665 20.747 22.643C21.085 22.62 21.282 22.5765 21.432 22.5145C21.6747 22.414 21.8952 22.2667 22.0809 22.0809C22.2667 21.8952 22.414 21.6747 22.5145 21.432C22.5765 21.282 22.6195 21.085 22.643 20.747C22.6665 20.403 22.6665 19.9635 22.6665 19.3335V17.6665C22.6665 17.0365 22.6665 16.5965 22.643 16.253C22.62 15.915 22.5765 15.718 22.5145 15.568C22.414 15.3253 22.2667 15.1048 22.0809 14.9191C21.8952 14.7333 21.6747 14.586 21.432 14.4855C21.282 14.4235 21.085 14.3805 20.747 14.357C20.403 14.3335 19.9635 14.3335 19.3335 14.3335H17.6665C17.0365 14.3335 16.5965 14.3335 16.253 14.357Z" fill="#B9B0AB" fill-opacity="0.8"/>
</svg>
