<svg width="40" height="40" viewBox="0 0 40 40" fill="none" xmlns="http://www.w3.org/2000/svg">
<path fill-rule="evenodd" clip-rule="evenodd" d="M3.33337 20C3.33337 10.7953 10.7953 3.33337 20 3.33337C29.2048 3.33337 36.6667 10.7953 36.6667 20C36.6667 25.0235 34.4442 29.5279 30.9289 32.5836C30.1661 30.5418 28.8433 28.7469 27.1023 27.4109C25.0647 25.8475 22.5683 25 20 25C17.4318 25 14.9353 25.8475 12.8978 27.4109C11.1568 28.7469 9.834 30.5418 9.07119 32.5836C5.55586 29.5279 3.33337 25.0235 3.33337 20ZM28.0494 34.5099C28.0562 34.5353 28.0636 34.5605 28.0715 34.5853C25.6802 35.9115 22.9283 36.6667 20 36.6667C17.0718 36.6667 14.3199 35.9115 11.9286 34.5853C11.9365 34.5605 11.9438 34.5353 11.9507 34.5099C12.4255 32.7379 13.4717 31.1722 14.927 30.0554C16.3824 28.9387 18.1656 28.3334 20 28.3334C21.8345 28.3334 23.6177 28.9387 25.0731 30.0554C26.5284 31.1722 27.5746 32.7379 28.0494 34.5099ZM16.6667 15C16.6667 13.1591 18.1591 11.6667 20 11.6667C21.841 11.6667 23.3334 13.1591 23.3334 15C23.3334 16.841 21.841 18.3334 20 18.3334C18.1591 18.3334 16.6667 16.841 16.6667 15ZM20 8.33337C16.3181 8.33337 13.3334 11.3181 13.3334 15C13.3334 18.6819 16.3181 21.6667 20 21.6667C23.6819 21.6667 26.6667 18.6819 26.6667 15C26.6667 11.3181 23.6819 8.33337 20 8.33337Z" fill="#1F3881"/>
</svg>
