<svg width="24" height="24" viewBox="0 0 24 24" fill="none" xmlns="http://www.w3.org/2000/svg">
<path fill-rule="evenodd" clip-rule="evenodd" d="M12 24C18.6276 24 24 18.6276 24 12C24 5.3724 18.6276 0 12 0C5.3724 0 0 5.3724 0 12C0 18.6276 5.3724 24 12 24ZM15.8784 13.6332L17.7312 15.4908C18.0996 15.8616 18.0876 16.4748 17.7072 16.8588L17.1768 17.3772L17.1648 17.3664C16.7203 17.7076 16.1923 17.9231 15.636 17.9904C15.516 18.0036 12.714 18.2664 9.2364 14.7816C6.72 12.2604 5.7924 10.4016 6.0384 8.3688C6.066 8.1144 6.1284 7.8624 6.2304 7.5972C6.3384 7.3188 6.4848 7.0596 6.66 6.8364L6.6456 6.822L7.1676 6.2952C7.5504 5.9112 8.1624 5.9004 8.5296 6.27L10.3836 8.1276C10.752 8.4972 10.7412 9.1092 10.3596 9.4932L10.05 9.8016L9.4236 10.4292C9.4577 10.4889 9.4913 10.5489 9.5244 10.6092L9.5256 10.6128C9.8532 11.2044 10.302 12.0132 11.1516 12.864C12.0012 13.716 12.8076 14.1648 13.398 14.4924L13.5816 14.5956L14.5152 13.6596C14.898 13.2756 15.5088 13.2648 15.8784 13.6344V13.6332Z" fill="#1F3881"/>
</svg>
