<svg width="24" height="24" viewBox="0 0 24 24" fill="none" xmlns="http://www.w3.org/2000/svg">
<path d="M15.4088 3.2664L14 2.63523V3.52343L11.6089 4.53967L9.41318 5.47284L11.618 6.38417L15.5 7.98872V12.57V14.013L16.8511 13.5063L19.8511 12.3813L20.5 12.138V11.445V6.195V5.54723L19.9088 5.2824L15.4088 3.2664ZM3.35112 15.8877L2 15.381V16.824V18.426V19.119L2.64888 19.3623L5.64888 20.4873L7 20.994V19.551V17.949V17.256L6.35112 17.0127L3.35112 15.8877ZM1 5.193L12 1.068L23 5.193V18.807L12 22.932L1 18.807V5.193Z" stroke="#B9B0AB" stroke-opacity="0.8" stroke-width="2"/>
</svg>
