<svg width="26" height="22" viewBox="0 0 26 22" fill="none" xmlns="http://www.w3.org/2000/svg">
<path d="M12 21C12 21.2652 11.8946 21.5196 11.7071 21.7071C11.5196 21.8946 11.2652 22 11 22C8.82441 22 6.69767 21.3549 4.88873 20.1462C3.07979 18.9375 1.66989 17.2195 0.83733 15.2095C0.00476617 13.1995 -0.213071 10.9878 0.211367 8.85401C0.635804 6.72022 1.68345 4.76021 3.22183 3.22183C4.76021 1.68345 6.72022 0.635804 8.85401 0.211367C10.9878 -0.213071 13.1995 0.00476617 15.2095 0.83733C17.2195 1.66989 18.9375 3.07979 20.1462 4.88873C21.3549 6.69767 22 8.82441 22 11C22 11.2652 21.8946 11.5196 21.7071 11.7071C21.5196 11.8946 21.2652 12 21 12C20.7348 12 20.4804 11.8946 20.2929 11.7071C20.1054 11.5196 20 11.2652 20 11C20 9.21997 19.4722 7.47991 18.4832 5.99987C17.4943 4.51983 16.0887 3.36628 14.4442 2.68509C12.7996 2.0039 10.99 1.82567 9.24419 2.17294C7.49836 2.5202 5.89472 3.37737 4.63604 4.63604C3.37737 5.89472 2.5202 7.49836 2.17294 9.24419C1.82567 10.99 2.0039 12.7996 2.68509 14.4442C3.36628 16.0887 4.51983 17.4943 5.99987 18.4832C7.47991 19.4722 9.21997 20 11 20C11.2652 20 11.5196 20.1054 11.7071 20.2929C11.8946 20.4804 12 20.7348 12 21ZM10 5V10H7C6.73479 10 6.48043 10.1054 6.2929 10.2929C6.10536 10.4804 6 10.7348 6 11C6 11.2652 6.10536 11.5196 6.2929 11.7071C6.48043 11.8946 6.73479 12 7 12H11C11.2652 12 11.5196 11.8946 11.7071 11.7071C11.8946 11.5196 12 11.2652 12 11V5C12 4.73479 11.8946 4.48043 11.7071 4.2929C11.5196 4.10536 11.2652 4 11 4C10.7348 4 10.4804 4.10536 10.2929 4.2929C10.1054 4.48043 10 4.73479 10 5ZM18 13H14C13.7348 13 13.4804 13.1054 13.2929 13.2929C13.1054 13.4804 13 13.7348 13 14C13 14.2652 13.1054 14.5196 13.2929 14.7071C13.4804 14.8946 13.7348 15 14 15H17V16H14C13.7348 16 13.4804 16.1054 13.2929 16.2929C13.1054 16.4804 13 16.7348 13 17V20C13 20.2652 13.1054 20.5196 13.2929 20.7071C13.4804 20.8946 13.7348 21 14 21H18C18.2652 21 18.5196 20.8946 18.7071 20.7071C18.8946 20.5196 19 20.2652 19 20C19 19.7348 18.8946 19.4804 18.7071 19.2929C18.5196 19.1054 18.2652 19 18 19H15V18H18C18.2652 18 18.5196 17.8946 18.7071 17.7071C18.8946 17.5196 19 17.2652 19 17V14C19 13.7348 18.8946 13.4804 18.7071 13.2929C18.5196 13.1054 18.2652 13 18 13ZM25 13C24.7348 13 24.4804 13.1054 24.2929 13.2929C24.1054 13.4804 24 13.7348 24 14V16H22V14C22 13.7348 21.8946 13.4804 21.7071 13.2929C21.5196 13.1054 21.2652 13 21 13C20.7348 13 20.4804 13.1054 20.2929 13.2929C20.1054 13.4804 20 13.7348 20 14V17C20 17.2652 20.1054 17.5196 20.2929 17.7071C20.4804 17.8946 20.7348 18 21 18H24V20C24 20.2652 24.1054 20.5196 24.2929 20.7071C24.4804 20.8946 24.7348 21 25 21C25.2652 21 25.5196 20.8946 25.7071 20.7071C25.8946 20.5196 26 20.2652 26 20V14C26 13.7348 25.8946 13.4804 25.7071 13.2929C25.5196 13.1054 25.2652 13 25 13Z" fill="#B9B0AB" fill-opacity="0.8"/>
</svg>
