<svg width="48" height="48" viewBox="0 0 48 48" fill="none" xmlns="http://www.w3.org/2000/svg">
<circle cx="24" cy="24" r="23" fill="#F5F5F5" stroke="#1F3881" stroke-width="2"/>
<path d="M20 32L19.2929 32.7071L20 33.4142L20.7071 32.7071L20 32ZM22 17C22.5523 17 23 16.5523 23 16C23 15.4477 22.5523 15 22 15L22 17ZM15.2929 28.7071L19.2929 32.7071L20.7071 31.2929L16.7071 27.2929L15.2929 28.7071ZM20.7071 32.7071L24.7071 28.7071L23.2929 27.2929L19.2929 31.2929L20.7071 32.7071ZM21 32L21 18L19 18L19 32L21 32ZM21 18C21 17.4477 21.4477 17 22 17L22 15C20.3431 15 19 16.3431 19 18L21 18Z" fill="#1F3881"/>
<path d="M28 16L27.2929 15.2929L28 14.5858L28.7071 15.2929L28 16ZM28 31L29 31L29 31L28 31ZM26 34C25.4477 34 25 33.5523 25 33C25 32.4477 25.4477 32 26 32L26 34ZM23.2929 19.2929L27.2929 15.2929L28.7071 16.7071L24.7071 20.7071L23.2929 19.2929ZM28.7071 15.2929L32.7071 19.2929L31.2929 20.7071L27.2929 16.7071L28.7071 15.2929ZM29 16L29 31L27 31L27 16L29 16ZM29 31C29 32.6569 27.6569 34 26 34L26 32C26.5523 32 27 31.5523 27 31L29 31Z" fill="#1F3881"/>
</svg>
