<svg width="16" height="19" viewBox="0 0 16 19" fill="none" xmlns="http://www.w3.org/2000/svg">
<path d="M7.57903 9.556C10.2178 9.556 12.357 7.41682 12.357 4.778C12.357 2.13918 10.2178 0 7.57903 0C4.94021 0 2.80103 2.13918 2.80103 4.778C2.80103 7.41682 4.94021 9.556 7.57903 9.556Z" fill="#FBBB99"/>
<path fill-rule="evenodd" clip-rule="evenodd" d="M1.57794e-05 15.2014C-0.00125183 14.8655 0.073869 14.5337 0.219712 14.2311C0.677378 13.3158 1.968 12.8307 3.03893 12.611C3.81129 12.4462 4.59432 12.336 5.38218 12.2815C6.84085 12.1533 8.30795 12.1533 9.76662 12.2815C10.5544 12.3367 11.3374 12.4468 12.1099 12.611C13.1808 12.8307 14.4714 13.27 14.9291 14.2311C15.2224 14.8479 15.2224 15.564 14.9291 16.1808C14.4714 17.1419 13.1808 17.5812 12.1099 17.7918C11.3384 17.9634 10.5551 18.0766 9.76662 18.1304C8.57938 18.2311 7.3866 18.2494 6.19683 18.1854C5.92223 18.1854 5.65678 18.1854 5.38218 18.1304C4.59665 18.0773 3.81633 17.9641 3.04809 17.7918C1.968 17.5812 0.686531 17.1419 0.219712 16.1808C0.074614 15.8747 -0.000432169 15.5401 1.57794e-05 15.2014Z" fill="#FC5F0F"/>
</svg>
