<svg width="25" height="25" viewBox="0 0 25 25" fill="none" xmlns="http://www.w3.org/2000/svg">
<path fill-rule="evenodd" clip-rule="evenodd" d="M24.7978 11.4079L24.5113 14.452C24.0391 19.4678 23.8031 21.9756 22.3249 23.4877C20.8466 25 18.631 25 14.1999 25H10.8001C6.36896 25 4.15339 25 2.67511 23.4877C1.19685 21.9756 0.96081 19.4678 0.488747 14.452L0.20226 11.4079C-0.0227529 9.01713 -0.135253 7.82174 0.273735 7.32759C0.494972 7.06029 0.795822 6.8965 1.11749 6.86825C1.7121 6.81602 2.45885 7.66612 3.95234 9.36634C4.72471 10.2456 5.1109 10.6853 5.54171 10.7534C5.78042 10.791 6.02365 10.7522 6.24407 10.6414C6.64189 10.4411 6.90712 9.89765 7.43759 8.81065L10.2336 3.08107C11.236 1.02702 11.7373 0 12.5 0C13.2628 0 13.764 1.02702 14.7664 3.08106L17.5624 8.81064C18.0929 9.89765 18.3581 10.4411 18.7559 10.6414C18.9764 10.7522 19.2196 10.791 19.4583 10.7534C19.8891 10.6853 20.2753 10.2456 21.0476 9.36634C22.5411 7.66612 23.2879 6.81602 23.8825 6.86825C24.2041 6.8965 24.505 7.06029 24.7263 7.32759C25.1353 7.82174 25.0228 9.01713 24.7978 11.4079ZM13.6905 13.3738L13.5676 13.1534C13.0926 12.3013 12.8551 11.8752 12.5 11.8752C12.1449 11.8752 11.9074 12.3013 11.4324 13.1534L11.3095 13.3738C11.1746 13.6159 11.1071 13.737 11.0019 13.8169C10.8966 13.8968 10.7656 13.9264 10.5035 13.9857L10.2649 14.0398C9.34245 14.2484 8.88126 14.3527 8.77154 14.7056C8.66181 15.0585 8.97621 15.4261 9.60504 16.1614L9.76772 16.3516C9.94641 16.5606 10.0358 16.6651 10.076 16.7944C10.1161 16.9236 10.1026 17.063 10.0756 17.3417L10.051 17.5956C9.95595 18.5766 9.90843 19.0672 10.1956 19.2852C10.483 19.5034 10.9148 19.3045 11.7784 18.9069L12.0018 18.804C12.2473 18.691 12.3699 18.6345 12.5 18.6345C12.6301 18.6345 12.7528 18.691 12.9983 18.804L13.2216 18.9069C14.0853 19.3045 14.517 19.5034 14.8044 19.2852C15.0916 19.0672 15.044 18.5766 14.949 17.5956L14.9244 17.3417C14.8974 17.063 14.8839 16.9236 14.924 16.7944C14.9643 16.6651 15.0536 16.5606 15.2323 16.3516L15.395 16.1614C16.0238 15.4261 16.3383 15.0585 16.2285 14.7056C16.1188 14.3527 15.6575 14.2484 14.7351 14.0398L14.4965 13.9857C14.2344 13.9264 14.1034 13.8968 13.9981 13.8169C13.8929 13.737 13.8254 13.6159 13.6905 13.3738Z" fill="#FCBA98"/>
</svg>
