<svg width="46" height="41" viewBox="0 0 46 41" fill="none" xmlns="http://www.w3.org/2000/svg">
<path d="M33.0592 0C40.9089 0 45.5475 4.50686 45.5475 12.1585V12.2433H35.9018C31.4131 12.2512 27.7767 15.7967 27.7686 20.1733C27.7626 24.5597 31.403 28.121 35.9018 28.1269H45.5556V28.8238C45.5556 36.4754 40.917 41 33.0673 41H12.4903C4.63857 41 0 36.4754 0 28.8238V12.1585C0 4.50686 4.63857 0 12.4903 0H33.0592ZM23.6504 8.82617H10.7957C9.84 8.83013 9.06454 9.58621 9.06048 10.52C9.05644 11.4577 9.83393 12.2216 10.7957 12.2256H23.6666C24.6283 12.2216 25.4058 11.4577 25.4018 10.518C25.3977 9.58029 24.6121 8.82223 23.6504 8.82617Z" fill="#DFDFDF"/>
<path opacity="0.4" d="M31.9739 21.1757C32.4502 23.3423 34.3498 24.8667 36.5185 24.827H43.9211C44.8234 24.827 45.5553 24.0797 45.5553 23.156V17.3897C45.5534 16.4679 44.8234 15.7186 43.9211 15.7167H36.3442C33.8773 15.7246 31.8848 17.7722 31.8887 20.2956C31.8887 20.591 31.9177 20.8863 31.9739 21.1757Z" fill="#ECECEC"/>
<path d="M36.4443 22.55C37.7023 22.55 38.7221 21.5302 38.7221 20.2722C38.7221 19.0142 37.7023 17.9944 36.4443 17.9944C35.1863 17.9944 34.1665 19.0142 34.1665 20.2722C34.1665 21.5302 35.1863 22.55 36.4443 22.55Z" fill="#DFDFDF"/>
</svg>
