<svg width="45" height="45" viewBox="0 0 45 45" fill="none" xmlns="http://www.w3.org/2000/svg">
<path d="M22.5 4.21875C19.3247 4.21961 16.2044 5.04726 13.4462 6.62025C10.6879 8.19325 8.38677 10.4574 6.76925 13.1897C5.15174 15.9221 4.27359 19.0286 4.22124 22.2035C4.16889 25.3783 4.94414 28.512 6.47069 31.2963L4.96831 36.5548C4.83047 37.037 4.82412 37.5474 4.94991 38.0329C5.07571 38.5185 5.32906 38.9616 5.68372 39.3162C6.03838 39.6709 6.48144 39.9243 6.96698 40.0501C7.45252 40.1759 7.96288 40.1696 8.44515 40.0318L13.7038 38.5294C16.1476 39.8703 18.8656 40.6347 21.6501 40.7641C24.4346 40.8935 27.2118 40.3845 29.7693 39.2759C32.3269 38.1674 34.5972 36.4887 36.4065 34.3683C38.2158 32.2478 39.5163 29.7417 40.2085 27.0415C40.9008 24.3414 40.9664 21.5187 40.4005 18.7892C39.8345 16.0598 38.6519 13.496 36.9431 11.2937C35.2343 9.09138 33.0446 7.30898 30.5413 6.08275C28.038 4.85653 25.2875 4.21895 22.5 4.21875ZM26.7406 33.75C26.7355 33.7541 26.7259 33.75 26.7185 33.75C24.6853 33.75 22.672 33.3492 20.7939 32.5704C18.9157 31.7917 17.2095 30.6503 15.7728 29.2116C14.3361 27.7729 13.1972 26.065 12.4211 24.1858C11.645 22.3065 11.247 20.2927 11.2499 18.2595C11.2563 16.5851 11.9258 14.9815 13.1118 13.7996C14.2978 12.6177 15.9037 11.9538 17.578 11.9531C18.0394 11.9537 18.4925 12.0759 18.8915 12.3075C19.2906 12.5391 19.6216 12.8717 19.851 13.272L21.9061 16.8687C22.1536 17.3025 22.2813 17.7944 22.276 18.2939C22.2707 18.7934 22.1326 19.2825 21.8758 19.711L20.6259 21.7943C21.2441 22.8661 22.1339 23.756 23.2057 24.3742L25.2889 23.1242C25.7174 22.8674 26.2065 22.7293 26.706 22.724C27.2055 22.7186 27.6975 22.8463 28.1314 23.0938L31.7278 25.1489C32.1281 25.3783 32.4608 25.7092 32.6924 26.1083C32.924 26.5074 33.0462 26.9605 33.0468 27.4219C33.0461 29.0962 32.3822 30.7021 31.2004 31.8881C30.0185 33.074 28.415 33.7435 26.7406 33.75Z" fill="#1F3881"/>
<path d="M23.9854 27.1862C23.7909 27.3029 23.5711 27.3709 23.3447 27.3843C23.1183 27.3976 22.892 27.356 22.6851 27.2629C20.4858 26.2748 18.7252 24.5143 17.7371 22.3149C17.6441 22.1081 17.6025 21.8818 17.6158 21.6554C17.6292 21.4289 17.6971 21.2091 17.8138 21.0146L19.4642 18.2639L17.4662 14.7673C16.5566 14.7959 15.6936 15.1762 15.0587 15.8282C14.4239 16.4803 14.0667 17.3532 14.0625 18.2632C14.0602 19.9268 14.3858 21.5745 15.0208 23.1121C15.6557 24.6497 16.5876 26.047 17.7631 27.2242C18.9386 28.4013 20.3346 29.3352 21.8713 29.9724C23.408 30.6095 25.0552 30.9375 26.7188 30.9375H26.7368C27.6468 30.9333 28.5197 30.5761 29.1718 29.9413C29.8238 29.3064 30.2041 28.4434 30.2327 27.5338L26.7361 25.5358L23.9854 27.1862Z" fill="#1F3881"/>
</svg>
