<svg width="22" height="16" viewBox="0 0 22 16" fill="none" xmlns="http://www.w3.org/2000/svg">
<path d="M1 3.83V1H21V3.83M3.5 3.83V9H18.5V3.83M3.5 12H18.5H3.5ZM3.5 15H18.5H3.5Z" fill="white"/>
<path d="M1 3.83V1H21V3.83M3.5 3.83V9H18.5V3.83M3.5 12H18.5M3.5 15H18.5" stroke="white" stroke-width="1.1" stroke-linecap="round" stroke-linejoin="round"/>
<path d="M12.9 4.427C12.9 4.93171 12.6995 5.41574 12.3426 5.77263C11.9857 6.12951 11.5017 6.33 10.997 6.33C10.4923 6.33 10.0083 6.12951 9.65137 5.77263C9.29449 5.41574 9.09399 4.93171 9.09399 4.427" fill="#1F3881"/>
</svg>
