<svg width="40" height="40" viewBox="0 0 40 40" fill="none" xmlns="http://www.w3.org/2000/svg">
<g clip-path="url(#clip0_216_83)">
<path d="M17.3359 23.8516L23.8828 20.0078L17.3359 16.1641V23.8516Z" fill="#1F3881"/>
<path d="M20 0C8.95312 0 0 8.95312 0 20C0 31.0469 8.95312 40 20 40C31.0469 40 40 31.0469 40 20C40 8.95312 31.0469 0 20 0ZM30 23.5781C30 27.0234 26.5547 27.0234 26.5547 27.0234H13.4453C10 27.0234 10 23.5781 10 23.5781V16.4297C10 12.9844 13.4453 12.9844 13.4453 12.9844H26.5547C30 12.9844 30 16.4297 30 16.4297V23.5781Z" fill="#1F3881"/>
</g>
<defs>
<clipPath id="clip0_216_83">
<rect width="40" height="40" fill="white"/>
</clipPath>
</defs>
</svg>
