<svg width="31" height="31" viewBox="0 0 31 31" fill="none" xmlns="http://www.w3.org/2000/svg">
<circle cx="15.0583" cy="15.0583" r="14.4175" fill="white" stroke="#FC5F0F" stroke-width="1.28155"/>
<path d="M15.3791 9.61169C15.3791 9.2578 15.0922 8.97092 14.7383 8.97092C14.3844 8.97092 14.0975 9.2578 14.0975 9.61169H15.3791ZM14.2852 20.958C14.5354 21.2082 14.9411 21.2082 15.1914 20.958L19.2693 16.8801C19.5195 16.6299 19.5195 16.2242 19.2693 15.9739C19.019 15.7237 18.6133 15.7237 18.3631 15.9739L14.7383 19.5987L11.1135 15.9739C10.8633 15.7237 10.4575 15.7237 10.2073 15.9739C9.95707 16.2242 9.95707 16.6299 10.2073 16.8801L14.2852 20.958ZM14.0975 9.61169V20.5049H15.3791V9.61169H14.0975Z" fill="#FC5F0F"/>
</svg>
